<?xml version="1.0" standalone="no"?>
<!DOCTYPE svg PUBLIC "-//W3C//DTD SVG 1.1//EN" "http://www.w3.org/Graphics/SVG/1.1/DTD/svg11.dtd" >
<svg xmlns="http://www.w3.org/2000/svg" xmlns:xlink="http://www.w3.org/1999/xlink" version="1.1">
<metadata>
Created by FontForge 20201107 at Sat Oct 15 20:28:14 2022
 By 
Copyright (c) 2022, Sayhone
</metadata>
<defs>
<font id="ArchitunMedium" horiz-adv-x="423" >
  <font-face 
    font-family="Architun"
    font-weight="500"
    font-stretch="normal"
    units-per-em="1000"
    panose-1="2 0 6 3 0 0 0 0 0 0"
    ascent="800"
    descent="-200"
    x-height="504"
    cap-height="644"
    bbox="-189.615 -262.521 1182 1049.2"
    underline-thickness="50"
    underline-position="-100"
    unicode-range="U+0020-266C"
  />
<missing-glyph horiz-adv-x="500" 
d="M447 190q13 -16 14.5 -35t-7.5 -31q-10 -14 -26.5 -18.5t-36.5 7.5q-39 27 -68 57.5t-53 61.5q-14 18 -23 29q-19 -20 -47 -57q-55 -68 -67 -80q-24 -18 -44 -16t-33 16q-29 30 -7 76q12 23 79 84q25 24 47 43q-11 10 -24 22q-75 67 -100 96q-12 14 -13 30t4.5 26.5
t14.5 19.5q14 14 33.5 16t43.5 -16q17 -15 60 -72q40 -52 50 -64q11 10 29 28q30 30 56.5 56t55.5 43t45 8q14 -8 23.5 -22t9 -32.5t-16.5 -33.5q-33 -32 -134 -113q15 -14 32 -31q89 -83 103 -98z" />
    <glyph glyph-name="uni0457_uni0457" unicode="&#x457;&#x457;" horiz-adv-x="305" 
d="M205 471q8 -25 8 -113q0 -26 -0.5 -70.5t-0.5 -106.5q0 -85 -2 -115.5t-8 -41t-21 -17.5t-30 -7q-54 0 -56 59q-1 53 -1 224t3 199q3 13 18 22t29 9q16 0 36 -11t25 -31zM88 594q-2 31 18 49t49 18q34 0 50.5 -20t13.5 -50q-3 -33 -18.5 -48t-48.5 -18q-30 -3 -45.5 11.5
t-18.5 57.5zM-50 591q-2 31 17 50t47 20q29 1 45.5 -19t18.5 -51q2 -32 -15 -49.5t-49 -19.5q-31 -2 -46 14.5t-18 54.5zM227 591q-2 31 17 50t47 20q29 1 46 -19t18 -51q2 -32 -15 -49.5t-49 -19.5q-30 -2 -45.5 14.5t-18.5 54.5z" />
    <glyph glyph-name=".notdef" horiz-adv-x="500" 
d="M447 190q13 -16 14.5 -35t-7.5 -31q-10 -14 -26.5 -18.5t-36.5 7.5q-39 27 -68 57.5t-53 61.5q-14 18 -23 29q-19 -20 -47 -57q-55 -68 -67 -80q-24 -18 -44 -16t-33 16q-29 30 -7 76q12 23 79 84q25 24 47 43q-11 10 -24 22q-75 67 -100 96q-12 14 -13 30t4.5 26.5
t14.5 19.5q14 14 33.5 16t43.5 -16q17 -15 60 -72q40 -52 50 -64q11 10 29 28q30 30 56.5 56t55.5 43t45 8q14 -8 23.5 -22t9 -32.5t-16.5 -33.5q-33 -32 -134 -113q15 -14 32 -31q89 -83 103 -98z" />
    <glyph glyph-name=".null" horiz-adv-x="0" 
 />
    <glyph glyph-name="nonmarkingreturn" horiz-adv-x="333" 
 />
    <glyph glyph-name="space" unicode=" " horiz-adv-x="196" 
 />
    <glyph glyph-name="exclam" unicode="!" horiz-adv-x="218" 
d="M40 69q-3 31 17.5 50t51.5 20t49 -19t20 -51q2 -32 -16 -49.5t-53 -19.5q-33 -2 -50 14.5t-19 54.5zM156 601q9 -25 9 -109q0 -35 -0.5 -77.5t-0.5 -52.5q0 -133 -13 -150q-17 -22 -45 -22q-23 0 -36 10.5t-15 43.5q-2 50 -2.5 195t3.5 172q10 30 41 30q18 0 35 -10.5
t24 -29.5z" />
    <glyph glyph-name="quotedbl" unicode="&#x22;" horiz-adv-x="322" 
d="M284 464q-15 -22 -49 -22q-36 0 -52 23q-7 10 0 156q1 21 14 32.5t33 11.5q33 0 49 -26q13 -20 13 -66q0 -10 0.5 -27.5t0.5 -22.5q0 -45 -9 -59zM128 646q15 -22 15 -62q0 -5 -0.5 -22.5t-0.5 -27.5q0 -61 -13 -75q-20 -21 -52 -21q-21 0 -32 10t-12 38q-2 30 -2 89.5
t4 66.5q14 23 40 23q41 0 53 -19z" />
    <glyph glyph-name="numbersign" unicode="#" horiz-adv-x="638" 
d="M289 349q-3 -26 -7 -55q-2 -17 -5 -33q14 0 29 1q23 1 43 1q4 28 9 57q3 15 6 32q-28 -1 -46 -2q-15 0 -29 -1zM389 489q14 78 32 111t41 31q55 -7 34 -159q26 -2 44 -5q33 -6 46.5 -18.5t12.5 -34.5q-2 -39 -49 -49q-25 -5 -70 -9q-4 -29 -8 -62q-2 -16 -4 -31
q31 -2 52 -6q33 -6 46.5 -18.5t12.5 -34.5q-2 -39 -49 -49q-27 -6 -80 -9q-11 -69 -20 -98q-16 -53 -55 -48q-17 2 -27 12t-14 35t-3 57q0 16 2 37q-21 0 -35 -1q-21 -1 -39 -1q-11 -63 -19 -91q-16 -53 -55 -48q-17 2 -27 12t-14 35t-3 57q0 12 2 28q-10 -1 -16 -2
q-17 -2 -29 -2q-29 0 -47.5 13t-18.5 36q1 42 60 61q24 7 65 13q5 34 11 69l4 22q-16 -1 -25 -2q-17 -2 -29 -2q-29 0 -47.5 13t-18.5 36q1 42 60 61q29 9 82 15q3 13 5 26q14 78 32 111t41 31q55 -7 34 -160q10 1 20 1q32 1 60 2q2 7 3 15z" />
    <glyph glyph-name="dollar" unicode="$" horiz-adv-x="477" 
d="M234 555q-47 0 -75.5 -32t-28.5 -73q0 -30 12.5 -48.5t31.5 -18.5q12 0 61 11t69 11q66 0 103 -37t37 -102q0 -27 -1 -47.5t-6.5 -50t-15.5 -51t-29.5 -46t-45.5 -40.5t-66 -27q-10 -3 -20 -5q1 -11 1 -26q0 -35 -13 -55q-19 -28 -55 -28q-20 0 -30.5 13.5t-10.5 50.5
q0 15 -1 39q-13 2 -25 7q-31 11 -45.5 22t-35.5 28q-15 13 -18 35t11 41q14 15 33.5 18t38.5 -11q17 -13 28 -20t29 -13.5t35 -5.5q77 3 107.5 41.5t30.5 104.5q0 36 -12.5 52.5t-42.5 16.5q-21 0 -69.5 -14.5t-73.5 -14.5q-50 0 -83.5 43t-33.5 104q0 48 16 88.5t40 65.5
t54 43q29 16 54 23q-2 73 2 83q10 25 41 25q18 0 35 -8.5t24 -24.5q9 -21 9 -49v-15q-1 -5 -1 -9q41 -8 69 -29q29 -22 40 -45.5t-3 -45.5q-13 -17 -32.5 -20t-35.5 7q-4 2 -15 8t-15.5 8t-14 7t-15.5 7t-14 4.5t-15 3.5t-14 1z" />
    <glyph glyph-name="percent" unicode="%" horiz-adv-x="776" 
d="M592 198q-31 -4 -50 -21t-19 -46q-1 -26 14.5 -38t45.5 -9q27 3 43.5 21.5t15.5 51.5q-1 48 -50 41zM589 295q26 2 49.5 -3t45.5 -18.5t35 -41t13 -65.5q0 -171 -152 -177q-78 -3 -117 40t-36 105q1 40 17 71t40 49.5t51 28.5t54 11zM591 538q-13 -26 -76 -133.5
t-78 -133.5q-31 -54 -90.5 -139t-84.5 -113q-45 -50 -80 -19q-14 12 -14.5 28.5t11.5 49.5q8 19 37.5 67.5t78.5 124.5t70 110q14 23 39.5 68.5t44 76.5t41.5 63.5t44 46.5t39 7q24 -8 30.5 -34.5t-12.5 -69.5zM212 541q-32 -4 -50.5 -21t-19.5 -46q-1 -27 15 -39t46 -8
q27 3 43 21t16 51q-1 48 -50 42zM209 638q26 2 49.5 -3.5t45.5 -18.5t35 -40.5t13 -66.5q0 -171 -152 -176q-78 -4 -117 39t-37 105q2 40 17.5 71.5t40 49.5t51 28t54.5 12z" />
    <glyph glyph-name="ampersand" unicode="&#x26;" horiz-adv-x="592" 
d="M227 391q23 17 40 40q25 33 25 62q0 27 -13.5 37.5t-33.5 5.5q-41 -11 -41 -63q0 -34 23 -82zM134 339q-5 11 -10 21q-31 64 -31 106q0 74 44 123t110 59q59 8 107.5 -28.5t48.5 -105.5q0 -105 -127 -202q31 -41 74 -84q3 -3 6 -5q6 10 13 24q2 5 3 7q7 12 14.5 27.5
t13 26.5t12 24.5t12.5 22.5t12.5 18t13 14.5t13.5 9t15 3.5t16 -4q21 -8 27.5 -28.5t1.5 -45t-11.5 -43t-14.5 -34.5q-13 -27 -17 -35.5t-18 -35.5q-9 -16 -15 -27q28 -20 59 -37q28 -15 42 -32t13.5 -31t-7.5 -27q-11 -18 -34 -22t-47 7q-47 22 -93 54q-11 -11 -28 -25
q-20 -18 -39 -27t-43 -17t-50 -10q-86 -8 -140.5 45.5t-54.5 136.5q0 35 11.5 65.5t27 50.5t38.5 38q18 14 32 23zM185 256q-11 -7 -23 -18q-13 -12 -19 -29.5t-6 -42.5q0 -34 25.5 -58.5t59.5 -17.5q21 4 41 18q17 12 29 24q-51 48 -88 99q-10 13 -19 25z" />
    <glyph glyph-name="quotesingle" unicode="'" horiz-adv-x="172" 
d="M134 643q9 -14 9 -59q0 -5 -0.5 -22.5t-0.5 -27.5q0 -61 -13 -75q-17 -18 -45 -18q-23 0 -36.5 9t-14.5 36q-8 148 1 162q10 17 41 17q44 0 59 -22z" />
    <glyph glyph-name="parenleft" unicode="(" horiz-adv-x="307" 
d="M26 206q0 286 143 446q21 24 40.5 33t32 7t22.5 -11q32 -29 -20 -88q-12 -14 -28 -43t-36.5 -77t-34.5 -119t-14 -148q0 -120 33 -206.5t74 -135.5q4 -5 14 -15.5t15 -16.5t10 -15t4 -18t-8 -18q-8 -10 -19.5 -14.5t-33 0.5t-46.5 25q-53 42 -87.5 113.5t-47.5 145
t-13 155.5z" />
    <glyph glyph-name="parenright" unicode=")" horiz-adv-x="307" 
d="M281 250q0 -285 -142 -446q-21 -24 -41 -33t-32 -6.5t-22 10.5q-33 29 19 88q12 14 28.5 43t37 77t34 119.5t13.5 147.5q0 120 -32.5 206.5t-73.5 135.5q-5 5 -15 15.5t-15 17t-10 15.5t-4 17.5t8 17.5q8 10 20 15t33 -0.5t46 -25.5q54 -41 88.5 -113t47 -145.5
t12.5 -155.5z" />
    <glyph glyph-name="asterisk" unicode="*" horiz-adv-x="427" 
d="M120 489q-48 26 -53 31q-32 30 -9 68q19 32 59 20q11 -3 41 -27q0 44 3 62q10 25 41 25q18 0 35 -8.5t24 -25.5q6 -14 8 -50q7 5 13 9q19 12 35 15q29 3 45.5 -22t3.5 -47q-10 -16 -29 -27q-13 -8 -29 -16q13 -7 24 -13q20 -11 35 -23q11 -9 14 -25t-6 -33
q-11 -18 -32 -22t-56 15l-20 12q-3 -43 -11 -54q-17 -25 -45 -25q-23 0 -36.5 12t-14.5 48v9q-21 -13 -36 -18q-38 -13 -57 13t-3 50q13 18 38 35q8 6 18 12z" />
    <glyph glyph-name="plus" unicode="+" horiz-adv-x="386" 
d="M137 349q0 78 3 104q10 25 41 25q19 0 35.5 -8.5t23.5 -25.5q8 -18 9 -76q2 1 5 1q9 1 11.5 1t10 0.5t10.5 0t9.5 -0.5t10.5 -1t9.5 -2.5t10.5 -3.5q18 -7 25.5 -24t3.5 -34t-18 -25q-11 -6 -20 -10.5t-23 -7.5t-22 -4q-6 -1 -24 -3q-2 -76 -13 -92q-17 -25 -45 -25
q-22 0 -35.5 12t-15.5 48q-1 18 -1 38q-11 -1 -28 -2q-22 -1 -35 2q-27 5 -38 22.5t-6 35.5t21 26q31 17 85 29z" />
    <glyph glyph-name="comma" unicode="," horiz-adv-x="258" 
d="M96 89q16 30 39.5 43t48.5 1q20 -10 25.5 -27.5t1.5 -33t-13 -37.5q-29 -63 -79 -99.5t-79 -12.5q-10 9 -11 23t7 33.5t16.5 35t23 39.5t20.5 35z" />
    <glyph glyph-name="hyphen" unicode="-" horiz-adv-x="386" 
d="M217 294q2 0 13 1.5t13 2t11 1.5t11.5 1t10 0.5t10.5 0t9.5 -0.5t10.5 -1t9.5 -2.5t10.5 -3.5q18 -7 25.5 -24t3.5 -34t-18 -25q-11 -6 -20 -10.5t-23 -7.5t-21.5 -4t-30.5 -4t-36 -5q-12 -2 -32.5 -6t-31.5 -6t-32.5 -3t-34.5 2q-27 5 -38 22.5t-6 35.5t21 26
q52 28 165 44z" />
    <glyph glyph-name="period" unicode="." horiz-adv-x="198" 
d="M30 69q-2 31 18.5 50t50.5 20q32 1 50 -19t20 -51q2 -32 -16.5 -49.5t-53.5 -19.5q-33 -2 -49.5 14.5t-19.5 54.5z" />
    <glyph glyph-name="slash" unicode="/" horiz-adv-x="352" 
d="M332 571q-8 -28 -49 -146t-50 -146q-19 -59 -60.5 -154.5t-60.5 -127.5q-35 -57 -75 -34q-16 9 -20 25t2 51q3 20 22.5 73.5t52.5 137.5t47 121q9 25 25 75t28 84t28 70.5t34 54t38 15.5q25 -4 37 -30t1 -69z" />
    <glyph glyph-name="zero" unicode="0" horiz-adv-x="495" 
d="M261 528q-56 -8 -89.5 -70.5t-34.5 -183.5q-1 -95 27 -139t80 -36q48 7 81.5 81.5t32.5 193.5q-1 82 -26.5 121.5t-70.5 32.5zM257 638q28 2 55.5 -2.5t57 -21t51.5 -43.5t36 -74t14 -108q0 -189 -66.5 -290.5t-170 -108.5t-157.5 70t-52 226q2 85 25 153.5t58.5 109.5
t73.5 63.5t75 25.5z" />
    <glyph glyph-name="one" unicode="1" horiz-adv-x="258" 
d="M116 512q-20 -5 -49 -4q-49 1 -43 46q5 36 51.5 62t84.5 25q36 -1 51 -23t17 -87v-39t-0.5 -67.5t-0.5 -102.5q0 -283 -13 -300q-17 -22 -45 -22q-23 0 -36.5 10.5t-14.5 43.5q-2 49 -2 290q-1 104 0 168z" />
    <glyph glyph-name="two" unicode="2" horiz-adv-x="466" 
d="M58 77v1q253 253 253 385q0 80 -81 73q-29 -3 -49 -18t-36.5 -36.5t-24.5 -27.5q-11 -9 -26 -10.5t-27 6t-18 24t2 45.5q12 43 70.5 84.5t126.5 44.5q37 1 68 -7.5t57 -28.5t40.5 -57.5t14.5 -88.5q0 -50 -16.5 -99.5t-42 -91t-69.5 -89.5q-32 -35 -62 -65q5 1 11 1
q116 8 156 -3.5t37 -54.5q0 -14 -5 -23.5t-15 -15.5t-21 -10t-30 -6t-35.5 -3t-44.5 -2.5t-50 -3.5q-135 -12 -150 -12q-32 0 -49 8.5t-17 30.5q1 30 33 50z" />
    <glyph glyph-name="three" unicode="3" horiz-adv-x="484" 
d="M446 538q-34 -64 -99 -128q-10 -10 -20 -19q11 0 22 -2q51 -11 77.5 -48.5t26.5 -88.5q0 -37 -6.5 -70.5t-24.5 -68t-47 -60t-77 -43t-111 -20.5q-41 -2 -72 8.5t-47.5 26t-26.5 36.5t-13 36t-3 29q0 19 14.5 33.5t37.5 14.5q41 0 43 -42q1 -16 16 -25t29.5 -11.5
t25.5 -1.5q79 6 114.5 44.5t35.5 101.5q0 31 -18 47t-49 15q-8 0 -34 -4.5t-41.5 -2t-23.5 15.5q-29 35 11 78q88 95 115 135q4 6 8 11q-37 0 -66 -3q-33 -3 -61.5 -6t-41.5 -4.5t-27 -1.5q-29 0 -47.5 13t-18.5 36q1 17 9.5 28.5t22.5 19t41.5 13t55.5 8.5t75 6
q117 8 161 -4q13 -3 21 -9q11 -5 18 -13q9 -12 9 -32.5t-14 -47.5z" />
    <glyph glyph-name="four" unicode="4" horiz-adv-x="514" 
d="M386 491q9 -25 9 -109q0 -37 -1 -48v-3q26 -2 44 -6q48 -12 45 -54q-1 -19 -11 -29.5t-33 -14.5t-45 -5q-3 -186 -13 -200q-17 -22 -45 -22q-23 0 -36 10.5t-15 43.5q-2 39 -2 165q-11 -1 -21 -2q-37 -3 -71 -11.5t-62 -18.5t-37 -12q-28 -6 -47 5q-8 4 -13 11t-9 19
q-7 22 -1 44q82 304 88 346q4 32 23 44.5t41 6.5q18 -5 26 -20t10 -49q3 -37 -26 -154q-16 -63 -34 -119q53 15 120 20q6 0 12 1q0 147 4 171q10 30 41 30q18 0 35 -10.5t24 -29.5z" />
    <glyph glyph-name="five" unicode="5" horiz-adv-x="478" 
d="M35 384q39 143 46 196q4 32 23 44l2 2q5 3 10 4q28 10 135 20q19 2 30 3q85 8 130 -5t43 -53q-1 -19 -12 -30t-32 -15.5t-41 -5.5t-49.5 -1.5t-46.5 -1.5q-32 -3 -60 -7q-17 -2 -28 -3q-1 -7 -1 -13q-3 -20 -16 -64q-5 -18 -13 -39q24 7 49 10q65 9 120 -3t92 -51t37 -99
q0 -38 -6.5 -73t-24.5 -73t-46.5 -66t-77 -47.5t-111.5 -22.5q-41 -2 -72 8.5t-47.5 26t-26.5 36.5t-13 36t-3 29q0 19 14.5 33.5t37.5 14.5q41 0 43 -42q1 -16 16 -25t29.5 -11.5t25.5 -1.5q77 5 113.5 52.5t36.5 113.5q0 32 -16 49t-42 19t-51 -1t-52.5 -8.5t-35.5 -5.5
t-34 -4.5t-42 -2.5q-14 3 -22 15q-6 8 -10 19q-7 22 -1 44z" />
    <glyph glyph-name="six" unicode="6" horiz-adv-x="492" 
d="M131 177q5 -26 17 -46q29 -48 95 -39q58 7 88 42.5t30 87.5t-28 71t-89 14q-52 -5 -85 -35.5t-28 -93.5v-1zM197 569q9 10 20 20.5t28.5 23.5t33.5 20t32 6.5t26 -12.5q8 -10 8 -22.5t-6 -24t-18 -26.5t-24.5 -27.5t-29 -31t-28.5 -33.5q-35 -45 -58 -85q42 20 88 24
q89 8 143 -40t55 -145q1 -98 -60.5 -158.5t-171.5 -67.5q-98 -7 -155 51.5t-55 170.5q3 87 52.5 186t119.5 171z" />
    <glyph glyph-name="seven" unicode="7" horiz-adv-x="491" 
d="M462 538q-5 -10 -56 -107t-73 -143q-19 -40 -55 -136t-48 -116q-32 -58 -74 -36q-16 9 -20.5 25t0.5 50q6 36 41.5 130t74.5 177q30 62 64 120l22 34h-16q-40 -1 -70 -4q-56 -5 -92 -8q1 -26 -3 -56q-13 -98 -57 -101q-26 -2 -40 16.5t-13 49.5q1 26 -0.5 46.5t-4.5 42.5
q-3 14 -4 24q-2 6 -2 13q1 40 56 58.5t168 26.5q119 8 168 -4q9 -2 17 -6q21 -9 29 -30q7 -23 -12 -66z" />
    <glyph glyph-name="eight" unicode="8" horiz-adv-x="502" 
d="M259 279q-54 -10 -88.5 -38t-36.5 -75q-1 -43 32.5 -62.5t95.5 -11.5q56 8 82 37t25 84q-1 37 -33 55t-77 11zM250 535q-47 -9 -68 -33t-22 -68q-1 -37 28.5 -53.5t75.5 -7.5q85 15 83 108q-1 32 -28.5 47t-68.5 7zM245 638q34 4 67.5 -0.5t65.5 -19t52 -46.5t20 -77
q0 -81 -44 -131q-13 -15 -31 -26h1q30 -10 52.5 -25.5t36 -44t13.5 -65.5q0 -93 -59 -149.5t-167 -63.5q-111 -8 -170.5 39.5t-56.5 118.5q6 118 113 168q-19 7 -34 18q-53 37 -50 107q2 47 19.5 84t45 60t59 36t67.5 17z" />
    <glyph glyph-name="nine" unicode="9" horiz-adv-x="502" 
d="M360 449q-4 48 -21 71q-28 37 -90 29q-57 -8 -89 -43.5t-32 -86.5q-1 -107 108 -92q62 8 92.5 35t31.5 80v7zM424 142q-37 -149 -103 -139q-14 2 -20 15.5t-3.5 42.5t10 66.5t21.5 95.5q3 13 9 37q2 7 4 13q-56 -39 -119 -43q-94 -7 -145.5 42t-52.5 143q-1 97 66 162.5
t176 73.5q99 7 151 -55.5t49 -196.5q-1 -35 -3.5 -65.5t-8 -59t-9 -45t-11.5 -47t-11 -40.5z" />
    <glyph glyph-name="colon" unicode=":" horiz-adv-x="198" 
d="M30 359q-1 31 19 49.5t50 20.5q39 1 55.5 -18t14.5 -52q-4 -65 -63 -69q-39 -3 -57 14t-19 55zM30 69q-2 31 18.5 50t50.5 20q32 1 50 -19t20 -51q2 -32 -16.5 -49.5t-53.5 -19.5q-33 -2 -49.5 14.5t-19.5 54.5z" />
    <glyph glyph-name="semicolon" unicode=";" horiz-adv-x="198" 
d="M30 359q5 64 66 67q39 2 54.5 -15t18.5 -52q2 -31 -15.5 -49t-47.5 -20q-81 -4 -76 69zM36 89q55 76 92 53q12 -7 19 -15t8.5 -18.5t2 -17t-4.5 -20t-6.5 -17.5t-8.5 -19q-30 -63 -85 -96.5t-80 -2.5q-6 8 -8 17t1.5 21t7 21.5t13.5 24.5t15.5 23t17.5 24.5t16 21.5z" />
    <glyph glyph-name="less" unicode="&#x3c;" horiz-adv-x="420" 
d="M391 413q0 -35 -38 -50q-66 -27 -200 -67q36 -10 85 -14.5t83 -7t41 -6.5q31 -19 31 -47q0 -16 -11.5 -31t-36.5 -15t-84 11.5t-103.5 22t-48.5 11.5q-24 9 -35 13.5t-24 13t-17.5 19.5t-4.5 27q0 35 29 52q35 19 141 65.5t141 46.5q26 0 39 -13t13 -31z" />
    <glyph glyph-name="equal" unicode="=" horiz-adv-x="386" 
d="M217 444q2 0 13 1.5t13 2t11 1.5t11.5 1t10 0.5t10.5 0t9.5 -0.5t10.5 -1t9.5 -2.5t10.5 -3.5q18 -7 25.5 -24t3.5 -34t-18 -25q-11 -6 -20 -10.5t-23 -7.5t-21.5 -4t-30.5 -4t-36 -5q-12 -2 -32.5 -6t-31.5 -6t-32.5 -3t-34.5 2q-27 5 -38 22.5t-6 35.5t21 26
q52 28 165 44zM217 284q2 0 13 1.5t13 2t11 1.5t11.5 1t10 0.5t10.5 0t9.5 -0.5t10.5 -1t9.5 -2.5t10.5 -3.5q18 -7 25.5 -24t3.5 -34t-18 -25q-11 -6 -20 -10.5t-23 -7.5t-21.5 -4t-30.5 -4t-36 -5q-12 -2 -32.5 -6t-31.5 -6t-32.5 -3t-34.5 2q-27 5 -38 22.5t-6 35.5
t21 26q52 28 165 44z" />
    <glyph glyph-name="greater" unicode="&#x3e;" horiz-adv-x="421" 
d="M30 413q0 18 13 31t39 13q36 0 147.5 -30t131.5 -41q31 -15 32 -50q2 -29 -15 -43.5t-62 -32.5q0 -1 -2 -1q-186 -84 -238 -84q-25 0 -36.5 15t-11.5 31q0 28 31 47q8 5 40.5 15t85 25t83.5 25q-1 0 -9.5 0.5t-23 2t-32.5 3.5t-37.5 4.5t-37.5 5.5t-34 6.5t-26 7.5
q-38 15 -38 50z" />
    <glyph glyph-name="question" unicode="?" horiz-adv-x="444" 
d="M409 496q0 -49 -28.5 -92.5t-78.5 -75.5q-40 -25 -49 -37.5t-7 -37.5q2 -32 -1 -44q-4 -14 -21 -19q-31 -9 -56.5 7.5t-33.5 51.5q-8 38 7.5 73t49.5 55q50 29 75.5 53.5t25.5 52.5q0 60 -81 53q-29 -3 -49 -18t-36.5 -36.5t-24.5 -27.5q-11 -9 -25.5 -10.5t-27 6
t-18.5 24t2 45.5q12 43 71 84.5t126 44.5q77 3 128.5 -35t51.5 -117zM127 69q-3 31 17.5 50t51.5 20t49 -19t20 -51q2 -32 -16 -49.5t-53 -19.5q-33 -2 -50 14.5t-19 54.5z" />
    <glyph glyph-name="at" unicode="@" horiz-adv-x="690" 
d="M387 283q-3 12 -5 27q-4 46 -1 76q-85 -30 -85 -81q0 -25 11.5 -36.5t26.5 -11.5q11 0 21 3.5t15 7t10 8.5l6 6zM427 217q-44 -36 -106 -36q-48 0 -77 31.5t-29 83.5q0 40 19.5 73.5t51 54t66.5 32.5t71 16q21 2 32.5 -16t7.5 -48q-10 -64 -3 -94.5t18 -37.5t29 -2
q44 13 44 133q0 151 -170 139q-107 -7 -172.5 -79t-68.5 -192q-2 -104 57.5 -149t164.5 -30q64 10 121.5 29.5t66.5 21.5q26 6 43 -11.5t11.5 -42.5t-34.5 -39q-40 -18 -83 -30t-65.5 -15.5t-62.5 -7.5q-153 -17 -236.5 59.5t-79.5 225.5q2 78 34 145t80 110t103.5 68.5
t109.5 28.5q41 3 79.5 -3t74 -23t62 -43.5t42.5 -68t16 -94.5q0 -51 -15 -96t-49 -77.5t-81 -37.5q-25 -2 -53 11q-10 5 -19 11z" />
    <glyph glyph-name="A" unicode="A" horiz-adv-x="494" 
d="M297 342q-4 13 -7 21q-12 35 -25 70t-20 52l-7 18q-8 -39 -37 -162q24 4 50 4q25 0 46 -3zM175 603q27 46 85 32q28 -7 49 -46.5t59 -139.5q38 -99 79.5 -220t46.5 -153q6 -35 2 -51t-20 -25q-40 -23 -75 34q-10 18 -31 81q-17 51 -36 113q-21 2 -48 2q-57 0 -99 -10
q-9 -1 -16 -4q-8 -29 -12 -44t-15.5 -62.5t-21.5 -70.5q-11 -29 -32 -45.5t-39 -13.5q-39 7 -22 94q5 26 15 64q-5 -1 -11 -1q-22 0 -30.5 18t-3 41t21.5 38q32 31 61 53q9 36 20 78q57 210 73 238z" />
    <glyph glyph-name="B" unicode="B" horiz-adv-x="454" 
d="M151 285v-9q-1 -90 -1 -148q-1 -24 -1 -39q12 0 15 1q3 0 19.5 0.5t22 2t19.5 3.5t20.5 5t18 8t18 11t14.5 13.5t14 17.5q10 16 14.5 36.5t-2 46t-26.5 43.5q-25 22 -57 23.5t-75 -11.5q-6 -2 -13 -4zM155 533q2 -41 -2 -122q0 -14 -1 -32q15 4 33 7q38 6 64 6
q20 15 31 28q16 20 16 53q0 79 -82 79q-25 0 -50 -14q-4 -3 -9 -5zM-10 524q0 41 42.5 72.5t97.5 46.5t106 15q73 1 124.5 -42.5t51.5 -122.5q0 -30 -7 -53t-22 -40t-26 -26q-7 -6 -17 -13q11 -7 23 -15q65 -46 65 -140q0 -32 -12 -68.5t-35 -62.5q-46 -51 -98 -68t-116 -17
q-56 0 -82 10q-10 3 -19 12q-14 16 -14 41v274q2 83 5 135q-22 1 -43 14q-24 14 -24 48z" />
    <glyph glyph-name="C" unicode="C" horiz-adv-x="483" 
d="M352 430q4 56 -11 89t-48 31q-63 -3 -111 -98q-22 -46 -34 -85.5t-16 -107.5q-2 -51 5 -85t24.5 -50.5t36 -23t45.5 -8.5q72 -4 137 52q27 23 47.5 20t21 -26t-19.5 -58q-63 -99 -204 -90q-37 2 -71 16.5t-64.5 42.5t-48 78t-16.5 115q4 163 86 283q85 123 194 123
q63 0 99 -41.5t37 -112.5q1 -33 -5.5 -57t-17.5 -35.5t-20.5 -16.5t-18.5 -5q-19 0 -23.5 13t-3.5 37z" />
    <glyph glyph-name="D" unicode="D" horiz-adv-x="469" 
d="M149 91q29 6 55 21q38 21 59 49q29 39 51 103t22 119q0 92 -27 130.5t-85 38.5q-34 0 -64 -14q-2 -1 -5 -3q2 -41 -2 -124q-1 -45 -2 -135t-1 -148q-1 -22 -1 -37zM446 381q0 -78 -24.5 -150t-67.5 -128q-34 -44 -95.5 -78.5t-111.5 -34.5q-42 0 -64 11q-10 3 -17 11
q-14 16 -14 41v274q2 84 5 137q-10 0 -21 3q-16 4 -31.5 19t-14.5 38q2 41 44 72.5t96.5 46.5t105.5 15q94 1 152 -71.5t58 -205.5z" />
    <glyph glyph-name="E" unicode="E" horiz-adv-x="429" 
d="M221 364q2 0 13 1.5t13 2t11 1.5t11.5 1t10 0.5t10.5 0t9.5 -0.5t10.5 -1t9.5 -2.5t10.5 -3.5q18 -7 26 -24t3.5 -34t-18.5 -25q-10 -6 -19.5 -10.5t-23 -7.5t-21.5 -4t-31 -4t-36 -5q-12 -2 -32.5 -6t-31.5 -6q-2 0 -4 -1q0 -57 1 -77q2 -42 14 -56t43 -12q30 2 60 5.5
t44.5 5.5t32 1t33.5 -7q22 -7 30.5 -26.5t-2 -40t-38.5 -29.5q-50 -16 -140 -16t-132.5 28.5t-48.5 100.5q-20 266 0 386q12 68 51 95t130 40q77 11 130 3q27 -5 38 -22.5t6 -35.5t-20 -26q-16 -8 -36 -13.5t-36 -8t-45.5 -6t-48.5 -6.5q-31 -5 -43.5 -21t-15.5 -61
q-3 -43 -5 -87q34 8 77 14z" />
    <glyph glyph-name="F" unicode="F" horiz-adv-x="425" 
d="M141 155q0 -112 -4 -123q-8 -32 -48 -32q-22 0 -35.5 10.5t-15.5 43.5q-2 36 -5 107t-3 181t8 157q11 69 48 95.5t127 39.5q74 11 136 1q26 -5 37.5 -22.5t6 -35.5t-20.5 -26q-20 -11 -44.5 -16t-64.5 -9t-61 -7q-31 -5 -41.5 -20.5t-13.5 -61.5q-4 -58 -5 -119l10 2
q20 3 68 10q7 1 29.5 4.5t30 4.5t22 0t27.5 -6q18 -7 25.5 -24t3 -34t-17.5 -25q-26 -15 -49 -21t-83 -14q-7 -1 -31 -5t-35 -5h-1v-50z" />
    <glyph glyph-name="G" unicode="G" horiz-adv-x="499" 
d="M314 549q-34 2 -70.5 -22.5t-61.5 -74.5q-23 -46 -34.5 -86t-15.5 -107q-2 -51 5 -85t24.5 -50.5t36 -23t45.5 -8.5q33 -2 66.5 12t50.5 44q11 18 9 144q-2 -1 -7 -1.5t-18 -2t-26 -1.5q-49 1 -43 46q5 35 50.5 56.5t85.5 20.5q34 -1 44.5 -21.5t12.5 -88.5
q3 -78 -2 -128t-24 -83q-28 -50 -87 -77t-130 -22q-37 2 -71 16.5t-64.5 42.5t-48 78t-16.5 115q4 163 86 283q89 129 191 129q58 0 89 -21t36 -49q5 -25 -8.5 -41.5t-40.5 -16.5q-17 0 -32 11t-32 12z" />
    <glyph glyph-name="H" unicode="H" horiz-adv-x="541" 
d="M411 608q10 25 37.5 31t48.5 -14q6 -6 9.5 -27t4.5 -54.5t1 -61.5t-0.5 -67.5t-0.5 -52.5q0 -33 -2.5 -86.5t-4.5 -95.5t-2 -46q0 -58 -14 -100q-11 -33 -40 -34q-16 -1 -28.5 14.5t-12.5 39.5q-2 21 -2 65t0.5 107.5t0.5 85.5v6h-3q-35 9 -86 10q-40 1 -79 -14
q-28 -10 -49 -21q0 -10 -1 -21q-2 -57 -4 -102.5t-2 -49.5q0 -61 -13 -83q-22 -37 -52 -37q-14 0 -22 11.5t-8 24.5q0 35 -1 152v49q-11 -2 -20 -2q-22 0 -31 18t-3 41t22 38t33 29v7q1 39 1.5 69.5t1.5 64.5t2.5 56t4.5 28q14 36 36 52t44 -2q6 -6 9.5 -28t4.5 -57.5
t1 -64.5v-69q58 20 126 20q45 0 87 -11v19v71t1.5 61.5t4.5 30.5z" />
    <glyph glyph-name="I" unicode="I" horiz-adv-x="497" 
d="M30 559q1 40 56 58.5t168 26.5q118 8 166.5 -4t46.5 -54q-1 -14 -6.5 -23.5t-17.5 -15.5t-25 -10t-34.5 -6t-39.5 -3q-14 -1 -35 -2v-34q0 -25 -0.5 -67.5t-0.5 -102.5q0 -123 -4 -185q79 2 116 -7q49 -12 47 -54q-1 -14 -6.5 -23.5t-17.5 -15.5t-25 -10t-34.5 -6
t-39.5 -3t-47 -2.5t-51 -3.5q-135 -12 -150 -12q-32 0 -49 8.5t-17 30.5q1 68 168 90q-1 63 -2 229q0 102 1 160q-89 -8 -101 -8q-29 0 -47.5 13t-18.5 36z" />
    <glyph glyph-name="J" unicode="J" horiz-adv-x="421" 
d="M372 493q1 -23 4 -75.5t4 -72.5t2.5 -59.5t0.5 -59t-3 -46t-6.5 -45t-11.5 -34.5q-27 -58 -62.5 -82.5t-92.5 -28.5q-71 -5 -120.5 23t-55.5 57q-5 25 9 41.5t40 16.5q10 0 46.5 -12.5t78.5 -10.5q36 2 49.5 21t16.5 77q2 67 -2 167q-3 85 -7 147q-68 -7 -157 -7
q-29 0 -47.5 13t-18.5 36q1 39 64 57.5t180 24.5q132 7 133 -55q1 -15 -8.5 -27t-21.5 -19q-7 -3 -17 -7q1 -18 3 -40z" />
    <glyph glyph-name="K" unicode="K" horiz-adv-x="475" 
d="M134 597q9 -25 9 -109q0 -25 -0.5 -65.5t-0.5 -100.5v-28q19 15 37 34q47 46 81.5 96.5t54 84t31.5 58.5q16 34 41.5 46.5t48.5 -1.5q39 -23 7 -96q-11 -25 -53 -88q-34 -52 -85 -112q9 -25 55 -102q52 -90 76 -122q21 -31 15.5 -55.5t-28.5 -36.5q-37 -20 -90 41
q-19 22 -63 107q-31 57 -43 88q-29 -25 -53 -35q-3 -1 -8 -4l-25 -10q-3 -153 -12 -165q-17 -22 -45 -22q-23 0 -36.5 10.5t-14.5 43.5q-2 49 -2.5 288t3.5 265q10 30 41 30q18 0 34.5 -10.5t24.5 -29.5z" />
    <glyph glyph-name="L" unicode="L" horiz-adv-x="426" 
d="M58 590q3 21 20 32.5t35 11.5t33 -13.5t15 -37.5q0 -18 -9.5 -120.5t-12.5 -175.5q-2 -52 -2 -121q0 -42 15.5 -61.5t46.5 -18.5q32 1 88 9q8 2 31.5 6t27 4h19.5q36 -8 35 -45q-1 -31 -38 -47q-57 -24 -133 -31q-93 -8 -144.5 27t-53.5 127q-1 68 10.5 244.5t16.5 209.5
z" />
    <glyph glyph-name="M" unicode="M" horiz-adv-x="545" 
d="M279 372q7 18 19.5 58.5t23.5 73t25 65.5t31.5 49.5t36.5 11.5q31 -7 50.5 -44t36.5 -137.5t31 -284.5q7 -90 -3 -126t-35 -38t-44.5 33t-24.5 111q-6 73 -14.5 139.5t-13.5 96t-6 29.5l-5.5 -22t-14.5 -50t-23.5 -63t-31 -49.5t-37.5 -22.5t-38 20t-33 49t-25 58t-16 49
l-6 20l-4 -26q-5 -27 -15.5 -94t-21.5 -146q-11 -77 -30 -111t-43 -31q-25 3 -34 38.5t0 126.5q13 141 27.5 232.5t30.5 141t33 69t39 20.5q19 1 36.5 -16t31.5 -47.5t24.5 -60t23 -67t19.5 -55.5z" />
    <glyph glyph-name="N" unicode="N" horiz-adv-x="488" 
d="M82 635q32 4 68 -43t104 -187q12 -25 35.5 -77.5t41.5 -92.5l17 -40q6 364 6 404q0 31 23.5 41.5t47.5 -16.5q8 -9 14 -22.5t9.5 -29.5t6 -35.5t3 -40.5t0.5 -45v-49v-52q1 -138 -7.5 -215.5t-25 -106t-45.5 -28.5q-15 0 -31 11t-28 25t-26.5 39.5t-22.5 42t-21 44.5
l-114 245q3 -86 -8 -257q-9 -150 -56 -150q-24 0 -34 33.5t-9 126.5q2 71 3 183q2 184 9 236t40 56z" />
    <glyph glyph-name="O" unicode="O" horiz-adv-x="516" 
d="M271 531q-62 -10 -100 -78t-39 -181q-1 -98 30.5 -141t91.5 -34q56 9 93 82t36 197q-1 85 -30 124t-82 31zM267 638q31 3 60.5 -2t60 -21.5t53 -43.5t36.5 -74t14 -108q0 -190 -68 -290t-179 -109q-109 -8 -165 69t-54 227q2 78 25.5 145t59 110t76.5 68t81 29z" />
    <glyph glyph-name="P" unicode="P" horiz-adv-x="443" 
d="M152 286q15 6 36 19q50 30 79 64.5t29 93.5q0 43 -23 66t-59 23q-25 0 -50 -12q-6 -3 -11 -6q2 -15 2 -33q2 -82 -2 -170q0 -24 -1 -45zM-10 524q1 41 43.5 73t97 46.5t105.5 14.5q72 0 124 -47.5t52 -127.5q0 -156 -132 -245q-50 -33 -102 -48q-15 -4 -27 -6
q-2 -117 -3 -120q-3 -23 -16.5 -42t-31.5 -22q-20 -3 -34 12.5t-14 40.5v274q2 91 6 145q-70 1 -68 52z" />
    <glyph glyph-name="Q" unicode="Q" horiz-adv-x="516" 
d="M271 531q-62 -10 -100 -78t-39 -181q-1 -98 30.5 -141t91.5 -34q7 1 13 3q-9 16 -19 34q-22 44 -25 69q-3 29 22.5 45t46.5 2q17 -10 34 -33q10 -14 23 -34q35 72 34 193q-1 85 -30 124t-82 31zM267 638q31 3 60.5 -2t60 -21.5t53 -43.5t36.5 -74t14 -108
q0 -190 -68 -290l-10 -14q11 -14 27 -32q25 -28 39 -49q15 -25 10 -43.5t-21.5 -27.5t-33.5 -3q-51 18 -106 83q-38 -19 -84 -23q-109 -8 -165 69t-54 227q2 78 25.5 145t59 110t76.5 68t81 29z" />
    <glyph glyph-name="R" unicode="R" horiz-adv-x="443" 
d="M153 331q9 3 19 8q15 7 38 22q43 27 64.5 53t21.5 59q0 79 -82 79q-25 0 -50 -12q-6 -3 -11 -6q2 -15 2 -33q2 -82 -2 -170v0zM-10 524q3 34 44.5 65.5t97.5 50t104 18.5q73 0 124.5 -43t51.5 -122q0 -47 -29 -97q-21 -35 -52 -65q32 -20 53 -51q28 -42 33 -120
q9 -129 -41 -161q-23 -15 -43.5 3.5t-15.5 68.5q8 69 -10 126t-62 70l-6 2q-22 -10 -47 -19q-23 -7 -40 -9q-3 -173 -4 -177q-3 -23 -16.5 -42t-31.5 -22q-20 -3 -34 12.5t-14 40.5v274q2 90 6 143q-9 0 -18 2q-11 1 -24 5.5t-20.5 16.5t-5.5 30z" />
    <glyph glyph-name="S" unicode="S" horiz-adv-x="507" 
d="M254 555q-49 0 -86.5 -33t-37.5 -72q0 -22 12 -34.5t32 -12.5q32 0 76 11t84 11q64 0 102 -46t38 -113q0 -25 -1.5 -47t-8 -50.5t-17.5 -51t-31.5 -46.5t-47.5 -40t-68 -27.5t-92 -13.5q-41 -2 -72 9.5t-47.5 28.5t-26.5 39.5t-13 38.5t-3 30q0 19 14.5 33.5t37.5 14.5
q22 0 37 -10.5t16 -31.5q2 -27 16 -38t55 -10q78 2 113 42t35 104q0 37 -18 63t-47 26q-31 0 -79.5 -14.5t-83.5 -14.5q-50 0 -83.5 37t-33.5 90q0 48 20 88.5t50 65.5t66 42.5t65.5 24.5t51.5 7q53 0 87.5 -31t36.5 -90q1 -69 -50 -69q-15 0 -33 10t-18 27q-1 31 -11 42
t-36 11z" />
    <glyph glyph-name="T" unicode="T" horiz-adv-x="497" 
d="M30 524q1 43 61.5 75.5t162.5 39.5q118 8 166.5 -4t46.5 -54q-1 -19 -11.5 -29.5t-33 -14.5t-45 -5t-61.5 -2h-29q2 -26 2 -62q0 -25 -0.5 -60.5t-0.5 -95.5q0 -205 -15 -257q-7 -24 -21 -39.5t-32 -15.5q-19 0 -30 13t-11 37q-1 47 5 286q4 119 6 182q-5 -1 -10 -3
q-30 -9 -52 -18.5t-32 -11.5q-28 -6 -47 4.5t-19 34.5z" />
    <glyph glyph-name="U" unicode="U" horiz-adv-x="502" 
d="M56 591q2 23 18 34t32 11q7 0 14.5 -2t18 -8.5t16 -23t3.5 -40.5q-12 -162 -30 -332q-8 -72 20 -105t77 -27q56 7 85 35.5t42 94t13 188.5q0 106 -4 150q-4 48 10.5 63t38.5 15q56 0 62 -130q14 -263 -45 -397q-48 -111 -201 -127q-52 -6 -94 14t-66 56t-34.5 82.5
t-4.5 93.5q15 105 29 355z" />
    <glyph glyph-name="V" unicode="V" horiz-adv-x="469" 
d="M290 29q-26 -46 -85 -32q-8 2 -15.5 7t-14 14.5t-11.5 19t-12.5 27.5t-12.5 32t-15 40.5t-17 45.5q-29 78 -63.5 203.5t-42.5 169.5q-6 35 -2 51t20 25q41 23 75 -34q16 -26 47 -131.5t54 -197.5l38 -144q7 38 44.5 162.5t54.5 172.5q44 124 46 127q21 53 62 46
q18 -3 27 -23t4 -58q-11 -73 -85 -278.5t-96 -244.5z" />
    <glyph glyph-name="W" unicode="W" horiz-adv-x="542" 
d="M265 289q-10 -60 -20.5 -106t-26 -90.5t-35.5 -68.5t-44 -24q-35 0 -57.5 38.5t-40 140.5t-29.5 287q-11 159 48 165q24 2 43 -33t26 -111q6 -67 12.5 -137t8.5 -99l3 -29q16 98 19 142q5 67 28.5 111t64.5 44q39 0 62 -47t31 -116q2 -20 8.5 -53t11.5 -57l5 -23
q0 5 3 29q3 30 10.5 94.5t17.5 142.5q9 76 29 110.5t44 31.5q16 -2 26.5 -15.5t16 -51t1.5 -99.5q-10 -135 -25.5 -228.5t-36 -143.5t-42 -71t-47.5 -22q-24 -1 -44 25t-33.5 70.5t-22.5 92t-15 101.5z" />
    <glyph glyph-name="X" unicode="X" horiz-adv-x="432" 
d="M422 104q18 -43 11.5 -69.5t-29.5 -34.5q-15 -5 -33 1.5t-38.5 27t-37.5 39.5t-40.5 54t-36.5 55q-3 6 -8 14q-19 -30 -41 -65q-54 -83 -77 -107q-45 -50 -80 -19q-14 12 -14.5 28.5t11.5 49.5q16 41 130 228q-32 57 -65 120q-52 99 -60 132q-8 34 -5 50.5t18 26.5
q39 26 77 -29q12 -17 36 -59t60 -107q5 -10 10 -19q2 4 4 7q18 31 31.5 54t32 51.5t33.5 48t31.5 36.5t32 23t29.5 1q23 -8 29.5 -34.5t-11.5 -69.5q-12 -24 -78 -128q-42 -65 -66 -103q24 -35 62 -85q71 -96 82 -118z" />
    <glyph glyph-name="Y" unicode="Y" horiz-adv-x="453" 
d="M408 461q-25 -44 -113 -187q-49 -80 -112.5 -158.5t-93.5 -101.5q-54 -40 -82 -3q-11 14 -8.5 31t21.5 46q7 11 58 78q38 51 78 106l-1 1q-109 145 -148 256q-28 81 22 102q16 5 31 4.5t29.5 -13.5t23.5 -37q35 -90 107 -220q27 41 43 71q3 5 10 19q8 16 12.5 24.5t14 26
t16.5 29t17.5 28t18.5 27t18.5 23t19.5 19t18.5 11t18.5 4t17 -6.5q16 -11 18.5 -32t-8 -49.5t-20.5 -48.5t-26 -49z" />
    <glyph glyph-name="Z" unicode="Z" horiz-adv-x="480" 
d="M451 538q-14 -26 -80 -133.5t-81 -133.5q-29 -51 -88 -126q-7 -9 -14 -17q27 4 58 6q118 8 166.5 -4t46.5 -54q-1 -14 -6.5 -23.5t-17.5 -15.5t-25 -10t-34.5 -6t-39.5 -3t-47 -2.5t-51 -3.5q-135 -12 -150 -12q-32 0 -49 8q-5 3 -9 7l-1 1q-13 12 -13.5 28.5t12.5 49.5
q8 19 40 66t79 112.5t74 107.5q14 22 40 67t45 75q1 2 3 5q-9 -1 -20 -1q-29 -2 -51 -4q-135 -12 -150 -12q-29 0 -47.5 13t-18.5 36q1 40 56 58.5t168 26.5q118 8 166 -4q8 -2 15 -5q2 0 4 -1q15 -5 24.5 -16.5t9 -32t-13.5 -47.5z" />
    <glyph glyph-name="bracketleft" unicode="[" horiz-adv-x="301" 
d="M39 618q1 21 5.5 33.5t19 24t45 16t79.5 4.5q46 -1 64.5 -16.5t18.5 -36.5q0 -43 -79 -43q-36 0 -58 1v-562q21 1 58 1q79 0 79 -43q0 -21 -18.5 -36.5t-64.5 -16.5q-51 0 -81 4.5t-45 17.5t-19 28t-4 42v287v295z" />
    <glyph glyph-name="backslash" unicode="\" horiz-adv-x="352" 
d="M20 571q-11 43 1.5 69t36.5 30q20 2 38 -15.5t34 -54t28 -70.5t28 -84t25 -75q14 -37 47 -121t52.5 -137.5t23.5 -73.5q5 -35 1 -51t-20 -25q-40 -23 -74 34q-20 32 -61.5 127.5t-60.5 154.5q-9 28 -50 146t-49 146z" />
    <glyph glyph-name="bracketright" unicode="]" horiz-adv-x="300" 
d="M263 618v-295v-287q0 -27 -4 -42t-19 -28t-45 -17.5t-81 -4.5q-46 1 -64.5 16.5t-18.5 36.5q0 43 79 43q37 0 58 -1v562q-22 -1 -58 -1q-79 0 -79 43q0 21 18.5 36.5t64.5 16.5q49 0 79.5 -4.5t45 -16t19 -24t5.5 -33.5z" />
    <glyph glyph-name="asciicircum" unicode="^" horiz-adv-x="369" 
d="M185 535h-1q-31 -95 -62 -146q-41 -67 -71 -62q-18 3 -26 21.5t2 44.5q5 14 17 44t19.5 47.5t19.5 43.5t22 42t23 32.5t26.5 25t28.5 10.5t29 -4t27 -20.5t23 -29t21.5 -39.5t18.5 -42t19 -46.5t17 -43.5q10 -26 2 -44.5t-26 -21.5q-30 -5 -71 62q-35 59 -58 126z" />
    <glyph glyph-name="underscore" unicode="_" horiz-adv-x="498" 
d="M26 -131q2 79 224 95q119 8 167.5 -4t45.5 -54q0 -14 -6 -23.5t-17.5 -15.5t-25 -10t-34.5 -6t-39.5 -3t-47.5 -2.5t-51 -3.5q-135 -12 -150 -12q-31 0 -48.5 8.5t-17.5 30.5z" />
    <glyph glyph-name="grave" unicode="`" horiz-adv-x="208" 
d="M192 509q-8 -17 -27.5 -22.5t-48.5 4t-59 34.5q-13 11 -23.5 24t-18.5 29t-4 33t22 29q37 25 102 -40q7 -7 16.5 -15.5t14.5 -14t12 -12.5t10 -12t5.5 -11.5t2 -12.5t-3.5 -13z" />
    <glyph glyph-name="a" unicode="a" horiz-adv-x="445" 
d="M228 395q-41 -7 -64.5 -50t-24.5 -121q-1 -68 19 -98t59 -24q36 6 59.5 57t22.5 138q0 58 -18.5 81t-52.5 17zM219 500q32 3 57 -3q18 -4 34 -14q4 12 18 21q15 9 29 9q15 0 30.5 -11t20.5 -31q8 -25 8 -113q0 -26 -0.5 -70.5t-0.5 -106.5q0 -85 -2 -115.5t-8 -41.5
q-14 -24 -41 -24q-48 0 -55 46q-42 -49 -108 -54q-88 -7 -133 55t-43 182q2 62 20.5 114t47 84.5t61.5 51t65 21.5z" />
    <glyph glyph-name="b" unicode="b" horiz-adv-x="434" 
d="M230 395q-41 -7 -65 -50t-25 -121q0 -68 20 -98t59 -24q36 6 59.5 57t22.5 138q0 58 -18.5 81t-52.5 17zM135 651q5 -19 5 -113v-82q40 40 90 44q25 3 48 0t47.5 -14.5t42.5 -32t29.5 -57t11.5 -85.5q0 -152 -54.5 -232t-143.5 -87q-66 -5 -102 29q-2 -3 -5 -5
q-14 -16 -33 -16q-18 0 -29.5 13t-11.5 37q-1 49 5.5 322t10.5 285q5 14 17.5 22t28.5 8q34 0 43 -36z" />
    <glyph glyph-name="c" unicode="c" horiz-adv-x="391" 
d="M270 342q3 68 -20 73q-41 9 -71 -51q-38 -75 -43 -157q-3 -54 11.5 -81t52.5 -27q47 0 95 34q26 19 47 13t23 -29t-17 -53q-55 -79 -163 -72q-30 2 -57 13.5t-51.5 34t-38.5 62t-13 92.5q3 130 69 226q68 98 155 98q50 0 79 -33t30 -90q1 -26 -4.5 -45.5t-14 -28.5
t-16.5 -13t-14 -4q-20 0 -30 8.5t-9 29.5z" />
    <glyph glyph-name="d" unicode="d" horiz-adv-x="457" 
d="M228 395q-41 -7 -64.5 -50t-24.5 -121q-1 -68 19 -98t59 -24q36 6 59.5 57t22.5 138q0 58 -18.5 81t-52.5 17zM326 658q11 25 38 31t48 -14q6 -6 9.5 -32t4.5 -67.5t1 -76t-0.5 -80t-0.5 -57.5q0 -33 -2.5 -86.5t-4.5 -95.5t-2 -46q0 -58 -14 -100q-11 -33 -40 -34
q-16 -1 -28 14.5t-13 39.5v7q-45 -63 -121 -69q-88 -7 -133 55t-43 182q2 62 20.5 114t47 84.5t61.5 51t65 21.5t57 -3q23 -5 44 -20v71q1 45 2 74.5t4 35.5z" />
    <glyph glyph-name="e" unicode="e" horiz-adv-x="394" 
d="M136 290q7 1 16 2q37 2 56 4q28 3 53 8q4 14 4 44q-1 36 -16.5 49.5t-36.5 10.5q-19 -2 -38.5 -24t-27.5 -54q-1 -2 -3.5 -10.5t-4.5 -15.5q-1 -5 -2 -14zM371 349q0 -62 -13.5 -93t-52.5 -42q-41 -12 -124 -16q-28 -2 -49 -3q4 -101 68 -101q47 0 95 34q26 19 47 14
t23 -26.5t-17 -51.5q-55 -79 -163 -72q-30 2 -57 13.5t-51.5 34t-38.5 62t-13 92.5q3 114 38 190q52 111 156 125q27 4 53 -3.5t48.5 -26t36.5 -52.5t14 -78z" />
    <glyph glyph-name="f" unicode="f" horiz-adv-x="380" 
d="M214 155q4 -98 -3 -123q-9 -32 -48 -32q-23 0 -36 10.5t-15 43.5q-3 46 -4 190q-1 44 -1 84h-3q-14 1 -28 3q-27 5 -38 22.5t-6 35.5t21 26q21 11 50 19l6 2q1 28 2 53q7 75 38 118.5t92 54.5q28 6 42.5 6t43.5 -5q20 -4 28 -18.5t4 -30t-15 -22.5q-5 -4 -10 -7t-11 -5.5
t-9.5 -4.5t-10 -3.5t-9 -2.5t-9.5 -2t-9 -1t-10.5 -1t-9.5 -2q-23 -2 -33 -35q-8 -26 -10 -74q2 1 5 1q8 1 30 4.5t30 4.5t22.5 0t26.5 -6q18 -7 25.5 -24t3.5 -34t-18 -25q-27 -16 -47 -21.5t-74 -13.5q-2 0 -6 -1q0 -103 3 -184z" />
    <glyph glyph-name="g" unicode="g" horiz-adv-x="459" 
d="M231 395q-40 -7 -64 -47t-25 -104q-1 -54 19.5 -81t58.5 -21q37 6 60 44.5t22 110.5q0 58 -18.5 81t-52.5 17zM219 500q32 3 57.5 -3t49.5 -25q4 -2 8 -6q3 8 6 14q6 10 14 17.5t19 6t24 -11.5q12 -9 18.5 -31t8 -67t1.5 -71t-1 -91v-50.5t-1 -71t-4 -56.5
q-8 -97 -55 -155.5t-130 -66.5q-42 -4 -87 3t-77 27.5t-27 49.5q5 25 22.5 31.5t38.5 1t54.5 -10.5t58.5 -1q38 6 59.5 28.5t29.5 85.5q2 15 3 30q-42 -40 -108 -45q-87 -7 -132.5 52t-43.5 165q2 55 20.5 102.5t47 78.5t61.5 49t65 21z" />
    <glyph glyph-name="h" unicode="h" horiz-adv-x="430" 
d="M242 519q48 8 79.5 -10.5t55.5 -66.5q15 -30 22.5 -69t8 -95t-0.5 -83t-4 -91q-2 -32 -8.5 -54t-16 -32t-18 -14t-17.5 -4q-55 0 -49 63q3 35 3 130q0 134 -10.5 178.5t-51.5 35.5q-79 -18 -97 -143v-83q0 -36 1.5 -66t3 -42.5t1 -24.5t-5.5 -24q-8 -23 -47 -24h-4
q-53 0 -55 59q-2 53 -2 314t3 289q3 13 18 22t29 9q15 0 30.5 -11t21.5 -31q7 -25 7 -113v-64q5 4 11 8q43 29 92 37z" />
    <glyph glyph-name="i" unicode="i" horiz-adv-x="198" 
d="M30 608q-2 31 18.5 50t50.5 20q32 1 50 -19t20 -51q2 -32 -16.5 -49.5t-53.5 -19.5q-33 -2 -49.5 14.5t-19.5 54.5zM154 471q7 -25 7 -113v-70.5v-106.5q0 -85 -2 -115.5t-8 -41t-21 -17.5t-30 -7q-54 0 -56 59q-1 53 -1.5 224t3.5 199q3 13 18 22t29 9q16 0 36 -11
t25 -31z" />
    <glyph glyph-name="j" unicode="j" horiz-adv-x="202" 
d="M30 608q-2 31 18.5 50t50.5 20q32 1 50 -19t20 -51q2 -32 -16.5 -49.5t-53.5 -19.5q-33 -2 -49.5 14.5t-19.5 54.5zM161 363q1 -23 4.5 -75.5t4.5 -72.5t2.5 -59.5t0.5 -59t-3 -46t-7 -45t-12 -34.5q-45 -99 -145 -111q-56 -7 -88 14.5t-38 51.5q-5 25 9 41.5t40 16.5
q13 0 34 -6.5t41 -2.5q25 5 39.5 24.5t16.5 73.5q3 67 -1.5 167t-9 168t-2.5 73q8 30 39 30q18 0 35.5 -10t25.5 -29q9 -22 14 -109z" />
    <glyph glyph-name="k" unicode="k" horiz-adv-x="409" 
d="M134 637q9 -25 9 -109q0 -25 -0.5 -80.5t-0.5 -115.5v-90q9 8 17 18l4 4q5 5 9 11q19 23 33.5 44t28.5 47t21.5 41t17.5 37t11 24q10 20 26.5 28.5t33 6t28.5 -13.5q35 -31 2 -104q-18 -40 -92 -132q-12 -15 -23 -28q1 -1 1 -3q8 -12 18.5 -25.5t18 -23t21.5 -24.5
t19 -20.5t19.5 -20.5t14.5 -16q17 -17 18.5 -36.5t-7.5 -33.5t-24 -22q-37 -20 -90 41q-19 22 -44 58q-24 34 -37 58q-18 -13 -34 -20q-2 -1 -7 -3q-3 -1 -6 -3q-4 -99 -11 -109q-17 -22 -45 -22q-23 0 -36.5 10.5t-14.5 43.5q-2 49 -2.5 308t3.5 285q10 30 41 30
q18 0 34.5 -10.5t24.5 -29.5z" />
    <glyph glyph-name="l" unicode="l" horiz-adv-x="180" 
d="M145 651q5 -19 5 -113q0 -25 -0.5 -95.5t-0.5 -130.5v-35v-36v-32.5t-0.5 -32.5t-1 -28.5t-1.5 -28.5t-3 -24t-4 -22.5t-5 -17.5q-18 -55 -63 -55q-18 0 -29.5 13t-11.5 37q-1 49 5.5 322t10.5 285q5 14 17.5 22t28.5 8q18 0 33.5 -10t19.5 -26z" />
    <glyph glyph-name="m" unicode="m" horiz-adv-x="704" 
d="M242 509q48 8 79.5 -9t55.5 -58q2 -4 5 -9q16 23 36 42q37 36 82 43q101 16 147 -76q15 -30 22.5 -69t8 -95t-0.5 -83t-4 -91q-6 -104 -80 -104q-8 0 -14 2t-12 8t-8 19t0 34q3 35 3 130v2q0 64 -1 93.5t-6 65t-17 47t-33 6.5q-83 -18 -90 -192q0 -12 -1 -21v-24
q-1 -53 -6 -98q-5 -41 -24.5 -56.5t-40.5 -15.5q-52 0 -46 62q3 39 3 131q0 52 -2 87t-8.5 66.5t-20 44.5t-34.5 8q-79 -18 -97 -137v-81q0 -81 -2 -112q1 -4 1 -6q0 -22 -4.5 -36t-13.5 -19t-15 -6.5t-17 -1.5q-53 0 -55 59q-2 53 -2 219t3 194q3 13 18 22t29 9
q15 0 30.5 -11t21.5 -31q2 -6 3 -14l17 17q44 37 90 45z" />
    <glyph glyph-name="n" unicode="n" horiz-adv-x="434" 
d="M242 519q48 8 79.5 -10.5t55.5 -66.5q15 -30 22.5 -69t8 -95t-0.5 -83t-4 -91q-2 -32 -10 -54t-20 -32t-21.5 -14t-18.5 -4t-15.5 2t-13.5 7.5t-10 19t-1 34.5q3 35 3 130q0 44 -0.5 71t-2.5 56.5t-6 45t-10.5 29t-16.5 17t-25 0.5q-45 -10 -73 -68q-17 -33 -24 -81v-82
q0 -81 -2 -112q1 -4 1 -6q0 -22 -4.5 -36t-13.5 -19t-15 -6.5t-17 -1.5q-53 0 -55 59q-2 53 -2 224t3 199q3 13 18 22t29 9q17 0 36.5 -11t25.5 -31q1 -3 1 -6q5 4 9 9q44 37 90 45z" />
    <glyph glyph-name="o" unicode="o" 
d="M220 405q-39 -7 -61 -54t-23 -127q-1 -70 17 -99.5t56 -22.5q36 6 57.5 56.5t20.5 138.5q-1 60 -17 87t-50 21zM219 510q25 3 48.5 -1t47.5 -17t42 -35t29.5 -59.5t11.5 -86.5q0 -152 -54.5 -232t-142.5 -87t-133 55t-43 182q2 62 20.5 115.5t47 88t61.5 54.5t65 23z" />
    <glyph glyph-name="p" unicode="p" horiz-adv-x="434" 
d="M230 395q-41 -7 -65 -50t-25 -121q0 -68 20 -98t59 -24q36 6 59.5 57t22.5 138q0 58 -18.5 81t-52.5 17zM230 500q25 3 48 0t47.5 -14.5t42.5 -32t29.5 -57t11.5 -85.5q0 -152 -54.5 -232t-143.5 -87q-42 -3 -72 9q0 -22 -1 -43q-3 -72 -9 -93q-5 -22 -21.5 -33.5
t-36.5 -11.5q-18 0 -29.5 13t-11.5 37q-1 48 5.5 311.5t10.5 275.5q10 30 38 30q32 0 41 -36q1 -3 2 -8q45 52 103 57z" />
    <glyph glyph-name="q" unicode="q" horiz-adv-x="457" 
d="M231 395q-41 -7 -64.5 -50t-24.5 -121q-1 -68 19 -98t59 -24q36 6 59.5 57t22.5 138q0 58 -18.5 81t-52.5 17zM219 500q32 3 57.5 -3t49.5 -25h2q11 21 36 27q27 6 48 -14q6 -6 9.5 -32t4.5 -67.5t1 -76t-0.5 -80t-0.5 -57.5q0 -33 -2.5 -86.5t-4.5 -95.5t-2 -46
q0 -58 -14 -100q-11 -33 -40 -34q-17 -1 -33.5 15t-17.5 39q-1 21 -1.5 65t-0.5 107q1 6 1 11q-43 -49 -110 -55q-88 -7 -133 55t-43 182q2 62 20.5 114t47 84.5t61.5 51t65 21.5z" />
    <glyph glyph-name="r" unicode="r" horiz-adv-x="367" 
d="M245 524q23 0 40 -6t33.5 -23t25.5 -54.5t10 -93.5q1 -59 -57 -59q-47 0 -48 34q0 40 -4 60.5t-9 26t-14 5.5q-39 0 -64 -55q-13 -29 -20 -78v-100q0 -81 -2 -112q1 -4 1 -6q0 -22 -4.5 -36t-13.5 -19t-15 -6.5t-17 -1.5q-53 0 -55 59q-2 53 -2 224t3 199q3 13 18 22
t29 9q17 0 36.5 -11t25.5 -31v-1q6 7 13 13q43 41 90 41z" />
    <glyph glyph-name="s" unicode="s" horiz-adv-x="410" 
d="M209 424q-34 0 -57 -17t-23 -47q0 -18 10 -29t25.5 -11t50.5 7.5t58 7.5q51 0 81.5 -34.5t30.5 -87.5q0 -30 -3.5 -54.5t-16 -56t-34 -53.5t-62.5 -38.5t-97 -18.5q-33 -1 -58 8t-38 22.5t-21.5 31.5t-10.5 30.5t-2 24.5q0 49 54 49q47 0 49 -30q1 -19 12.5 -26.5
t25.5 -6.5q93 9 93 87q0 60 -51 60q-26 0 -57 -7t-59 -7q-36 0 -60 29.5t-24 84.5q0 38 16 70.5t40 52.5t52.5 34t52.5 19.5t42 5.5q42 0 69.5 -24.5t29.5 -72.5q0 -28 -14.5 -43.5t-42.5 -15.5q-24 0 -33.5 8.5t-10.5 25.5q0 1 -1 3q0 7 -1 10.5t-4.5 6t-10.5 2.5z" />
    <glyph glyph-name="t" unicode="t" horiz-adv-x="357" 
d="M208 -4q-32 -4 -57.5 2t-49 24t-37 56t-13.5 94q0 24 1 47t4.5 47t5.5 41t8 43q1 8 2 14q-14 1 -26 6q-18 7 -25.5 24t-3 34t17.5 25q26 15 49 21q6 1 13 3q15 89 18 100q8 34 19.5 47.5t31.5 13.5q21 0 35 -12.5t15 -40.5q1 -31 -14 -92q13 1 20 1q17 0 58 -6
q22 -4 31.5 -18.5t6 -30.5t-16.5 -26q-29 -22 -128 -37q-3 -13 -6 -29q-6 -32 -9 -67.5t-3 -71.5v-1q0 -38 0.5 -54t5.5 -33t15.5 -21t29.5 -2q27 4 59 32q43 37 71 18q33 -22 0 -77q-18 -30 -57 -50.5t-71 -23.5z" />
    <glyph glyph-name="u" unicode="u" horiz-adv-x="428" 
d="M181 -8q-34 -6 -65 8t-47 44q-50 90 -36 357q1 32 8 54.5t16.5 32.5t17.5 13.5t17 3.5q10 0 18.5 -2t19.5 -7.5t16.5 -19t3.5 -33.5q-3 -35 -3 -120q0 -45 0.5 -75t2.5 -58.5t5.5 -45t9.5 -29t14.5 -16.5t20.5 -1q38 10 62.5 68t24.5 167q0 85 -3 120q-6 62 54 62
q40 0 50 -36q11 -38 11 -121q0 -26 -0.5 -70.5t-0.5 -106.5q0 -85 -2 -115.5t-8 -41.5q-13 -24 -41 -24q-54 0 -55 59v8q-7 -9 -14 -19q-19 -23 -43.5 -37t-53.5 -19z" />
    <glyph glyph-name="v" unicode="v" horiz-adv-x="372" 
d="M230 23q-21 -37 -68 -25q-7 1 -12.5 5t-11 12t-9.5 15t-10 21.5t-10 26t-12 32.5t-13 36q-24 63 -51.5 163.5t-33.5 135.5q-5 25 5 42t26 23q14 8 35 0.5t34 -29.5q9 -14 18.5 -54t20 -94t16.5 -78q7 -28 14.5 -57t11.5 -43l4 -15q7 37 27 117.5t31 110.5q35 99 36 102
q9 22 27.5 32t33.5 7q16 -3 28 -20.5t7 -46.5q-8 -59 -67 -223.5t-77 -195.5z" />
    <glyph glyph-name="w" unicode="w" horiz-adv-x="437" 
d="M214 231q-40 -231 -101 -231q-28 0 -46 30.5t-32 112.5t-24 230q-8 127 41 131q21 3 40.5 -26t24.5 -89q5 -57 7 -110t2 -77q-1 -14 -1 -20q12 75 15 109q3 54 22 89t52 35q31 0 49.5 -37.5t24.5 -92.5q2 -16 7 -42.5t9 -45.5l4 -19v9q-1 9 -0.5 27.5t1.5 43t4 60t8 73.5
q7 60 27.5 88t40.5 25q46 -5 37 -132q-7 -108 -19.5 -183t-29 -115t-33.5 -56.5t-38 -17.5q-19 -1 -35 20t-27 56.5t-18 73.5t-12 81z" />
    <glyph glyph-name="x" unicode="x" horiz-adv-x="354" 
d="M346 83q15 -34 10 -55t-24 -28q-50 -17 -155 139q-10 -15 -21 -31q-44 -63 -67 -88q-43 -48 -77 -18q-14 11 -14.5 27.5t11.5 47.5q7 19 28 54t57 91q9 12 16 23q-27 45 -50 90q-37 69 -44 100q-8 32 -5 47.5t17 25.5q37 25 74 -28q18 -25 75 -126q9 13 15 22q9 16 27 43
t31 42t28.5 30.5t28.5 21t25 1.5q19 -7 24 -28t-10 -56q-8 -16 -30.5 -55.5t-51.5 -88.5q-13 -24 -23 -41q17 -27 44 -67q52 -76 61 -95z" />
    <glyph glyph-name="y" unicode="y" horiz-adv-x="354" 
d="M354 423q-25 -108 -98 -291q-72 -181 -137 -270q-20 -27 -46 -34t-40 8q-30 27 -6 86q5 12 61 124q23 45 40 82q-7 7 -13 17q-89 158 -113 273q-18 85 35 99q26 6 47 -6.5t30 -50.5q21 -85 69 -208q7 21 16 49q14 46 24.5 81.5t23.5 69.5t29.5 52t36.5 16q24 -2 37.5 -28
t3.5 -69z" />
    <glyph glyph-name="z" unicode="z" horiz-adv-x="390" 
d="M364 430q-11 -20 -64 -106.5t-65 -106.5q-21 -38 -64 -93q14 2 29 3q97 7 135 -6t35 -60q0 -11 -4.5 -19t-14 -12.5t-20 -7.5t-28 -5t-32 -2.5t-37.5 -2t-40 -2.5q-109 -10 -120 -10q-20 0 -33 4q-8 3 -15 9q-10 9 -10.5 22.5t10.5 39.5q10 26 56 105t87 144q3 3 7 10
q19 29 29 44q6 9 15 22q-12 -1 -26 -2q-109 -10 -120 -10q-54 0 -53 49q1 65 179 78q95 7 134 -3q7 -2 12 -5h2q19 -7 25 -24.5t-9 -52.5z" />
    <glyph glyph-name="braceleft" unicode="{" horiz-adv-x="427" 
d="M247 106q2 1 12.5 4.5t12.5 4t10.5 3.5t11 3.5t10 2.5t10.5 2t9 1t10.5 0.5t10 -1t11.5 -1.5q28 -5 36.5 -34.5t-11.5 -44.5q-9 -9 -17.5 -14.5t-21 -11t-20 -8l-30 -10l-34.5 -11.5q-10 -3 -37.5 -14t-47 -16t-41.5 -6q-27 0 -41.5 15t-12.5 33.5t15 29.5q47 37 155 73z
M291 629q2 0 12 -4t12 -5t10.5 -4.5t10.5 -4.5l9 -4.5t9 -5t7.5 -5t8.5 -6.5l7 -7l8 -8q18 -24 6 -50.5t-37 -27.5q-13 0 -23 1t-23.5 5t-21 6.5t-29 11.5t-33.5 14q-10 4 -38 13t-46.5 18t-35.5 23q-21 17 -22 37.5t12.5 34t30.5 12.5q60 -2 166 -44zM230 371h13h13h11
t11.5 -0.5t10 -1t10.5 -1.5t9.5 -2.5t10 -3t9 -3.5t10.5 -5q25 -15 23 -44.5t-25 -39.5q-12 -4 -21.5 -7t-23.5 -4t-22 -1t-31 0.5t-36 0.5q-11 0 -40.5 -1.5t-49.5 0t-42 8.5q-19 7 -29 20t-9 26t8.5 24.5t19.5 15.5q56 20 170 19z" />
    <glyph glyph-name="bar" unicode="|" horiz-adv-x="218" 
d="M156 641q9 -25 9 -109q0 -25 -0.5 -87.5t-0.5 -122.5q0 -323 -13 -340q-17 -22 -45 -22q-23 0 -36 10.5t-15 43.5q-2 49 -2.5 330t3.5 307q10 30 41 30q18 0 35 -10.5t24 -29.5z" />
    <glyph glyph-name="braceright" unicode="}" horiz-adv-x="427" 
d="M181 106q108 -36 155 -73q13 -11 15 -29.5t-12.5 -33.5t-41.5 -15q-22 1 -41.5 6t-47 16t-37.5 14l-34.5 11.5l-30 10t-20 8t-21 11t-17.5 14.5q-20 15 -11.5 44.5t37.5 34.5q5 1 10.5 1.5t10 1t10.5 -0.5t9 -1t10.5 -2t10 -2.5t11 -3.5t10.5 -3.5t12.5 -4t12.5 -4.5z
M137 629q106 42 166 44q17 1 30.5 -12.5t12.5 -34t-22 -37.5q-17 -14 -35.5 -23t-46.5 -18t-38 -13q-12 -5 -33.5 -14t-29 -11.5t-21 -6.5t-23.5 -5t-22 -1q-26 1 -38 27.5t6 50.5q11 13 28 23.5t26 14.5t40 16zM198 371q114 1 170 -19q12 -4 19.5 -15.5t8.5 -24.5t-9 -26
t-29 -20q-22 -7 -42 -8.5t-49.5 0t-40.5 1.5q-13 0 -36 -0.5t-31 -0.5t-22 1t-23.5 4t-21.5 7q-23 10 -25 39.5t23 44.5q5 3 10.5 5t9 3.5t10 3t9.5 2.5t10.5 1.5t10 1t11.5 0.5h11h13h13z" />
    <glyph glyph-name="asciitilde" unicode="~" horiz-adv-x="427" 
d="M246 334q33 -27 76 -8q40 14 60.5 1t15.5 -40.5t-33 -40.5q-89 -41 -180 18q-42 27 -76 9q-24 -12 -42.5 -12t-27.5 11t-10.5 24.5t8 29.5t29.5 27q33 18 70 19t63.5 -9.5t46.5 -28.5z" />
    <glyph glyph-name="exclamdown" unicode="&#xa1;" horiz-adv-x="218" 
d="M178 424q3 -31 -17.5 -50t-51.5 -20t-49 18.5t-20 51.5t16 49.5t53 19.5q33 2 50 -14.5t19 -54.5zM61 -108q-9 25 -9 109q0 35 0.5 77.5t0.5 52.5q0 133 13 150q17 22 45 22q23 0 36.5 -10.5t14.5 -43.5q2 -50 2.5 -195t-3.5 -172q-10 -30 -41 -30q-44 0 -59 40z" />
    <glyph glyph-name="cent" unicode="&#xa2;" horiz-adv-x="391" 
d="M270 392q3 68 -20 73q-41 9 -71 -51q-38 -75 -43 -157q-3 -54 11.5 -81t52.5 -27q47 0 95 34q26 19 47 13t23 -29t-17 -53q-28 -40 -69 -58v-1q2 -14 2 -42q0 -35 -13 -55q-19 -28 -55 -28q-20 0 -30.5 13.5t-10.5 50.5q0 18 -1 48v1q-22 4 -43 13q-27 11 -51.5 33.5
t-38.5 62t-13 92.5q3 130 69 226q44 63 96 86q-4 93 1 104q10 25 41 25q18 0 35 -8.5t24 -24.5q9 -21 9 -49q0 -2 -0.5 -15t-0.5 -23v-8q16 -8 29 -22q29 -33 30 -90q1 -26 -4.5 -45.5t-14 -28.5t-16.5 -13t-14 -4q-20 0 -30 8.5t-9 29.5z" />
    <glyph glyph-name="sterling" unicode="&#xa3;" horiz-adv-x="541" 
d="M182 545q19 34 42.5 57t50 33.5t49 14.5t49.5 4q57 0 88 -21t37 -49q4 -25 -9.5 -41.5t-39.5 -16.5q-17 0 -37 11t-37 12q-88 6 -122 -87q-12 -32 -15 -74q-1 -11 -1 -22q5 1 6 2q2 0 11 1t11.5 1t10 0.5t10.5 0t9.5 -0.5t10.5 -1t9.5 -2.5t10.5 -3.5q18 -7 25.5 -24
t3.5 -34t-18 -25q-11 -6 -20 -10.5t-23 -7.5t-21.5 -4t-30.5 -4q-4 -1 -8 -1q-2 -24 -6 -54q-5 -33 -12 -68q38 8 83 11q118 8 166.5 -4t46.5 -54q-1 -19 -11.5 -29.5t-33 -14.5t-45 -5t-62 -1.5t-69.5 -3.5q-37 -3 -71 -11.5t-62 -18.5t-37 -12q-28 -6 -47.5 4.5
t-18.5 34.5q1 31 38 56v1q24 80 34 151q-8 -1 -17 -1q-22 -1 -35 2q-27 5 -38 22.5t-6 35.5t21 26q31 17 84 29v6q-2 40 8 89.5t38 100.5z" />
    <glyph glyph-name="currency" unicode="&#xa4;" horiz-adv-x="395" 
d="M209 438q13 1 24 0q51 75 59 79q18 7 43 -11q36 -27 34 -53q-1 -18 -27 -54q-5 -6 -9 -12q3 -5 6 -11q13 -28 13 -67q0 -59 -18 -98l6 -8q36 -47 35 -67q-2 -25 -25 -42q-11 -9 -20.5 -13t-22 -0.5t-25.5 17.5l-35 42q-21 -6 -47 -7q-23 -1 -42 2q-5 -10 -12 -21
q-32 -50 -52 -55q-24 -6 -48 9q-12 8 -18.5 15.5t-9 21t9.5 29.5q23 39 37 62q-20 36 -19 81q2 40 18 71q4 10 10 19q-50 56 -51 64q-2 19 22 39q34 28 59 20q17 -5 45 -40q9 -11 16 -20q21 6 44 8zM212 341q-32 -4 -50.5 -21t-19.5 -46q-1 -27 15 -39t46 -8q27 3 43 21
t16 51q-1 48 -50 42z" />
    <glyph glyph-name="yen" unicode="&#xa5;" horiz-adv-x="453" 
d="M220 365q27 41 43 71q3 5 10 19q8 16 12.5 24.5t14 26t16.5 29t17.5 28t18.5 27t18.5 23t19.5 19t18.5 11t18.5 4t17 -6.5q16 -11 18.5 -32t-8 -49.5t-20.5 -48.5t-26 -49q-16 -28 -58 -98q16 -2 27 -6q18 -7 26 -24t3.5 -34t-18.5 -25q-17 -10 -40.5 -15t-67.5 -9
q-13 -21 -28 -42q61 4 91 -7q18 -7 26 -24t3.5 -34t-18.5 -25q-17 -10 -40.5 -15t-68 -9t-62.5 -7q-1 0 -27 -4q-44 -51 -67 -69q-54 -40 -82 -3q-11 14 -9 31q2 13 14 33q-27 4 -38 21.5t-6 35.5t21 26q9 5 20.5 9.5t28 8t28.5 6.5q10 3 28 6q16 21 32 43q-5 -1 -10 -1
q-23 -2 -39.5 -2t-30.5 3q-27 4 -38 21.5t-6 35.5t21 26q9 5 20.5 9.5t28 8t28.5 6.5q3 1 7 2q-70 104 -100 189q-28 81 22 102q16 5 31 4.5t29.5 -13.5t23.5 -37q35 -90 107 -220z" />
    <glyph glyph-name="brokenbar" unicode="&#xa6;" horiz-adv-x="218" 
d="M164 240q-2 -244 -13 -258q-17 -22 -45 -22q-23 0 -36 10.5t-15 43.5q-1 39 -2 226q0 24 15.5 38.5t37.5 15.5q26 1 42 -14t16 -40zM156 641q9 -25 9 -109v-140q0 -24 -19 -39t-47 -11q-46 7 -46 50q0 249 3 259q10 30 41 30q18 0 35 -10.5t24 -29.5z" />
    <glyph glyph-name="section" unicode="&#xa7;" horiz-adv-x="410" 
d="M145 213q44 11 52 14q2 1 6 2q18 6 27 10.5t20.5 13.5t16 23.5t4.5 35.5t-6 33q-44 -11 -52 -14q-2 -1 -6 -2q-18 -6 -27 -10.5t-20.5 -13.5t-16 -23.5t-4.5 -35.5t6 -33zM209 584q-34 0 -57 -17t-23 -47q0 -33 10 -55.5t25.5 -22.5t50.5 9t58 9q51 0 81.5 -37t30.5 -90
q0 -67 -24 -107q-10 -16 -27 -29q14 -8 24 -22q27 -33 27 -89q0 -30 -3.5 -54.5t-16 -57.5t-34 -55.5t-62.5 -39.5t-97 -20q-33 -1 -58 8t-38 22.5t-21 31.5t-10 31t-2 24q0 49 53 49q47 0 49 -30q1 -19 12.5 -26.5t25.5 -6.5q48 5 68.5 31t20.5 75q0 47 -27 47
q-15 0 -50 -8.5t-58 -8.5q-51 0 -81.5 36.5t-30.5 90.5q0 67 24 107q11 17 30 32q-15 11 -27 32q-27 46 -27 106q0 38 16 70.5t40 52.5t52.5 34t52.5 19.5t42 5.5q42 0 69.5 -24.5t29.5 -72.5q0 -28 -14.5 -43.5t-42.5 -15.5q-24 0 -33.5 8.5t-10.5 25.5q0 1 -1 3
q0 7 -1 10.5t-4.5 6t-10.5 2.5z" />
    <glyph glyph-name="dieresis" unicode="&#xa8;" horiz-adv-x="378" 
d="M207 562q-2 31 19.5 49t52.5 18q37 0 55 -20t15 -50q-3 -33 -20 -48t-53 -18q-32 -3 -49 11.5t-20 57.5zM30 559q-2 31 18.5 50t50.5 20q32 1 50 -19t20 -51q2 -32 -16.5 -49.5t-53.5 -19.5q-33 -2 -49.5 14.5t-19.5 54.5z" />
    <glyph glyph-name="copyright" unicode="&#xa9;" horiz-adv-x="712" 
d="M404 380q0 3 2 9.5t2.5 11t0 9.5t-4 7.5t-10.5 2.5q-24 -1 -44 -25q-35 -41 -36 -101q-1 -33 10 -47t36 -16q33 -3 61 21q13 11 27 7.5t17.5 -16.5t-7.5 -31q-39 -56 -108 -52q-19 1 -37 8.5t-35.5 21.5t-27.5 39t-10 57q2 79 54 142q24 30 53 45.5t53 15.5
q32 0 49.5 -20.5t18.5 -56.5q1 -22 -11 -39.5t-35 -17.5q-10 0 -14.5 7.5t-3.5 17.5zM359 1q-138 -14 -229 76.5t-87 238.5q2 63 23.5 116t54.5 89t76 62t86.5 39t86.5 16q153 9 236.5 -73t79.5 -232q-2 -79 -28.5 -141t-72 -101t-102 -61.5t-124.5 -28.5zM381 546
q-111 -7 -174.5 -65.5t-66.5 -175.5q-2 -103 59 -159t155 -50q103 7 167.5 69t66.5 179q3 106 -51 158t-156 44z" />
    <glyph glyph-name="ordfeminine" unicode="&#xaa;" horiz-adv-x="429" 
d="M212 541q-32 -4 -50.5 -21t-19.5 -46q-1 -27 15 -39t46 -8q27 3 43 21t16 51q-1 48 -50 42zM199 638q47 3 79 -18q0 8 1 13q10 25 41 25q18 0 35 -8.5t24 -24.5q9 -21 9 -89q0 -21 -0.5 -46.5t-0.5 -31.5q0 -96 -13 -115q-17 -24 -45 -24q-23 0 -37 11q-10 9 -13 33
q-30 -28 -89 -30q-77 -3 -111.5 38.5t-32.5 105.5q3 77 48.5 117t104.5 44z" />
    <glyph glyph-name="guillemotleft" unicode="&#xab;" horiz-adv-x="720" 
d="M668 517q10 -34 -23 -59q-7 -5 -18 -12.5t-25 -16.5t-30.5 -19t-33 -20.5t-32.5 -20.5t-30 -18.5t-24.5 -15t-16.5 -9.5l-6 -4q37 -23 88 -52t81.5 -46t35.5 -23q26 -26 19 -54q-5 -15 -20 -27t-39 -5q-24 6 -80.5 39.5t-85 53t-45.5 31.5q-35 24 -48.5 42t-13.5 41
q0 11 5.5 21.5t10.5 16t13.5 13.5t9.5 8q19 20 115.5 87.5t130.5 77.5q25 7 41.5 -2.5t20.5 -26.5zM368 517q10 -34 -23 -59q-7 -5 -18 -12.5t-25 -16.5t-30.5 -19t-33 -20.5t-32.5 -20.5t-30 -18.5t-24.5 -15t-16.5 -9.5l-6 -4q37 -23 88 -52t81.5 -46t35.5 -23
q26 -26 19 -54q-5 -15 -20 -27t-39 -5q-24 6 -80.5 39.5t-85 53t-45.5 31.5q-35 24 -48.5 42t-13.5 41q0 11 5.5 21.5t10.5 16t13.5 13.5t9.5 8q19 20 115.5 87.5t130.5 77.5q25 7 41.5 -2.5t20.5 -26.5z" />
    <glyph glyph-name="logicalnot" unicode="&#xac;" horiz-adv-x="427" 
d="M218 364q2 0 13 1.5t13 2t11 1.5t11.5 1t10 0.5t10.5 0t9.5 -0.5t10.5 -1t9.5 -2.5t10.5 -3.5q17 -7 25 -22l4 -8q3 -6 4.5 -18t1.5 -25.5v-29v-28.5q1 -65 -56 -65q-26 0 -38 11.5t-13 48.5q-1 15 -1 28q-5 0 -11 -1q-23 -3 -36 -5q-12 -2 -32.5 -6t-31.5 -6t-32 -3
t-35 2q-27 5 -38 22.5t-6 35.5t21 26q52 28 165 44z" />
    <glyph glyph-name="uni00AD" unicode="&#xad;" horiz-adv-x="427" 
d="M218 364q2 0 13 1.5t13 2t11 1.5t11.5 1t10 0.5t10.5 0t9.5 -0.5t10.5 -1t9.5 -2.5t10.5 -3.5q18 -7 25.5 -24t3.5 -34t-18 -25q-11 -6 -20 -10.5t-23 -7.5t-21.5 -4t-30.5 -4t-36 -5q-12 -2 -32.5 -6t-31.5 -6t-32 -3t-35 2q-27 5 -38 22.5t-6 35.5t21 26q52 28 165 44z
" />
    <glyph glyph-name="registered" unicode="&#xae;" horiz-adv-x="712" 
d="M338 413q0 -27 -1 -79l6 2q19 7 32.5 22t13.5 29q1 29 -21 29q-12 0 -30 -3zM379 490q39 0 63.5 -23t24.5 -60q0 -43 -41 -81q40 -25 44 -85q4 -65 -21 -81q-16 -10 -33.5 3t-15.5 33q4 55 -6 72q-8 13 -34 22q-6 -2 -14 -4l-10 -2q-1 -90 -1 -92q-4 -27 -32 -30
q-36 -3 -36 25v137q2 45 3 72q-35 -1 -34 26t44.5 47.5t98.5 20.5zM359 1q-139 -14 -229.5 76.5t-86.5 238.5q4 133 95.5 223t231.5 99q152 9 236 -72.5t80 -232.5q-4 -145 -89 -231t-238 -101zM381 546q-116 -7 -177 -68t-64 -173q-2 -99 57.5 -157t156.5 -52
q109 7 170.5 72t63.5 176q3 105 -50.5 157.5t-156.5 44.5z" />
    <glyph glyph-name="macron" unicode="&#xaf;" horiz-adv-x="331" 
d="M185 634q2 1 12 2.5t11.5 1.5t10 1t10.5 1t9 0.5t9.5 0t8.5 -0.5t10 -1t8.5 -2.5t9.5 -2.5q25 -10 27.5 -37.5t-17.5 -38.5q-10 -5 -18.5 -9t-20.5 -6.5t-19 -4t-28 -4t-33 -4.5q-11 -1 -29.5 -5t-28.5 -5.5t-29 -2.5t-31 2q-24 4 -34.5 20t-5.5 32t19 24q47 25 149 39z
" />
    <glyph glyph-name="degree" unicode="&#xb0;" horiz-adv-x="355" 
d="M191 541q-32 -4 -50.5 -21t-19.5 -46q-1 -27 15 -39t45 -8q27 3 43.5 21t15.5 51q-1 48 -49 42zM187 638q26 2 50 -3.5t45.5 -18.5t34.5 -40.5t13 -66.5q0 -171 -152 -176q-78 -4 -116.5 39t-36.5 105q2 40 17.5 71.5t40 49.5t51 28t53.5 12z" />
    <glyph glyph-name="plusminus" unicode="&#xb1;" horiz-adv-x="427" 
d="M157 349q0 78 4 104q10 25 41 25q18 0 35 -8.5t24 -25.5q8 -18 9 -75h4q9 1 11.5 1t10 0.5t10.5 0t9.5 -0.5t10.5 -1t9.5 -2.5t10.5 -3.5q18 -7 26 -24t3.5 -34t-18.5 -25q-11 -6 -20 -10.5t-22.5 -7.5t-21.5 -4q-7 -1 -24 -3q-1 -44 -5 -68v1q2 0 11 1t11.5 1t10 0.5
t10.5 0t9.5 -0.5t10.5 -1t9.5 -2.5t10.5 -3.5q18 -7 25.5 -24t3.5 -34t-18 -25q-11 -6 -20 -10.5t-23 -7.5t-21.5 -4t-30.5 -4t-36 -5q-12 -2 -32.5 -6t-31.5 -6t-32 -3t-35 2q-27 5 -38 22.5t-6 35.5t21 26q33 18 90 31q-3 11 -3 27q-1 18 -1 38q-11 -1 -29 -2
q-21 -1 -35 2q-27 5 -38 22.5t-5.5 35.5t20.5 26q32 17 85 29z" />
    <glyph glyph-name="uni00B2" unicode="&#xb2;" horiz-adv-x="397" 
d="M25 234q1 42 50 64q2 2 5 3q76 55 112 93q42 43 42 76q0 24 -14.5 35.5t-39.5 7.5q-35 -7 -58.5 -20.5t-38.5 -15.5q-13 -1 -26 5.5t-20.5 18.5t-2.5 30.5t25 37.5q30 28 59.5 39.5t79.5 16.5q26 2 50.5 -3t47 -18.5t36.5 -42t14 -68.5q0 -43 -23.5 -86t-60.5 -76v0
q50 1 77 -8q35 -12 33 -52q0 -16 -6 -26.5t-13.5 -16.5t-23.5 -9.5t-28.5 -4.5t-37 -3t-42.5 -4q-98 -12 -130 -12t-49 8.5t-17 30.5z" />
    <glyph glyph-name="uni00B3" unicode="&#xb3;" horiz-adv-x="418" 
d="M375 546q-10 -30 -66 -76q-8 -7 -16 -13q40 -4 69 -31q32 -31 32 -70q0 -144 -200 -156q-41 -2 -72 8t-47.5 25.5t-26.5 36.5t-13 36.5t-3 29.5q0 19 14.5 33.5t37.5 14.5q41 0 43 -42q2 -22 27 -31.5t44 -6.5q46 6 65.5 16.5t19.5 31.5q0 31 -62 20q-4 -1 -16.5 -3.5
t-17.5 -3t-15 -1t-16 1t-12.5 5.5t-11.5 10q-29 35 11 78q18 19 45 47q5 4 10 9q-20 -1 -37 -3q-49 -5 -80 -5q-29 0 -42.5 9.5t-13.5 32.5q1 20 12 34.5t32 22.5t44.5 12t55.5 6q118 7 162 -4q13 -4 21 -10q15 -7 22 -24q8 -20 1 -40z" />
    <glyph glyph-name="acute" unicode="&#xb4;" horiz-adv-x="208" 
d="M13 509q-3 7 -3.5 13t2 12.5t5.5 11.5t10 12t12 12.5t14.5 14t16.5 15.5q65 65 102 40q18 -12 22 -29t-4 -33t-18.5 -29t-23.5 -24q-30 -25 -59 -34.5t-48.5 -4t-27.5 22.5z" />
    <glyph glyph-name="mu" unicode="&#xb5;" horiz-adv-x="428" 
d="M201 -8q-34 -6 -65 8l-8 4q-1 -24 -2 -42q-2 -53 -12 -87q-6 -24 -20.5 -39.5t-32.5 -15.5t-29.5 13t-11.5 37q-1 43 9 308q6 156 10 224q-1 33 3 54q5 25 15 34.5t17.5 12t17.5 2.5t18.5 -2t19.5 -7.5t16.5 -19t3.5 -33.5q-3 -35 -3 -120q0 -45 0.5 -75t2.5 -58.5
t5.5 -45t9.5 -29t14.5 -16.5t20.5 -1q38 10 62.5 68t24.5 167q0 85 -3 120q-6 62 54 62q40 0 50 -36q11 -38 11 -121q0 -26 -0.5 -70.5t-0.5 -106.5q0 -85 -2 -115.5t-8 -41.5q-13 -24 -41 -24q-53 0 -55 56q-2 -4 -6 -8q-11 -17 -21.5 -26t-27 -17.5t-36.5 -12.5z" />
    <glyph glyph-name="paragraph" unicode="&#xb6;" horiz-adv-x="641" 
d="M273 242q-12 -2 -26 -2q-94 0 -145.5 45t-52.5 130q-1 141 117 196t381 40q24 -2 43.5 -17t16.5 -43q-2 -15 -10 -24.5t-21.5 -13t-23.5 -3.5q-4 -1 -8 -1q1 -24 1 -57q0 -25 -0.5 -67.5t-0.5 -102.5q0 -293 -13 -310q-17 -22 -45 -22q-23 0 -36 10.5t-15 43.5
q-2 49 -3 295q0 141 1 210q-12 0 -23 -1q-13 0 -26 -1q1 -23 1 -55q0 -25 -0.5 -67.5t-0.5 -102.5q0 -313 -13 -330q-17 -22 -45 -22q-23 0 -36 10.5t-15 43.5q-2 40 -2 218zM273 537q-19 -3 -33 -8q-30 -9 -52.5 -23.5t-32.5 -36t-10 -50.5q1 -72 85 -72q20 0 32 1
q6 1 10 2q0 121 1 187z" />
    <glyph glyph-name="periodcentered" unicode="&#xb7;" horiz-adv-x="198" 
d="M30 329q-2 31 18.5 50t50.5 20q32 1 50 -19t20 -51q2 -32 -16.5 -49.5t-53.5 -19.5q-33 -2 -49.5 14.5t-19.5 54.5z" />
    <glyph glyph-name="cedilla" unicode="&#xb8;" horiz-adv-x="258" 
d="M96 29q16 30 39.5 43t48.5 1q20 -10 25.5 -27.5t1.5 -33t-13 -37.5q-29 -63 -79 -99.5t-79 -12.5q-10 9 -11 23t7 33.5t16.5 35t23 39.5t20.5 35z" />
    <glyph glyph-name="uni00B9" unicode="&#xb9;" horiz-adv-x="258" 
d="M116 512q-21 -5 -49 -4q-49 1 -43 46q5 36 51.5 62t84.5 25q36 -1 51 -23t17 -87v-39q0 -36 -0.5 -71t-0.5 -39q0 -133 -13 -150q-17 -22 -45 -22q-23 0 -36.5 10.5t-14.5 43.5q-2 50 -2 185q-1 35 0 63z" />
    <glyph glyph-name="ordmasculine" unicode="&#xba;" horiz-adv-x="395" 
d="M212 541q-32 -4 -50.5 -21t-19.5 -46q-1 -27 15 -39t46 -8q27 3 43 21t16 51q-1 48 -50 42zM209 638q26 2 49.5 -3.5t45.5 -18.5t35 -40.5t13 -66.5q0 -171 -152 -176q-78 -4 -117 39t-37 105q2 40 17.5 71.5t40 49.5t51 28t54.5 12z" />
    <glyph glyph-name="guillemotright" unicode="&#xbb;" horiz-adv-x="720" 
d="M23 145q-9 33 24 58q6 5 17.5 12.5t25.5 16.5t30 19.5t32.5 20.5t32.5 20t30 18.5t24.5 15t16.5 10.5l7 4q-38 23 -89 51.5t-81 45.5t-36 23q-26 27 -18 54q4 16 19 27.5t39 5.5q24 -7 80.5 -40.5t85 -52.5t46.5 -32q34 -23 47.5 -41.5t13.5 -41.5q0 -10 -5 -21
t-10 -16.5t-14 -13.5l-9 -8q-19 -19 -115.5 -87t-131.5 -77q-25 -7 -41 2.5t-21 26.5zM323 145q-9 33 24 58q6 5 17.5 12.5t25.5 16.5t30 19.5t32.5 20.5t32.5 20t30 18.5t24.5 15t16.5 10.5l7 4q-38 23 -89 51.5t-81 45.5t-36 23q-26 27 -18 54q4 16 19 27.5t39 5.5
q24 -7 80.5 -40.5t85 -52.5t46.5 -32q34 -23 47.5 -41.5t13.5 -41.5q0 -10 -5 -21t-10 -16.5t-14 -13.5l-9 -8q-19 -19 -115.5 -87t-131.5 -77q-25 -7 -41 2.5t-21 26.5z" />
    <glyph glyph-name="onequarter" unicode="&#xbc;" horiz-adv-x="1018" 
d="M116 512q-21 -5 -49 -4q-49 1 -43 46q5 36 51.5 62t84.5 25q36 -1 51 -23t17 -87v-39q0 -36 -0.5 -71t-0.5 -39q0 -133 -13 -150q-17 -22 -45 -22q-23 0 -36.5 10.5t-14.5 43.5q-2 50 -2 185q-1 35 0 63zM582 144q8 30 20 72t18 63.5t12 46.5t8 44q4 32 23 44.5t41 6.5
q18 -5 26 -20t10 -49q4 -50 -26 -145q27 8 56 12q6 1 12 1q0 85 4 111q10 30 41 30q18 0 35 -10.5t24 -29.5q8 -23 9 -96q23 -2 40 -7q51 -14 48 -57q-1 -22 -20 -30.5t-45 -6.5h-25q-3 -90 -12 -102q-17 -22 -45 -22q-23 0 -36 10.5t-15 43.5q-1 24 -2 59q-10 -3 -21 -6
q-7 -2 -49 -20t-61 -22q-28 -6 -47 5q-8 4 -13 11t-9 19q-7 22 -1 44zM631 538q-13 -26 -76 -133.5t-78 -133.5q-31 -54 -90.5 -139t-84.5 -113q-45 -50 -80 -19q-14 12 -14.5 28.5t11.5 49.5q8 19 37.5 67.5t78.5 124.5t70 110q14 23 39.5 68.5t44 76.5t41.5 63.5t44 46.5
t39 7q24 -8 30.5 -34.5t-12.5 -69.5z" />
    <glyph glyph-name="onehalf" unicode="&#xbd;" horiz-adv-x="958" 
d="M116 512q-21 -5 -49 -4q-49 1 -43 46q5 36 51.5 62t84.5 25q36 -1 51 -23t17 -87v-39q0 -36 -0.5 -71t-0.5 -39q0 -133 -13 -150q-17 -22 -45 -22q-23 0 -36.5 10.5t-14.5 43.5q-2 50 -2 185q-1 35 0 63zM576 27q1 42 50 65q3 1 5 2q1 0 2 1q89 64 119 91.5t30 56.5
q0 18 -13.5 27.5t-37.5 5.5q-35 -7 -58 -20.5t-39 -15.5q-13 -1 -26 5.5t-20.5 18.5t-2.5 30.5t25 37.5q30 28 59.5 39.5t79.5 16.5q26 2 50 -3t46 -17.5t35.5 -38.5t13.5 -63q0 -43 -22 -82q-19 -34 -48 -60q42 0 66 -8q36 -12 33 -52q0 -16 -6 -26.5t-13.5 -16.5
t-23.5 -9.5t-28.5 -4.5t-37 -3t-42.5 -4q-98 -12 -130 -12q-31 0 -48.5 8.5t-17.5 30.5zM631 538q-13 -26 -76 -133.5t-78 -133.5q-31 -54 -90.5 -139t-84.5 -113q-45 -50 -80 -19q-14 12 -14.5 28.5t11.5 49.5q8 19 37.5 67.5t78.5 124.5t70 110q14 23 39.5 68.5t44 76.5
t41.5 63.5t44 46.5t39 7q24 -8 30.5 -34.5t-12.5 -69.5z" />
    <glyph glyph-name="threequarters" unicode="&#xbe;" horiz-adv-x="1153" 
d="M381 546q-10 -30 -66 -76q-8 -6 -16 -13q41 -4 69 -31q32 -31 32 -70q0 -144 -200 -156q-41 -2 -72 8t-47.5 25.5t-26.5 36.5t-13 36.5t-3 29.5q0 19 14.5 33.5t37.5 14.5q41 0 44 -42q1 -22 26 -31.5t44 -6.5q46 6 65.5 16.5t19.5 31.5q0 31 -62 20q-4 -1 -16.5 -3.5
t-17.5 -3t-15 -1t-15.5 1t-12.5 5.5t-12 10q-28 35 11 78q18 19 45 47q5 4 10 9q-20 -1 -37 -3q-48 -5 -80 -5q-29 0 -42.5 9.5t-13.5 32.5q1 20 12 34.5t32 22.5t44.5 12t55.5 6q119 7 163 -4q13 -4 22 -10q13 -8 20 -24q8 -20 1 -40zM717 144q8 30 20 72t18 63.5t12 46.5
t8 44q4 32 23 44.5t41 6.5q18 -5 26 -20t10 -49q4 -50 -26 -145q27 8 56 12q6 1 12 1q0 85 4 111q10 30 41 30q18 0 35 -10.5t24 -29.5q8 -23 9 -96q23 -2 40 -7q51 -14 48 -57q-1 -22 -20 -30.5t-46 -6.5h-24q-3 -90 -12 -102q-17 -22 -45 -22q-23 0 -36 10.5t-15 43.5
q-1 24 -2 59q-10 -3 -21 -6q-7 -2 -49 -20t-61 -22q-28 -6 -47 5q-8 4 -13 11t-9 19q-7 22 -1 44zM766 538q-13 -26 -76 -133.5t-78 -133.5q-31 -54 -90.5 -139t-84.5 -113q-45 -50 -80 -19q-14 12 -14.5 28.5t11.5 49.5q8 19 37.5 67.5t78.5 124.5t70 110q14 23 39.5 68.5
t44 76.5t41.5 63.5t44 46.5t39 7q24 -8 30.5 -34.5t-12.5 -69.5z" />
    <glyph glyph-name="questiondown" unicode="&#xbf;" horiz-adv-x="444" 
d="M320 428q2 -30 -18.5 -49t-51.5 -20t-49 18.5t-20 50.5q-2 32 16.5 50t52.5 20q34 1 50.5 -15.5t19.5 -54.5zM298 246q3 -16 0 -62v-3q0 -3 -1 -6q-3 -16 -15 -25q-14 -11 -48 -18q-39 -8 -64.5 -37.5t-25.5 -69.5q0 -29 19 -48t63 -15q28 3 48 17.5t37 36.5t25 28
q10 9 25 10t27.5 -6t18 -24t-1.5 -45q-12 -44 -71 -85t-126 -44q-37 -1 -68.5 7t-57 27.5t-40 54.5t-14.5 83q0 84 60 140q48 45 118 55q-1 12 -2 28q-4 49 40 58q27 4 38.5 -11t15.5 -46z" />
    <glyph glyph-name="Agrave" unicode="&#xc0;" horiz-adv-x="494" 
d="M292 670q-7 -17 -26.5 -22.5t-48.5 4t-60 34.5q-12 11 -23 24t-19 29t-4 33t22 29q37 25 103 -40q6 -7 15.5 -15.5t15 -14t12 -12.5t9.5 -12t5.5 -11.5t2 -12.5t-3.5 -13zM297 342q-4 13 -7 21q-12 35 -25 70t-20 52l-7 18q-8 -39 -37 -162q24 4 50 4q25 0 46 -3z
M175 603q27 46 85 32q28 -7 49 -46.5t59 -139.5q38 -99 79.5 -220t46.5 -153q6 -35 2 -51t-20 -25q-40 -23 -75 34q-10 18 -31 81q-17 51 -36 113q-21 2 -48 2q-57 0 -99 -10q-9 -1 -16 -4q-8 -29 -12 -44t-15.5 -62.5t-21.5 -70.5q-11 -29 -32 -45.5t-39 -13.5
q-39 7 -22 94q5 26 15 64q-5 -1 -11 -1q-22 0 -30.5 18t-3 41t21.5 38q32 31 61 53q9 36 20 78q57 210 73 238z" />
    <glyph glyph-name="Aacute" unicode="&#xc1;" horiz-adv-x="494" 
d="M206 670q-3 7 -3.5 13t2 12.5t6 11.5t10 12t12 12.5t14.5 14t16 15.5q65 65 102 40q19 -12 23 -29t-4.5 -33t-19 -29t-23.5 -24q-30 -25 -59 -34.5t-48.5 -4t-27.5 22.5zM297 342q-4 13 -7 21q-12 35 -25 70t-20 52l-7 18q-8 -39 -37 -162q24 4 50 4q25 0 46 -3zM175 603
q27 46 85 32q28 -7 49 -46.5t59 -139.5q38 -99 79.5 -220t46.5 -153q6 -35 2 -51t-20 -25q-40 -23 -75 34q-10 18 -31 81q-17 51 -36 113q-21 2 -48 2q-57 0 -99 -10q-9 -1 -16 -4q-8 -29 -12 -44t-15.5 -62.5t-21.5 -70.5q-11 -29 -32 -45.5t-39 -13.5q-39 7 -22 94
q5 26 15 64q-5 -1 -11 -1q-22 0 -30.5 18t-3 41t21.5 38q32 31 61 53q9 36 20 78q57 210 73 238z" />
    <glyph glyph-name="Acircumflex" unicode="&#xc2;" horiz-adv-x="494" 
d="M155 644q-27 13 -25.5 46t27.5 80q12 22 36 41.5t54 22.5q50 6 90 -64q26 -46 27 -73t-25 -43q-21 -13 -45 10.5t-44 66.5q-53 -104 -95 -87zM297 342q-4 13 -7 21q-12 35 -25 70t-20 52l-7 18q-8 -39 -37 -162q24 4 50 4q25 0 46 -3zM175 603q27 46 85 32
q28 -7 49 -46.5t59 -139.5q38 -99 79.5 -220t46.5 -153q6 -35 2 -51t-20 -25q-40 -23 -75 34q-10 18 -31 81q-17 51 -36 113q-21 2 -48 2q-57 0 -99 -10q-9 -1 -16 -4q-8 -29 -12 -44t-15.5 -62.5t-21.5 -70.5q-11 -29 -32 -45.5t-39 -13.5q-39 7 -22 94q5 26 15 64
q-5 -1 -11 -1q-22 0 -30.5 18t-3 41t21.5 38q32 31 61 53q9 36 20 78q57 210 73 238z" />
    <glyph glyph-name="Atilde" unicode="&#xc3;" horiz-adv-x="494" 
d="M261 769q22 -15 62 3q26 13 44.5 7.5t28.5 -19t7 -33.5t-19 -35q-29 -27 -75.5 -29t-80.5 18q-18 9 -29 8t-33 -11q-26 -12 -44 -6t-27 19.5t-4.5 33t23.5 33.5q36 29 78 30t69 -19zM297 342q-4 13 -7 21q-12 35 -25 70t-20 52l-7 18q-8 -39 -37 -162q24 4 50 4
q25 0 46 -3zM175 603q27 46 85 32q28 -7 49 -46.5t59 -139.5q38 -99 79.5 -220t46.5 -153q6 -35 2 -51t-20 -25q-40 -23 -75 34q-10 18 -31 81q-17 51 -36 113q-21 2 -48 2q-57 0 -99 -10q-9 -1 -16 -4q-8 -29 -12 -44t-15.5 -62.5t-21.5 -70.5q-11 -29 -32 -45.5t-39 -13.5
q-39 7 -22 94q5 26 15 64q-5 -1 -11 -1q-22 0 -30.5 18t-3 41t21.5 38q32 31 61 53q9 36 20 78q57 210 73 238z" />
    <glyph glyph-name="Adieresis" unicode="&#xc4;" horiz-adv-x="494" 
d="M272 716q-2 31 19.5 49t52.5 18q37 0 55 -20t15 -50q-3 -33 -20 -48t-53 -18q-32 -3 -49 11.5t-20 57.5zM95 713q-2 31 18.5 50t50.5 20q32 1 50 -19t20 -51q2 -32 -16.5 -49.5t-53.5 -19.5q-33 -2 -49.5 14.5t-19.5 54.5zM297 342q-4 13 -7 21q-12 35 -25 70t-20 52
l-7 18q-8 -39 -37 -162q24 4 50 4q25 0 46 -3zM175 603q27 46 85 32q28 -7 49 -46.5t59 -139.5q38 -99 79.5 -220t46.5 -153q6 -35 2 -51t-20 -25q-40 -23 -75 34q-10 18 -31 81q-17 51 -36 113q-21 2 -48 2q-57 0 -99 -10q-9 -1 -16 -4q-8 -29 -12 -44t-15.5 -62.5
t-21.5 -70.5q-11 -29 -32 -45.5t-39 -13.5q-39 7 -22 94q5 26 15 64q-5 -1 -11 -1q-22 0 -30.5 18t-3 41t21.5 38q32 31 61 53q9 36 20 78q57 210 73 238z" />
    <glyph glyph-name="Aring" unicode="&#xc5;" horiz-adv-x="494" 
d="M253 757q-21 -3 -22 -22q0 -18 19 -15q19 2 19 23q0 16 -16 14zM255 830q35 2 60.5 -15.5t25.5 -62.5q0 -102 -91 -105q-47 -2 -70 23.5t-22 62.5q2 46 31.5 70.5t65.5 26.5zM297 342q-4 13 -7 21q-12 35 -25 70t-20 52l-7 18q-8 -39 -37 -162q24 4 50 4q25 0 46 -3z
M175 603q27 46 85 32q28 -7 49 -46.5t59 -139.5q38 -99 79.5 -220t46.5 -153q6 -35 2 -51t-20 -25q-40 -23 -75 34q-10 18 -31 81q-17 51 -36 113q-21 2 -48 2q-57 0 -99 -10q-9 -1 -16 -4q-8 -29 -12 -44t-15.5 -62.5t-21.5 -70.5q-11 -29 -32 -45.5t-39 -13.5
q-39 7 -22 94q5 26 15 64q-5 -1 -11 -1q-22 0 -30.5 18t-3 41t21.5 38q32 31 61 53q9 36 20 78q57 210 73 238z" />
    <glyph glyph-name="AE" unicode="&#xc6;" horiz-adv-x="740" 
d="M357 387q-12 -21 -27 -46q-33 -56 -57 -95q22 8 46 16q14 5 32 11q0 12 1 23q2 50 5 91zM531 634q77 11 130 3q27 -5 38 -22.5t6 -35.5t-20 -26q-16 -8 -36 -13.5t-36 -8t-45.5 -6t-48.5 -6.5q-31 -5 -43.5 -21t-15.5 -61q-4 -61 -6 -126q14 5 25 9q30 10 64 21t55 14.5
t32 1.5q28 -8 33.5 -38t-14.5 -44q-40 -30 -196 -85q0 -20 1 -31q2 -42 14 -56t43 -12q30 2 60 5.5t44.5 5.5t32 1t33.5 -7q22 -7 30.5 -26.5t-2 -40t-38.5 -29.5q-50 -16 -140 -16t-132.5 28.5t-48.5 100.5q-1 17 -2 41q-11 -3 -22 -7q-53 -18 -114 -42q-10 -4 -19 -7
q-18 -38 -31 -57q-18 -26 -42 -37.5t-40 -5.5q-29 13 -13 66q-26 2 -38 18q-13 16 -9.5 34.5t17.5 28.5q28 19 89 45q34 60 86 151q109 186 133 216q17 21 31 32t52.5 24t102.5 21z" />
    <glyph glyph-name="Ccedilla" unicode="&#xc7;" horiz-adv-x="483" 
d="M352 430q4 56 -11 89t-48 31q-63 -3 -111 -98q-22 -46 -34 -85.5t-16 -107.5q-2 -51 5 -85t24.5 -50.5t36 -23t45.5 -8.5q72 -4 137 52q27 23 47.5 20t21 -26t-19.5 -58q-50 -79 -151 -89q2 -11 -1 -21q-4 -15 -14 -37q-29 -63 -79 -99.5t-78 -12.5q-10 9 -11 23t7 33.5
t16.5 35t23 39.5t20.5 35q4 7 8 13l-16 6q-34 15 -64.5 43t-48 78t-16.5 115q4 163 86 283q85 123 194 123q63 0 99 -41.5t37 -112.5q1 -33 -5.5 -57t-17.5 -35.5t-20.5 -16.5t-18.5 -5q-19 0 -23.5 13t-3.5 37z" />
    <glyph glyph-name="Egrave" unicode="&#xc8;" horiz-adv-x="429" 
d="M271 679q-7 -17 -26.5 -22.5t-48.5 4t-60 34.5q-12 11 -23 24t-19 29t-4 33t22 29q37 25 103 -40q6 -7 15.5 -15.5t15 -14t12 -12.5t9.5 -12t5.5 -11.5t2 -12.5t-3.5 -13zM221 364q2 0 13 1.5t13 2t11 1.5t11.5 1t10 0.5t10.5 0t9.5 -0.5t10.5 -1t9.5 -2.5t10.5 -3.5
q18 -7 26 -24t3.5 -34t-18.5 -25q-10 -6 -19.5 -10.5t-23 -7.5t-21.5 -4t-31 -4t-36 -5q-12 -2 -32.5 -6t-31.5 -6q-2 0 -4 -1q0 -57 1 -77q2 -42 14 -56t43 -12q30 2 60 5.5t44.5 5.5t32 1t33.5 -7q22 -7 30.5 -26.5t-2 -40t-38.5 -29.5q-50 -16 -140 -16t-132.5 28.5
t-48.5 100.5q-20 266 0 386q12 68 51 95t130 40q77 11 130 3q27 -5 38 -22.5t6 -35.5t-20 -26q-16 -8 -36 -13.5t-36 -8t-45.5 -6t-48.5 -6.5q-31 -5 -43.5 -21t-15.5 -61q-3 -43 -5 -87q34 8 77 14z" />
    <glyph glyph-name="Eacute" unicode="&#xc9;" horiz-adv-x="429" 
d="M185 679q-3 7 -3.5 13t2 12.5t6 11.5t10 12t12 12.5t14.5 14t16 15.5q65 65 102 40q19 -12 23 -29t-4.5 -33t-19 -29t-23.5 -24q-30 -25 -59 -34.5t-48.5 -4t-27.5 22.5zM221 364q2 0 13 1.5t13 2t11 1.5t11.5 1t10 0.5t10.5 0t9.5 -0.5t10.5 -1t9.5 -2.5t10.5 -3.5
q18 -7 26 -24t3.5 -34t-18.5 -25q-10 -6 -19.5 -10.5t-23 -7.5t-21.5 -4t-31 -4t-36 -5q-12 -2 -32.5 -6t-31.5 -6q-2 0 -4 -1q0 -57 1 -77q2 -42 14 -56t43 -12q30 2 60 5.5t44.5 5.5t32 1t33.5 -7q22 -7 30.5 -26.5t-2 -40t-38.5 -29.5q-50 -16 -140 -16t-132.5 28.5
t-48.5 100.5q-20 266 0 386q12 68 51 95t130 40q77 11 130 3q27 -5 38 -22.5t6 -35.5t-20 -26q-16 -8 -36 -13.5t-36 -8t-45.5 -6t-48.5 -6.5q-31 -5 -43.5 -21t-15.5 -61q-3 -43 -5 -87q34 8 77 14z" />
    <glyph glyph-name="Ecircumflex" unicode="&#xca;" horiz-adv-x="429" 
d="M134 653q-27 13 -25.5 46t27.5 80q12 22 36 41.5t54 22.5q50 6 90 -64q26 -46 27 -73t-25 -43q-21 -13 -45 10.5t-44 66.5q-53 -104 -95 -87zM221 364q2 0 13 1.5t13 2t11 1.5t11.5 1t10 0.5t10.5 0t9.5 -0.5t10.5 -1t9.5 -2.5t10.5 -3.5q18 -7 26 -24t3.5 -34t-18.5 -25
q-10 -6 -19.5 -10.5t-23 -7.5t-21.5 -4t-31 -4t-36 -5q-12 -2 -32.5 -6t-31.5 -6q-2 0 -4 -1q0 -57 1 -77q2 -42 14 -56t43 -12q30 2 60 5.5t44.5 5.5t32 1t33.5 -7q22 -7 30.5 -26.5t-2 -40t-38.5 -29.5q-50 -16 -140 -16t-132.5 28.5t-48.5 100.5q-20 266 0 386
q12 68 51 95t130 40q77 11 130 3q27 -5 38 -22.5t6 -35.5t-20 -26q-16 -8 -36 -13.5t-36 -8t-45.5 -6t-48.5 -6.5q-31 -5 -43.5 -21t-15.5 -61q-3 -43 -5 -87q34 8 77 14z" />
    <glyph glyph-name="Edieresis" unicode="&#xcb;" horiz-adv-x="429" 
d="M251 725q-2 31 19.5 49t52.5 18q37 0 55 -20t15 -50q-3 -33 -20 -48t-53 -18q-32 -3 -49 11.5t-20 57.5zM74 722q-2 31 18.5 50t50.5 20q32 1 50 -19t20 -51q2 -32 -16.5 -49.5t-53.5 -19.5q-33 -2 -49.5 14.5t-19.5 54.5zM221 364q2 0 13 1.5t13 2t11 1.5t11.5 1t10 0.5
t10.5 0t9.5 -0.5t10.5 -1t9.5 -2.5t10.5 -3.5q18 -7 26 -24t3.5 -34t-18.5 -25q-10 -6 -19.5 -10.5t-23 -7.5t-21.5 -4t-31 -4t-36 -5q-12 -2 -32.5 -6t-31.5 -6q-2 0 -4 -1q0 -57 1 -77q2 -42 14 -56t43 -12q30 2 60 5.5t44.5 5.5t32 1t33.5 -7q22 -7 30.5 -26.5t-2 -40
t-38.5 -29.5q-50 -16 -140 -16t-132.5 28.5t-48.5 100.5q-20 266 0 386q12 68 51 95t130 40q77 11 130 3q27 -5 38 -22.5t6 -35.5t-20 -26q-16 -8 -36 -13.5t-36 -8t-45.5 -6t-48.5 -6.5q-31 -5 -43.5 -21t-15.5 -61q-3 -43 -5 -87q34 8 77 14z" />
    <glyph glyph-name="Igrave" unicode="&#xcc;" horiz-adv-x="172" 
d="M134 601q9 -25 9 -109q0 -25 -0.5 -67.5t-0.5 -102.5q0 -283 -13 -300q-17 -22 -45 -22q-23 0 -36.5 10.5t-14.5 43.5q-2 49 -2.5 290t3.5 267q10 30 41 30q18 0 34.5 -10.5t24.5 -29.5zM127 682q-7 -17 -26.5 -22.5t-48.5 4t-60 34.5q-12 11 -23 24t-19 29t-4 33t22 29
q37 25 103 -40q6 -7 15.5 -15.5t15 -14t12 -12.5t9.5 -12t5.5 -11.5t2 -12.5t-3.5 -13z" />
    <glyph glyph-name="Iacute" unicode="&#xcd;" horiz-adv-x="172" 
d="M134 601q9 -25 9 -109q0 -25 -0.5 -67.5t-0.5 -102.5q0 -283 -13 -300q-17 -22 -45 -22q-23 0 -36.5 10.5t-14.5 43.5q-2 49 -2.5 290t3.5 267q10 30 41 30q18 0 34.5 -10.5t24.5 -29.5zM41 682q-3 7 -3.5 13t2 12.5t6 11.5t10 12t12 12.5t14.5 14t16 15.5q65 65 102 40
q19 -12 23 -29t-4.5 -33t-19 -29t-23.5 -24q-30 -25 -59 -34.5t-48.5 -4t-27.5 22.5z" />
    <glyph glyph-name="Icircumflex" unicode="&#xce;" horiz-adv-x="172" 
d="M134 601q9 -25 9 -109q0 -25 -0.5 -67.5t-0.5 -102.5q0 -283 -13 -300q-17 -22 -45 -22q-23 0 -36.5 10.5t-14.5 43.5q-2 49 -2.5 290t3.5 267q10 30 41 30q18 0 34.5 -10.5t24.5 -29.5zM-10 656q-27 13 -25.5 46t27.5 80q12 22 36 41.5t54 22.5q50 6 90 -64
q26 -46 27 -73t-25 -43q-21 -13 -45 10.5t-44 66.5q-53 -104 -95 -87z" />
    <glyph glyph-name="Idieresis" unicode="&#xcf;" horiz-adv-x="172" 
d="M134 601q9 -25 9 -109q0 -25 -0.5 -67.5t-0.5 -102.5q0 -283 -13 -300q-17 -22 -45 -22q-23 0 -36.5 10.5t-14.5 43.5q-2 49 -2.5 290t3.5 267q10 30 41 30q18 0 34.5 -10.5t24.5 -29.5zM107 728q-2 31 19.5 49t53.5 18q36 0 54 -20t15 -50q-3 -33 -20 -48t-52 -18
q-33 -3 -49.5 11.5t-20.5 57.5zM-70 725q-2 31 18.5 50t51.5 20t49 -19t20 -51q2 -32 -16.5 -49.5t-52.5 -19.5t-50.5 14.5t-19.5 54.5z" />
    <glyph glyph-name="Eth" unicode="&#xd0;" horiz-adv-x="518" 
d="M196 91q68 7 114 50q73 68 73 212q0 105 -31.5 152t-90.5 47q-25 0 -49 -14l-10 -6q2 -41 -2 -121q0 -14 -1 -32q4 0 12 1q11 2 13 2.5t11 1.5t11.5 1t10 0.5t10.5 0t9.5 -0.5t10.5 -1t9.5 -2.5t10.5 -3.5q18 -7 25.5 -24t3.5 -34t-18 -25q-11 -6 -20 -10.5t-23 -7.5
t-21.5 -4t-30.5 -4q-14 -2 -25 -3q0 -83 -1 -138q0 -23 -1 -37zM493 351q0 -99 -21.5 -157.5t-70.5 -110.5q-40 -42 -97.5 -67.5t-109.5 -25.5q-43 0 -66 12q-8 3 -14 10q-15 16 -15 41v201h-5l-18 2q-27 4 -38 21.5t-6 36t21 26.5q24 13 47 21q2 61 4 102q-10 1 -20 3
q-17 5 -32.5 20t-14.5 38t17 44.5t32 31.5l15 10q10 5 27 13t65 21.5t90 13.5q94 0 152 -80t58 -227z" />
    <glyph glyph-name="Ntilde" unicode="&#xd1;" horiz-adv-x="488" 
d="M253 768q22 -15 62 3q26 13 44.5 7.5t28.5 -19t7 -33.5t-19 -35q-29 -27 -75.5 -29t-80.5 18q-18 9 -29 8t-33 -11q-26 -12 -44 -6t-27 19.5t-4.5 33t23.5 33.5q36 29 78 30t69 -19zM82 635q32 4 68 -43t104 -187q12 -25 35.5 -77.5t41.5 -92.5l17 -40q6 364 6 404
q0 31 23.5 41.5t47.5 -16.5q8 -9 14 -22.5t9.5 -29.5t6 -35.5t3 -40.5t0.5 -45v-49v-52q1 -138 -7.5 -215.5t-25 -106t-45.5 -28.5q-15 0 -31 11t-28 25t-26.5 39.5t-22.5 42t-21 44.5l-114 245q3 -86 -8 -257q-9 -150 -56 -150q-24 0 -34 33.5t-9 126.5q2 71 3 183
q2 184 9 236t40 56z" />
    <glyph glyph-name="Ograve" unicode="&#xd2;" horiz-adv-x="516" 
d="M330 672q-7 -17 -26.5 -22.5t-48.5 4t-60 34.5q-12 11 -23 24t-19 29t-4 33t22 29q37 25 103 -40q6 -7 15.5 -15.5t15 -14t12 -12.5t9.5 -12t5.5 -11.5t2 -12.5t-3.5 -13zM271 531q-62 -10 -100 -78t-39 -181q-1 -98 30.5 -141t91.5 -34q56 9 93 82t36 197q-1 85 -30 124
t-82 31zM267 638q31 3 60.5 -2t60 -21.5t53 -43.5t36.5 -74t14 -108q0 -190 -68 -290t-179 -109q-109 -8 -165 69t-54 227q2 78 25.5 145t59 110t76.5 68t81 29z" />
    <glyph glyph-name="Oacute" unicode="&#xd3;" horiz-adv-x="516" 
d="M244 672q-3 7 -3.5 13t2 12.5t6 11.5t10 12t12 12.5t14.5 14t16 15.5q65 65 102 40q19 -12 23 -29t-4.5 -33t-19 -29t-23.5 -24q-30 -25 -59 -34.5t-48.5 -4t-27.5 22.5zM271 531q-62 -10 -100 -78t-39 -181q-1 -98 30.5 -141t91.5 -34q56 9 93 82t36 197q-1 85 -30 124
t-82 31zM267 638q31 3 60.5 -2t60 -21.5t53 -43.5t36.5 -74t14 -108q0 -190 -68 -290t-179 -109q-109 -8 -165 69t-54 227q2 78 25.5 145t59 110t76.5 68t81 29z" />
    <glyph glyph-name="Ocircumflex" unicode="&#xd4;" horiz-adv-x="516" 
d="M193 646q-27 13 -25.5 46t27.5 80q12 22 36 41.5t54 22.5q50 6 90 -64q26 -46 27 -73t-25 -43q-21 -13 -45 10.5t-44 66.5q-53 -104 -95 -87zM271 531q-62 -10 -100 -78t-39 -181q-1 -98 30.5 -141t91.5 -34q56 9 93 82t36 197q-1 85 -30 124t-82 31zM267 638
q31 3 60.5 -2t60 -21.5t53 -43.5t36.5 -74t14 -108q0 -190 -68 -290t-179 -109q-109 -8 -165 69t-54 227q2 78 25.5 145t59 110t76.5 68t81 29z" />
    <glyph glyph-name="Otilde" unicode="&#xd5;" horiz-adv-x="516" 
d="M299 771q22 -15 62 3q26 13 44.5 7.5t28.5 -19t7 -33.5t-19 -35q-29 -27 -75.5 -29t-80.5 18q-18 9 -29 8t-33 -11q-26 -12 -44 -6t-27 19.5t-4.5 33t23.5 33.5q36 29 78 30t69 -19zM271 531q-62 -10 -100 -78t-39 -181q-1 -98 30.5 -141t91.5 -34q56 9 93 82t36 197
q-1 85 -30 124t-82 31zM267 638q31 3 60.5 -2t60 -21.5t53 -43.5t36.5 -74t14 -108q0 -190 -68 -290t-179 -109q-109 -8 -165 69t-54 227q2 78 25.5 145t59 110t76.5 68t81 29z" />
    <glyph glyph-name="Odieresis" unicode="&#xd6;" horiz-adv-x="516" 
d="M310 718q-2 31 19.5 49t52.5 18q37 0 55 -20t15 -50q-3 -33 -20 -48t-53 -18q-32 -3 -49 11.5t-20 57.5zM133 715q-2 31 18.5 50t50.5 20q32 1 50 -19t20 -51q2 -32 -16.5 -49.5t-53.5 -19.5q-33 -2 -49.5 14.5t-19.5 54.5zM271 531q-62 -10 -100 -78t-39 -181
q-1 -98 30.5 -141t91.5 -34q56 9 93 82t36 197q-1 85 -30 124t-82 31zM267 638q31 3 60.5 -2t60 -21.5t53 -43.5t36.5 -74t14 -108q0 -190 -68 -290t-179 -109q-109 -8 -165 69t-54 227q2 78 25.5 145t59 110t76.5 68t81 29z" />
    <glyph glyph-name="multiply" unicode="&#xd7;" horiz-adv-x="355" 
d="M310 238q19 -29 12.5 -52.5t-29.5 -36.5q-8 -4 -17.5 -4.5t-21 4t-21 9t-22.5 15t-21 16.5t-21 19q-32 -34 -60 -59q-24 -18 -43.5 -16t-33.5 16q-29 30 -6 76q12 24 56 73q-44 49 -56 73q-23 46 6 76q14 14 33.5 16t43.5 -16q27 -25 60 -59v0q13 13 21 19t21 16.5
t22.5 15.5t21 9.5t21 4t17.5 -5.5q23 -12 29.5 -36t-12.5 -52q-14 -17 -44 -47q-7 -8 -12 -14q5 -6 12 -13q30 -30 44 -47z" />
    <glyph glyph-name="Oslash" unicode="&#xd8;" horiz-adv-x="516" 
d="M188 107q27 -16 66 -10q56 9 93 82t36 197q0 40 -7 69q-8 -14 -16 -31q-63 -116 -77 -144q-30 -57 -83 -144q-6 -10 -12 -19zM271 531q-62 -10 -100 -78t-39 -181q0 -42 5 -74q18 31 39 68q47 83 67 119q5 9 16 29q21 39 33 60q12 20 30 52q-22 9 -51 5zM267 638
q31 3 61 -2q27 -5 54 -19q6 8 12 15q18 22 32 29t24 2q15 -9 11 -33q-3 -21 -21 -59v0q23 -27 37 -74t14 -108q0 -190 -68 -290t-179 -109q-69 -5 -117 24q-3 -4 -5 -7q-47 -63 -74 -43q-6 4 -7.5 12.5t2 22t7.5 26.5t12 33q3 6 7 16q-46 76 -44 212q2 78 25.5 145t59 110
t76.5 68t81 29z" />
    <glyph glyph-name="Ugrave" unicode="&#xd9;" horiz-adv-x="502" 
d="M305 686q-7 -17 -26.5 -22.5t-48.5 4t-60 34.5q-12 11 -23 24t-19 29t-4 33t22 29q37 25 103 -40q6 -7 15.5 -15.5t15 -14t12 -12.5t9.5 -12t5.5 -11.5t2 -12.5t-3.5 -13zM56 591q2 23 18 34t32 11q7 0 14.5 -2t18 -8.5t16 -23t3.5 -40.5q-12 -162 -30 -332
q-8 -72 20 -105t77 -27q56 7 85 35.5t42 94t13 188.5q0 106 -4 150q-4 48 10.5 63t38.5 15q56 0 62 -130q14 -263 -45 -397q-48 -111 -201 -127q-52 -6 -94 14t-66 56t-34.5 82.5t-4.5 93.5q15 105 29 355z" />
    <glyph glyph-name="Uacute" unicode="&#xda;" horiz-adv-x="502" 
d="M219 686q-3 7 -3.5 13t2 12.5t6 11.5t10 12t12 12.5t14.5 14t16 15.5q65 65 102 40q19 -12 23 -29t-4.5 -33t-19 -29t-23.5 -24q-30 -25 -59 -34.5t-48.5 -4t-27.5 22.5zM56 591q2 23 18 34t32 11q7 0 14.5 -2t18 -8.5t16 -23t3.5 -40.5q-12 -162 -30 -332
q-8 -72 20 -105t77 -27q56 7 85 35.5t42 94t13 188.5q0 106 -4 150q-4 48 10.5 63t38.5 15q56 0 62 -130q14 -263 -45 -397q-48 -111 -201 -127q-52 -6 -94 14t-66 56t-34.5 82.5t-4.5 93.5q15 105 29 355z" />
    <glyph glyph-name="Ucircumflex" unicode="&#xdb;" horiz-adv-x="502" 
d="M168 660q-27 13 -25.5 46t27.5 80q12 22 36 41.5t54 22.5q50 6 90 -64q26 -46 27 -73t-25 -43q-21 -13 -45 10.5t-44 66.5q-53 -104 -95 -87zM56 591q2 23 18 34t32 11q7 0 14.5 -2t18 -8.5t16 -23t3.5 -40.5q-12 -162 -30 -332q-8 -72 20 -105t77 -27q56 7 85 35.5
t42 94t13 188.5q0 106 -4 150q-4 48 10.5 63t38.5 15q56 0 62 -130q14 -263 -45 -397q-48 -111 -201 -127q-52 -6 -94 14t-66 56t-34.5 82.5t-4.5 93.5q15 105 29 355z" />
    <glyph glyph-name="Udieresis" unicode="&#xdc;" horiz-adv-x="502" 
d="M285 732q-2 31 19.5 49t52.5 18q37 0 55 -20t15 -50q-3 -33 -20 -48t-53 -18q-32 -3 -49 11.5t-20 57.5zM108 729q-2 31 18.5 50t50.5 20q32 1 50 -19t20 -51q2 -32 -16.5 -49.5t-53.5 -19.5q-33 -2 -49.5 14.5t-19.5 54.5zM56 591q2 23 18 34t32 11q7 0 14.5 -2t18 -8.5
t16 -23t3.5 -40.5q-12 -162 -30 -332q-8 -72 20 -105t77 -27q56 7 85 35.5t42 94t13 188.5q0 106 -4 150q-4 48 10.5 63t38.5 15q56 0 62 -130q14 -263 -45 -397q-48 -111 -201 -127q-52 -6 -94 14t-66 56t-34.5 82.5t-4.5 93.5q15 105 29 355z" />
    <glyph glyph-name="Yacute" unicode="&#xdd;" horiz-adv-x="453" 
d="M196 667q-3 7 -3.5 13t2 12.5t6 11.5t10 12t12 12.5t14.5 14t16 15.5q65 65 102 40q19 -12 23 -29t-4.5 -33t-19 -29t-23.5 -24q-30 -25 -59 -34.5t-48.5 -4t-27.5 22.5zM408 461q-25 -44 -113 -187q-49 -80 -112.5 -158.5t-93.5 -101.5q-54 -40 -82 -3q-11 14 -8.5 31
t21.5 46q7 11 58 78q38 51 78 106l-1 1q-109 145 -148 256q-28 81 22 102q16 5 31 4.5t29.5 -13.5t23.5 -37q35 -90 107 -220q27 41 43 71q3 5 10 19q8 16 12.5 24.5t14 26t16.5 29t17.5 28t18.5 27t18.5 23t19.5 19t18.5 11t18.5 4t17 -6.5q16 -11 18.5 -32t-8 -49.5
t-20.5 -48.5t-26 -49z" />
    <glyph glyph-name="Thorn" unicode="&#xde;" horiz-adv-x="477" 
d="M141 180q18 5 38 12q25 9 49 23q50 30 79 64.5t29 93.5q0 43 -23 66t-59 23q-31 0 -59 -15q-27 -14 -53 -29v-96q0 -82 -1 -142zM138 84q-3 -55 -9 -62q-17 -22 -45 -22q-23 0 -36.5 10.5t-14.5 43.5q-2 49 -2.5 288t3.5 265q10 30 41 30q18 0 34.5 -10.5t24.5 -29.5
q6 -16 8 -55q13 6 27 9.5t31 7.5t36.5 6.5t39.5 2.5q72 1 124 -47t52 -128q0 -156 -132 -245q-50 -33 -125 -54q-34 -9 -57 -10z" />
    <glyph glyph-name="germandbls" unicode="&#xdf;" horiz-adv-x="474" 
d="M263 305q-55 9 -52 54q1 17 13 33q12 13 33 12q14 11 27 34q22 36 20 79q-1 32 -20.5 53t-51.5 15q-39 -7 -62.5 -54t-26.5 -127q-2 -49 -8 -193q-5 -119 -16 -156q-6 -24 -20.5 -39.5t-32.5 -15.5t-29.5 13t-11.5 37q0 22 5.5 149t6.5 210q2 62 20.5 115.5t47 88
t61.5 54.5t65 23q31 3 60.5 -3.5t57 -24t44.5 -51.5t17 -80q0 -43 -13 -80t-33 -61q-5 -5 -9 -10q16 -7 28 -16q20 -14 34 -34t21 -36.5t11 -38.5t5 -35t1 -31q0 -90 -45.5 -143.5t-126.5 -53.5q-35 0 -83 20q-57 24 -47 70q10 49 66 30q37 -16 56 -16q66 0 66 94
q0 25 -5.5 46.5t-24 42.5t-48.5 26z" />
    <glyph glyph-name="agrave" unicode="&#xe0;" horiz-adv-x="445" 
d="M279 544q-7 -17 -26.5 -22.5t-48.5 4t-60 34.5q-12 11 -23 24t-19 29t-4 33t22 29q37 25 103 -40q6 -7 15.5 -15.5t15 -14t12 -12.5t9.5 -12t5.5 -11.5t2 -12.5t-3.5 -13zM228 395q-41 -7 -64.5 -50t-24.5 -121q-1 -68 19 -98t59 -24q36 6 59.5 57t22.5 138
q0 58 -18.5 81t-52.5 17zM219 500q32 3 57 -3q18 -4 34 -14q4 12 18 21q15 9 29 9q15 0 30.5 -11t20.5 -31q8 -25 8 -113q0 -26 -0.5 -70.5t-0.5 -106.5q0 -85 -2 -115.5t-8 -41.5q-14 -24 -41 -24q-48 0 -55 46q-42 -49 -108 -54q-88 -7 -133 55t-43 182q2 62 20.5 114
t47 84.5t61.5 51t65 21.5z" />
    <glyph glyph-name="aacute" unicode="&#xe1;" horiz-adv-x="445" 
d="M193 544q-3 7 -3.5 13t2 12.5t6 11.5t10 12t12 12.5t14.5 14t16 15.5q65 65 102 40q19 -12 23 -29t-4.5 -33t-19 -29t-23.5 -24q-30 -25 -59 -34.5t-48.5 -4t-27.5 22.5zM228 395q-41 -7 -64.5 -50t-24.5 -121q-1 -68 19 -98t59 -24q36 6 59.5 57t22.5 138q0 58 -18.5 81
t-52.5 17zM219 500q32 3 57 -3q18 -4 34 -14q4 12 18 21q15 9 29 9q15 0 30.5 -11t20.5 -31q8 -25 8 -113q0 -26 -0.5 -70.5t-0.5 -106.5q0 -85 -2 -115.5t-8 -41.5q-14 -24 -41 -24q-48 0 -55 46q-42 -49 -108 -54q-88 -7 -133 55t-43 182q2 62 20.5 114t47 84.5t61.5 51
t65 21.5z" />
    <glyph glyph-name="acircumflex" unicode="&#xe2;" horiz-adv-x="445" 
d="M142 518q-27 13 -25.5 46t27.5 80q12 22 36 41.5t54 22.5q50 6 90 -64q26 -46 27 -73t-25 -43q-21 -13 -45 10.5t-44 66.5q-53 -104 -95 -87zM228 395q-41 -7 -64.5 -50t-24.5 -121q-1 -68 19 -98t59 -24q36 6 59.5 57t22.5 138q0 58 -18.5 81t-52.5 17zM219 500
q32 3 57 -3q18 -4 34 -14q4 12 18 21q15 9 29 9q15 0 30.5 -11t20.5 -31q8 -25 8 -113q0 -26 -0.5 -70.5t-0.5 -106.5q0 -85 -2 -115.5t-8 -41.5q-14 -24 -41 -24q-48 0 -55 46q-42 -49 -108 -54q-88 -7 -133 55t-43 182q2 62 20.5 114t47 84.5t61.5 51t65 21.5z" />
    <glyph glyph-name="atilde" unicode="&#xe3;" horiz-adv-x="445" 
d="M248 643q22 -15 62 3q26 13 44.5 7.5t28.5 -19t7 -33.5t-19 -35q-29 -27 -75.5 -29t-80.5 18q-18 9 -29 8t-33 -11q-26 -12 -44 -6t-27 19.5t-4.5 33t23.5 33.5q36 29 78 30t69 -19zM228 395q-41 -7 -64.5 -50t-24.5 -121q-1 -68 19 -98t59 -24q36 6 59.5 57t22.5 138
q0 58 -18.5 81t-52.5 17zM219 500q32 3 57 -3q18 -4 34 -14q4 12 18 21q15 9 29 9q15 0 30.5 -11t20.5 -31q8 -25 8 -113q0 -26 -0.5 -70.5t-0.5 -106.5q0 -85 -2 -115.5t-8 -41.5q-14 -24 -41 -24q-48 0 -55 46q-42 -49 -108 -54q-88 -7 -133 55t-43 182q2 62 20.5 114
t47 84.5t61.5 51t65 21.5z" />
    <glyph glyph-name="adieresis" unicode="&#xe4;" horiz-adv-x="445" 
d="M259 590q-2 31 19.5 49t52.5 18q37 0 55 -20t15 -50q-3 -33 -20 -48t-53 -18q-32 -3 -49 11.5t-20 57.5zM82 587q-2 31 18.5 50t50.5 20q32 1 50 -19t20 -51q2 -32 -16.5 -49.5t-53.5 -19.5q-33 -2 -49.5 14.5t-19.5 54.5zM228 395q-41 -7 -64.5 -50t-24.5 -121
q-1 -68 19 -98t59 -24q36 6 59.5 57t22.5 138q0 58 -18.5 81t-52.5 17zM219 500q32 3 57 -3q18 -4 34 -14q4 12 18 21q15 9 29 9q15 0 30.5 -11t20.5 -31q8 -25 8 -113q0 -26 -0.5 -70.5t-0.5 -106.5q0 -85 -2 -115.5t-8 -41.5q-14 -24 -41 -24q-48 0 -55 46
q-42 -49 -108 -54q-88 -7 -133 55t-43 182q2 62 20.5 114t47 84.5t61.5 51t65 21.5z" />
    <glyph glyph-name="aring" unicode="&#xe5;" horiz-adv-x="445" 
d="M240 631q-21 -3 -22 -22q0 -18 19 -15q19 2 19 23q0 16 -16 14zM242 704q35 2 60.5 -15.5t25.5 -62.5q0 -102 -91 -105q-47 -2 -70 23.5t-22 62.5q2 46 31.5 70.5t65.5 26.5zM228 395q-41 -7 -64.5 -50t-24.5 -121q-1 -68 19 -98t59 -24q36 6 59.5 57t22.5 138
q0 58 -18.5 81t-52.5 17zM219 500q32 3 57 -3q18 -4 34 -14q4 12 18 21q15 9 29 9q15 0 30.5 -11t20.5 -31q8 -25 8 -113q0 -26 -0.5 -70.5t-0.5 -106.5q0 -85 -2 -115.5t-8 -41.5q-14 -24 -41 -24q-48 0 -55 46q-42 -49 -108 -54q-88 -7 -133 55t-43 182q2 62 20.5 114
t47 84.5t61.5 51t65 21.5z" />
    <glyph glyph-name="ae" unicode="&#xe6;" horiz-adv-x="624" 
d="M366 290q7 1 16 2q37 2 56 4q11 1 24.5 3t21.5 3l7 2q1 2 2 5.5t1.5 15t0.5 23.5q-3 42 -17.5 57t-35.5 12q-20 -2 -38 -19t-26 -48q-6 -22 -8 -32q-2 -9 -4 -28zM248 198q-14 0 -32 2q-23 1 -34 1q-33 0 -50.5 -11.5t-17.5 -45.5q0 -25 13.5 -39.5t35.5 -14.5
q32 0 55 12q16 8 25 16q1 21 3 48zM601 349q0 -60 -16 -91.5t-55 -43.5q-41 -12 -122 -16q-26 -2 -46 -3q4 -101 68 -101q47 0 95 34q26 19 47 14t23 -26.5t-17 -51.5q-55 -79 -163 -72q-30 2 -57 14q-17 7 -32 18q-7 -9 -16 -14q-18 -10 -36 -10q-30 0 -39 28
q-17 -11 -37 -18q-27 -10 -52 -10q-129 0 -129 141q0 145 142 151q47 2 89 -7v13q-2 54 -17 74.5t-39 23.5q-29 3 -61 -10t-44 -13q-26 0 -39.5 16.5t-9.5 41.5q6 29 52.5 58t103.5 22q46 -5 78 -22q26 -14 47 -44q50 73 130 73q27 0 52.5 -9t48.5 -28t37 -53.5t14 -78.5z
" />
    <glyph glyph-name="ccedilla" unicode="&#xe7;" horiz-adv-x="391" 
d="M270 342q3 68 -20 73q-41 9 -71 -51q-38 -75 -43 -157q-3 -54 11.5 -81t52.5 -27q47 0 95 34q26 19 47 13t23 -29t-17 -53q-41 -59 -111 -70q2 -12 -1 -24q-4 -15 -14 -37q-29 -63 -79 -99.5t-78 -12.5q-10 9 -11 23t7 33.5t16.5 35t23 39.5t20.5 35q5 9 11 17l-4 2
q-27 11 -51.5 33.5t-38.5 62t-13 92.5q3 130 69 226q68 98 155 98q50 0 79 -33t30 -90q1 -26 -4.5 -45.5t-14 -28.5t-16.5 -13t-14 -4q-20 0 -30 8.5t-9 29.5z" />
    <glyph glyph-name="egrave" unicode="&#xe8;" horiz-adv-x="394" 
d="M264 546q-7 -17 -26.5 -22.5t-48.5 4t-60 34.5q-12 11 -23 24t-19 29t-4 33t22 29q37 25 103 -40q6 -7 15.5 -15.5t15 -14t12 -12.5t9.5 -12t5.5 -11.5t2 -12.5t-3.5 -13zM136 290q7 1 16 2q37 2 56 4q28 3 53 8q4 14 4 44q-1 36 -16.5 49.5t-36.5 10.5q-19 -2 -38.5 -24
t-27.5 -54q-1 -2 -3.5 -10.5t-4.5 -15.5q-1 -5 -2 -14zM371 349q0 -62 -13.5 -93t-52.5 -42q-41 -12 -124 -16q-28 -2 -49 -3q4 -101 68 -101q47 0 95 34q26 19 47 14t23 -26.5t-17 -51.5q-55 -79 -163 -72q-30 2 -57 13.5t-51.5 34t-38.5 62t-13 92.5q3 114 38 190
q52 111 156 125q27 4 53 -3.5t48.5 -26t36.5 -52.5t14 -78z" />
    <glyph glyph-name="eacute" unicode="&#xe9;" horiz-adv-x="394" 
d="M178 546q-3 7 -3.5 13t2 12.5t6 11.5t10 12t12 12.5t14.5 14t16 15.5q65 65 102 40q19 -12 23 -29t-4.5 -33t-19 -29t-23.5 -24q-30 -25 -59 -34.5t-48.5 -4t-27.5 22.5zM136 290q7 1 16 2q37 2 56 4q28 3 53 8q4 14 4 44q-1 36 -16.5 49.5t-36.5 10.5q-19 -2 -38.5 -24
t-27.5 -54q-1 -2 -3.5 -10.5t-4.5 -15.5q-1 -5 -2 -14zM371 349q0 -62 -13.5 -93t-52.5 -42q-41 -12 -124 -16q-28 -2 -49 -3q4 -101 68 -101q47 0 95 34q26 19 47 14t23 -26.5t-17 -51.5q-55 -79 -163 -72q-30 2 -57 13.5t-51.5 34t-38.5 62t-13 92.5q3 114 38 190
q52 111 156 125q27 4 53 -3.5t48.5 -26t36.5 -52.5t14 -78z" />
    <glyph glyph-name="ecircumflex" unicode="&#xea;" horiz-adv-x="394" 
d="M127 520q-27 13 -25.5 46t27.5 80q12 22 36 41.5t54 22.5q50 6 90 -64q26 -46 27 -73t-25 -43q-21 -13 -45 10.5t-44 66.5q-53 -104 -95 -87zM136 290q7 1 16 2q37 2 56 4q28 3 53 8q4 14 4 44q-1 36 -16.5 49.5t-36.5 10.5q-19 -2 -38.5 -24t-27.5 -54q-1 -2 -3.5 -10.5
t-4.5 -15.5q-1 -5 -2 -14zM371 349q0 -62 -13.5 -93t-52.5 -42q-41 -12 -124 -16q-28 -2 -49 -3q4 -101 68 -101q47 0 95 34q26 19 47 14t23 -26.5t-17 -51.5q-55 -79 -163 -72q-30 2 -57 13.5t-51.5 34t-38.5 62t-13 92.5q3 114 38 190q52 111 156 125q27 4 53 -3.5
t48.5 -26t36.5 -52.5t14 -78z" />
    <glyph glyph-name="edieresis" unicode="&#xeb;" horiz-adv-x="394" 
d="M244 592q-2 31 19.5 49t52.5 18q37 0 55 -20t15 -50q-3 -33 -20 -48t-53 -18q-32 -3 -49 11.5t-20 57.5zM67 589q-2 31 18.5 50t50.5 20q32 1 50 -19t20 -51q2 -32 -16.5 -49.5t-53.5 -19.5q-33 -2 -49.5 14.5t-19.5 54.5zM136 290q7 1 16 2q37 2 56 4q28 3 53 8
q4 14 4 44q-1 36 -16.5 49.5t-36.5 10.5q-19 -2 -38.5 -24t-27.5 -54q-1 -2 -3.5 -10.5t-4.5 -15.5q-1 -5 -2 -14zM371 349q0 -62 -13.5 -93t-52.5 -42q-41 -12 -124 -16q-28 -2 -49 -3q4 -101 68 -101q47 0 95 34q26 19 47 14t23 -26.5t-17 -51.5q-55 -79 -163 -72
q-30 2 -57 13.5t-51.5 34t-38.5 62t-13 92.5q3 114 38 190q52 111 156 125q27 4 53 -3.5t48.5 -26t36.5 -52.5t14 -78z" />
    <glyph glyph-name="igrave" unicode="&#xec;" horiz-adv-x="204" 
d="M136 548q-7 -17 -26.5 -22.5t-48.5 4t-60 34.5q-12 11 -23 24t-19 29t-4 33t22 29q37 25 103 -40q6 -7 15.5 -15.5t15 -14t12 -12.5t9.5 -12t5.5 -11.5t2 -12.5t-3.5 -13zM155 471q7 -25 7 -113v-70.5v-106.5q0 -85 -2 -115.5t-8 -41t-21 -17.5t-30 -7q-54 0 -56 59
q-1 53 -1.5 224t3.5 199q3 13 18 22t29 9q16 0 36 -11t25 -31z" />
    <glyph glyph-name="iacute" unicode="&#xed;" horiz-adv-x="204" 
d="M50 548q-3 7 -3.5 13t2 12.5t6 11.5t10 12t12 12.5t14.5 14t16 15.5q65 65 102 40q19 -12 23 -29t-4.5 -33t-19 -29t-23.5 -24q-30 -25 -59 -34.5t-48.5 -4t-27.5 22.5zM155 471q7 -25 7 -113v-70.5v-106.5q0 -85 -2 -115.5t-8 -41t-21 -17.5t-30 -7q-54 0 -56 59
q-1 53 -1.5 224t3.5 199q3 13 18 22t29 9q16 0 36 -11t25 -31z" />
    <glyph glyph-name="icircumflex" unicode="&#xee;" horiz-adv-x="204" 
d="M-1 522q-27 13 -25.5 46t27.5 80q12 22 36 41.5t54 22.5q50 6 90 -64q26 -46 27 -73t-25 -43q-21 -13 -45 10.5t-44 66.5q-53 -104 -95 -87zM155 471q7 -25 7 -113v-70.5v-106.5q0 -85 -2 -115.5t-8 -41t-21 -17.5t-30 -7q-54 0 -56 59q-1 53 -1.5 224t3.5 199
q3 13 18 22t29 9q16 0 36 -11t25 -31z" />
    <glyph glyph-name="idieresis" unicode="&#xef;" horiz-adv-x="204" 
d="M116 594q-2 31 19.5 49t52.5 18q37 0 55 -20t15 -50q-3 -33 -20 -48t-53 -18q-32 -3 -49 11.5t-20 57.5zM-61 591q-2 31 18.5 50t50.5 20q32 1 50 -19t20 -51q2 -32 -16.5 -49.5t-53.5 -19.5q-33 -2 -49.5 14.5t-19.5 54.5zM155 471q7 -25 7 -113v-70.5v-106.5
q0 -85 -2 -115.5t-8 -41t-21 -17.5t-30 -7q-54 0 -56 59q-1 53 -1.5 224t3.5 199q3 13 18 22t29 9q16 0 36 -11t25 -31z" />
    <glyph glyph-name="eth" unicode="&#xf0;" 
d="M220 405q-40 -7 -64 -54.5t-25 -126.5q-1 -69 19.5 -99t58.5 -23q36 6 60 57t23 138q-1 59 -19.5 86.5t-52.5 21.5zM189 510q25 3 43 -0.5t30 -13.5q4 -3 7 -6q-2 7 -5 13q-9 20 -19 40q-4 0 -7 -1q-21 -4 -32 -6t-32.5 -3t-34.5 2q-27 5 -38 22.5t-6 35.5t21 26
q34 18 93 31q1 9 4 16q10 20 34 24q25 3 52 -22l2 -2q51 6 72 1q9 -2 17 -5q27 -10 30 -40.5t-19 -42.5q-11 -6 -20 -11q-8 -3 -20 -6q13 -39 23 -90q14 -75 14 -161q0 -152 -54.5 -232t-142.5 -87t-133 55t-43 182q3 125 50.5 200t113.5 81z" />
    <glyph glyph-name="ntilde" unicode="&#xf1;" horiz-adv-x="434" 
d="M234 650q22 -15 62 3q26 13 44.5 7.5t28.5 -19t7 -33.5t-19 -35q-29 -27 -75.5 -29t-80.5 18q-18 9 -29 8t-33 -11q-26 -12 -44 -6t-27 19.5t-4.5 33t23.5 33.5q36 29 78 30t69 -19zM242 519q48 8 79.5 -10.5t55.5 -66.5q15 -30 22.5 -69t8 -95t-0.5 -83t-4 -91
q-2 -32 -10 -54t-20 -32t-21.5 -14t-18.5 -4t-15.5 2t-13.5 7.5t-10 19t-1 34.5q3 35 3 130q0 44 -0.5 71t-2.5 56.5t-6 45t-10.5 29t-16.5 17t-25 0.5q-45 -10 -73 -68q-17 -33 -24 -81v-82q0 -81 -2 -112q1 -4 1 -6q0 -22 -4.5 -36t-13.5 -19t-15 -6.5t-17 -1.5
q-53 0 -55 59q-2 53 -2 224t3 199q3 13 18 22t29 9q17 0 36.5 -11t25.5 -31q1 -3 1 -6q5 4 9 9q44 37 90 45z" />
    <glyph glyph-name="ograve" unicode="&#xf2;" 
d="M273 546q-7 -17 -26.5 -22.5t-48.5 4t-60 34.5q-12 11 -23 24t-19 29t-4 33t22 29q37 25 103 -40q6 -7 15.5 -15.5t15 -14t12 -12.5t9.5 -12t5.5 -11.5t2 -12.5t-3.5 -13zM220 405q-39 -7 -61 -54t-23 -127q-1 -70 17 -99.5t56 -22.5q36 6 57.5 56.5t20.5 138.5
q-1 60 -17 87t-50 21zM219 510q25 3 48.5 -1t47.5 -17t42 -35t29.5 -59.5t11.5 -86.5q0 -152 -54.5 -232t-142.5 -87t-133 55t-43 182q2 62 20.5 115.5t47 88t61.5 54.5t65 23z" />
    <glyph glyph-name="oacute" unicode="&#xf3;" 
d="M187 546q-3 7 -3.5 13t2 12.5t6 11.5t10 12t12 12.5t14.5 14t16 15.5q65 65 102 40q19 -12 23 -29t-4.5 -33t-19 -29t-23.5 -24q-30 -25 -59 -34.5t-48.5 -4t-27.5 22.5zM220 405q-39 -7 -61 -54t-23 -127q-1 -70 17 -99.5t56 -22.5q36 6 57.5 56.5t20.5 138.5
q-1 60 -17 87t-50 21zM219 510q25 3 48.5 -1t47.5 -17t42 -35t29.5 -59.5t11.5 -86.5q0 -152 -54.5 -232t-142.5 -87t-133 55t-43 182q2 62 20.5 115.5t47 88t61.5 54.5t65 23z" />
    <glyph glyph-name="ocircumflex" unicode="&#xf4;" 
d="M136 520q-27 13 -25.5 46t27.5 80q12 22 36 41.5t54 22.5q50 6 90 -64q26 -46 27 -73t-25 -43q-21 -13 -45 10.5t-44 66.5q-53 -104 -95 -87zM220 405q-39 -7 -61 -54t-23 -127q-1 -70 17 -99.5t56 -22.5q36 6 57.5 56.5t20.5 138.5q-1 60 -17 87t-50 21zM219 510
q25 3 48.5 -1t47.5 -17t42 -35t29.5 -59.5t11.5 -86.5q0 -152 -54.5 -232t-142.5 -87t-133 55t-43 182q2 62 20.5 115.5t47 88t61.5 54.5t65 23z" />
    <glyph glyph-name="otilde" unicode="&#xf5;" 
d="M242 645q22 -15 62 3q26 13 44.5 7.5t28.5 -19t7 -33.5t-19 -35q-29 -27 -75.5 -29t-80.5 18q-18 9 -29 8t-33 -11q-26 -12 -44 -6t-27 19.5t-4.5 33t23.5 33.5q36 29 78 30t69 -19zM220 405q-39 -7 -61 -54t-23 -127q-1 -70 17 -99.5t56 -22.5q36 6 57.5 56.5
t20.5 138.5q-1 60 -17 87t-50 21zM219 510q25 3 48.5 -1t47.5 -17t42 -35t29.5 -59.5t11.5 -86.5q0 -152 -54.5 -232t-142.5 -87t-133 55t-43 182q2 62 20.5 115.5t47 88t61.5 54.5t65 23z" />
    <glyph glyph-name="odieresis" unicode="&#xf6;" 
d="M253 592q-2 31 19.5 49t52.5 18q37 0 55 -20t15 -50q-3 -33 -20 -48t-53 -18q-32 -3 -49 11.5t-20 57.5zM76 589q-2 31 18.5 50t50.5 20q32 1 50 -19t20 -51q2 -32 -16.5 -49.5t-53.5 -19.5q-33 -2 -49.5 14.5t-19.5 54.5zM220 405q-39 -7 -61 -54t-23 -127
q-1 -70 17 -99.5t56 -22.5q36 6 57.5 56.5t20.5 138.5q-1 60 -17 87t-50 21zM219 510q25 3 48.5 -1t47.5 -17t42 -35t29.5 -59.5t11.5 -86.5q0 -152 -54.5 -232t-142.5 -87t-133 55t-43 182q2 62 20.5 115.5t47 88t61.5 54.5t65 23z" />
    <glyph glyph-name="divide" unicode="&#xf7;" horiz-adv-x="427" 
d="M125 420q-1 21 16 34.5t45 16.5q30 3 49.5 -8.5t19.5 -31.5q-1 -22 -12.5 -34.5t-39.5 -16.5q-76 -10 -78 40zM138 180q-3 22 17 36t50 14q31 1 48 -13t18 -37q1 -20 -15 -34.5t-51 -15.5q-59 -1 -67 50zM218 364q2 0 13 1.5t13 2t11 1.5t11.5 1t10 0.5t10.5 0t9.5 -0.5
t10.5 -1t9.5 -2.5t10.5 -3.5q18 -7 25.5 -24t3.5 -34t-18 -25q-11 -6 -20 -10.5t-23 -7.5t-21.5 -4t-30.5 -4t-36 -5q-12 -2 -32.5 -6t-31.5 -6t-32 -3t-35 2q-27 5 -38 22.5t-6 35.5t21 26q52 28 165 44z" />
    <glyph glyph-name="oslash" unicode="&#xf8;" 
d="M167 108q18 -11 42 -6q36 6 60 57t23 138q0 26 -4 46q-1 -2 -2 -5l-57 -114q-22 -45 -62 -116zM220 405q-40 -7 -64 -54.5t-25 -126.5q0 -21 1 -39q9 16 18 34q35 65 50 93q2 5 7 15q16 31 25 49q6 11 15 28q-12 4 -27 1zM219 510q25 3 49 -1q18 -3 36 -12l8 10
q13 18 23.5 24.5t18.5 2.5q10 -8 7 -26q-2 -13 -14 -40q5 -5 10 -11q18 -22 29.5 -59.5t11.5 -86.5q0 -152 -54.5 -232t-142.5 -87q-54 -4 -92 17q0 -1 -1 -2q-31 -44 -51 -27q-5 4 -6 10.5t1.5 17t5.5 20.5q3 9 8 22q-43 62 -41 179q2 62 20.5 115.5t47 88t61.5 54.5t65 23
z" />
    <glyph glyph-name="ugrave" unicode="&#xf9;" horiz-adv-x="428" 
d="M262 559q-7 -17 -26.5 -22.5t-48.5 4t-60 34.5q-12 11 -23 24t-19 29t-4 33t22 29q37 25 103 -40q6 -7 15.5 -15.5t15 -14t12 -12.5t9.5 -12t5.5 -11.5t2 -12.5t-3.5 -13zM181 -8q-34 -6 -65 8t-47 44q-50 90 -36 357q1 32 8 54.5t16.5 32.5t17.5 13.5t17 3.5
q10 0 18.5 -2t19.5 -7.5t16.5 -19t3.5 -33.5q-3 -35 -3 -120q0 -45 0.5 -75t2.5 -58.5t5.5 -45t9.5 -29t14.5 -16.5t20.5 -1q38 10 62.5 68t24.5 167q0 85 -3 120q-6 62 54 62q40 0 50 -36q11 -38 11 -121q0 -26 -0.5 -70.5t-0.5 -106.5q0 -85 -2 -115.5t-8 -41.5
q-13 -24 -41 -24q-54 0 -55 59v8q-7 -9 -14 -19q-19 -23 -43.5 -37t-53.5 -19z" />
    <glyph glyph-name="uacute" unicode="&#xfa;" horiz-adv-x="428" 
d="M176 559q-3 7 -3.5 13t2 12.5t6 11.5t10 12t12 12.5t14.5 14t16 15.5q65 65 102 40q19 -12 23 -29t-4.5 -33t-19 -29t-23.5 -24q-30 -25 -59 -34.5t-48.5 -4t-27.5 22.5zM181 -8q-34 -6 -65 8t-47 44q-50 90 -36 357q1 32 8 54.5t16.5 32.5t17.5 13.5t17 3.5
q10 0 18.5 -2t19.5 -7.5t16.5 -19t3.5 -33.5q-3 -35 -3 -120q0 -45 0.5 -75t2.5 -58.5t5.5 -45t9.5 -29t14.5 -16.5t20.5 -1q38 10 62.5 68t24.5 167q0 85 -3 120q-6 62 54 62q40 0 50 -36q11 -38 11 -121q0 -26 -0.5 -70.5t-0.5 -106.5q0 -85 -2 -115.5t-8 -41.5
q-13 -24 -41 -24q-54 0 -55 59v8q-7 -9 -14 -19q-19 -23 -43.5 -37t-53.5 -19z" />
    <glyph glyph-name="ucircumflex" unicode="&#xfb;" horiz-adv-x="428" 
d="M125 533q-27 13 -25.5 46t27.5 80q12 22 36 41.5t54 22.5q50 6 90 -64q26 -46 27 -73t-25 -43q-21 -13 -45 10.5t-44 66.5q-53 -104 -95 -87zM181 -8q-34 -6 -65 8t-47 44q-50 90 -36 357q1 32 8 54.5t16.5 32.5t17.5 13.5t17 3.5q10 0 18.5 -2t19.5 -7.5t16.5 -19
t3.5 -33.5q-3 -35 -3 -120q0 -45 0.5 -75t2.5 -58.5t5.5 -45t9.5 -29t14.5 -16.5t20.5 -1q38 10 62.5 68t24.5 167q0 85 -3 120q-6 62 54 62q40 0 50 -36q11 -38 11 -121q0 -26 -0.5 -70.5t-0.5 -106.5q0 -85 -2 -115.5t-8 -41.5q-13 -24 -41 -24q-54 0 -55 59v8
q-7 -9 -14 -19q-19 -23 -43.5 -37t-53.5 -19z" />
    <glyph glyph-name="udieresis" unicode="&#xfc;" horiz-adv-x="428" 
d="M242 605q-2 31 19.5 49t52.5 18q37 0 55 -20t15 -50q-3 -33 -20 -48t-53 -18q-32 -3 -49 11.5t-20 57.5zM65 602q-2 31 18.5 50t50.5 20q32 1 50 -19t20 -51q2 -32 -16.5 -49.5t-53.5 -19.5q-33 -2 -49.5 14.5t-19.5 54.5zM181 -8q-34 -6 -65 8t-47 44q-50 90 -36 357
q1 32 8 54.5t16.5 32.5t17.5 13.5t17 3.5q10 0 18.5 -2t19.5 -7.5t16.5 -19t3.5 -33.5q-3 -35 -3 -120q0 -45 0.5 -75t2.5 -58.5t5.5 -45t9.5 -29t14.5 -16.5t20.5 -1q38 10 62.5 68t24.5 167q0 85 -3 120q-6 62 54 62q40 0 50 -36q11 -38 11 -121q0 -26 -0.5 -70.5
t-0.5 -106.5q0 -85 -2 -115.5t-8 -41.5q-13 -24 -41 -24q-54 0 -55 59v8q-7 -9 -14 -19q-19 -23 -43.5 -37t-53.5 -19z" />
    <glyph glyph-name="yacute" unicode="&#xfd;" horiz-adv-x="354" 
d="M163 556q-3 7 -3.5 13t2 12.5t6 11.5t10 12t12 12.5t14.5 14t16 15.5q65 65 102 40q19 -12 23 -29t-4.5 -33t-19 -29t-23.5 -24q-30 -25 -59 -34.5t-48.5 -4t-27.5 22.5zM354 423q-25 -108 -98 -291q-72 -181 -137 -270q-20 -27 -46 -34t-40 8q-30 27 -6 86q5 12 61 124
q23 45 40 82q-7 7 -13 17q-89 158 -113 273q-18 85 35 99q26 6 47 -6.5t30 -50.5q21 -85 69 -208q7 21 16 49q14 46 24.5 81.5t23.5 69.5t29.5 52t36.5 16q24 -2 37.5 -28t3.5 -69z" />
    <glyph glyph-name="thorn" unicode="&#xfe;" horiz-adv-x="434" 
d="M236 395q-41 -7 -65 -50t-25 -121q0 -68 20 -98t59 -24q36 6 59.5 57t22.5 138q0 58 -18.5 81t-52.5 17zM135 651q5 -19 5 -113v-81q41 39 90 43q25 3 48 0t47.5 -14.5t42.5 -32t29.5 -57t11.5 -85.5q0 -152 -54.5 -232t-143.5 -87q-43 -4 -73 10q-1 -23 -2 -40
q-2 -53 -12 -87q-6 -24 -20 -39.5t-33 -15.5q-18 0 -29.5 13t-11.5 37q-1 52 5.5 413.5t10.5 373.5q5 14 17.5 22t28.5 8q34 0 43 -36z" />
    <glyph glyph-name="ydieresis" unicode="&#xff;" horiz-adv-x="354" 
d="M229 602q-2 31 19.5 49t52.5 18q37 0 55 -20t15 -50q-3 -33 -20 -48t-53 -18q-32 -3 -49 11.5t-20 57.5zM52 599q-2 31 18.5 50t50.5 20q32 1 50 -19t20 -51q2 -32 -16.5 -49.5t-53.5 -19.5q-33 -2 -49.5 14.5t-19.5 54.5zM354 423q-25 -108 -98 -291q-72 -181 -137 -270
q-20 -27 -46 -34t-40 8q-30 27 -6 86q5 12 61 124q23 45 40 82q-7 7 -13 17q-89 158 -113 273q-18 85 35 99q26 6 47 -6.5t30 -50.5q21 -85 69 -208q7 21 16 49q14 46 24.5 81.5t23.5 69.5t29.5 52t36.5 16q24 -2 37.5 -28t3.5 -69z" />
    <glyph glyph-name="Amacron" unicode="&#x100;" horiz-adv-x="494" 
d="M261 754q2 1 12 2.5t11.5 1.5t10 1t10.5 1t9 0.5t9.5 0t8.5 -0.5t9.5 -1t8.5 -2.5t10 -2.5q25 -10 27 -37.5t-17 -38.5q-10 -5 -18.5 -9t-20.5 -6.5t-19 -4t-28 -4t-33 -4.5q-11 -1 -29.5 -5t-28.5 -5.5t-29 -2.5t-31 2q-25 4 -35 20t-5 32t18 24q48 25 150 39zM297 342
q-4 13 -7 21q-12 35 -25 70t-20 52l-7 18q-8 -39 -37 -162q24 4 50 4q25 0 46 -3zM175 603q27 46 85 32q28 -7 49 -46.5t59 -139.5q38 -99 79.5 -220t46.5 -153q6 -35 2 -51t-20 -25q-40 -23 -75 34q-10 18 -31 81q-17 51 -36 113q-21 2 -48 2q-57 0 -99 -10q-9 -1 -16 -4
q-8 -29 -12 -44t-15.5 -62.5t-21.5 -70.5q-11 -29 -32 -45.5t-39 -13.5q-39 7 -22 94q5 26 15 64q-5 -1 -11 -1q-22 0 -30.5 18t-3 41t21.5 38q32 31 61 53q9 36 20 78q57 210 73 238z" />
    <glyph glyph-name="amacron" unicode="&#x101;" horiz-adv-x="445" 
d="M248 628q2 1 12 2.5t11.5 1.5t10 1t10.5 1t9 0.5t9.5 0t8.5 -0.5t9.5 -1t8.5 -2.5t10 -2.5q25 -10 27 -37.5t-17 -38.5q-10 -5 -18.5 -9t-20.5 -6.5t-19 -4t-28 -4t-33 -4.5q-11 -1 -29.5 -5t-28.5 -5.5t-29 -2.5t-31 2q-25 4 -35 20t-5 32t18 24q48 25 150 39zM228 395
q-41 -7 -64.5 -50t-24.5 -121q-1 -68 19 -98t59 -24q36 6 59.5 57t22.5 138q0 58 -18.5 81t-52.5 17zM219 500q32 3 57 -3q18 -4 34 -14q4 12 18 21q15 9 29 9q15 0 30.5 -11t20.5 -31q8 -25 8 -113q0 -26 -0.5 -70.5t-0.5 -106.5q0 -85 -2 -115.5t-8 -41.5q-14 -24 -41 -24
q-48 0 -55 46q-42 -49 -108 -54q-88 -7 -133 55t-43 182q2 62 20.5 114t47 84.5t61.5 51t65 21.5z" />
    <glyph glyph-name="Abreve" unicode="&#x102;" horiz-adv-x="494" 
d="M364 823q27 -13 26.5 -42.5t-22.5 -61.5q-42 -58 -120 -67q-77 -9 -124 51q-25 31 -27.5 62.5t23.5 47.5q17 7 27 3.5t21.5 -14t20.5 -21.5t24.5 -19t32.5 -7q22 2 38 16t24 28t22 22t34 2zM297 342q-4 13 -7 21q-12 35 -25 70t-20 52l-7 18q-8 -39 -37 -162q24 4 50 4
q25 0 46 -3zM175 603q27 46 85 32q28 -7 49 -46.5t59 -139.5q38 -99 79.5 -220t46.5 -153q6 -35 2 -51t-20 -25q-40 -23 -75 34q-10 18 -31 81q-17 51 -36 113q-21 2 -48 2q-57 0 -99 -10q-9 -1 -16 -4q-8 -29 -12 -44t-15.5 -62.5t-21.5 -70.5q-11 -29 -32 -45.5t-39 -13.5
q-39 7 -22 94q5 26 15 64q-5 -1 -11 -1q-22 0 -30.5 18t-3 41t21.5 38q32 31 61 53q9 36 20 78q57 210 73 238z" />
    <glyph glyph-name="abreve" unicode="&#x103;" horiz-adv-x="445" 
d="M351 697q27 -13 26.5 -42.5t-22.5 -61.5q-42 -58 -120 -67q-77 -9 -124 51q-25 31 -27.5 62.5t23.5 47.5q17 7 27 3.5t21.5 -14t20.5 -21.5t24.5 -19t32.5 -7q22 2 38 16t24 28t22 22t34 2zM228 395q-41 -7 -64.5 -50t-24.5 -121q-1 -68 19 -98t59 -24q36 6 59.5 57
t22.5 138q0 58 -18.5 81t-52.5 17zM219 500q32 3 57 -3q18 -4 34 -14q4 12 18 21q15 9 29 9q15 0 30.5 -11t20.5 -31q8 -25 8 -113q0 -26 -0.5 -70.5t-0.5 -106.5q0 -85 -2 -115.5t-8 -41.5q-14 -24 -41 -24q-48 0 -55 46q-42 -49 -108 -54q-88 -7 -133 55t-43 182
q2 62 20.5 114t47 84.5t61.5 51t65 21.5z" />
    <glyph glyph-name="Aogonek" unicode="&#x104;" horiz-adv-x="494" 
d="M491 -86q2 -30 -26 -42t-67 -4q-32 6 -54 25t-25 51q-2 34 12 56t41 39q10 7 21 13q-9 22 -23 63q-17 51 -36 113q-21 2 -48 2q-57 0 -99 -10q-9 -1 -16 -4q-8 -29 -12 -44t-15.5 -62.5t-21.5 -70.5q-11 -29 -32 -45.5t-39 -13.5q-39 7 -22 94q5 26 15 64q-5 -1 -11 -1
q-22 0 -30.5 18t-3 41t21.5 38q32 31 61 53q9 36 20 78q57 210 73 238q27 46 85 32q28 -7 49 -46.5t59 -139.5q38 -99 79.5 -220t46.5 -153q6 -35 2 -51t-20 -25q-18 -10 -35 -4q-9 -7 -15 -14q-10 -11 -8 -21q1 -10 12.5 -12t24 -0.5t23.5 -6.5t13 -28zM297 342
q-4 13 -7 21q-12 35 -25 70t-20 52l-7 18q-8 -39 -37 -162q24 4 50 4q25 0 46 -3z" />
    <glyph glyph-name="aogonek" unicode="&#x105;" horiz-adv-x="445" 
d="M419 -96q2 -30 -26 -42t-67 -4q-32 6 -54 25t-25 51q-2 34 12 56t41 39q6 4 11 7l-2 10q-42 -49 -108 -54q-88 -7 -133 55t-43 182q2 62 20.5 114t47 84.5t61.5 51t65 21.5t57 -3q18 -4 34 -14q4 12 18 21q15 9 29 9q15 0 30.5 -11t20.5 -31q8 -25 8 -113
q0 -26 -0.5 -70.5t-0.5 -106.5q0 -85 -2 -115.5t-8 -41.5l-4 -6q-2 -4 -5 -8q-8 -12 -20.5 -20t-22 -18.5t-7.5 -20.5q1 -10 12.5 -12t24 -0.5t23.5 -6.5t13 -28zM228 395q-41 -7 -64.5 -50t-24.5 -121q-1 -68 19 -98t59 -24q36 6 59.5 57t22.5 138q0 58 -18.5 81t-52.5 17z
" />
    <glyph glyph-name="Cacute" unicode="&#x106;" horiz-adv-x="483" 
d="M261 682q-3 7 -3.5 13t2 12.5t6 11.5t10 12t12 12.5t14.5 14t16 15.5q65 65 102 40q19 -12 23 -29t-4.5 -33t-19 -29t-23.5 -24q-30 -25 -59 -34.5t-48.5 -4t-27.5 22.5zM352 430q4 56 -11 89t-48 31q-63 -3 -111 -98q-22 -46 -34 -85.5t-16 -107.5q-2 -51 5 -85
t24.5 -50.5t36 -23t45.5 -8.5q72 -4 137 52q27 23 47.5 20t21 -26t-19.5 -58q-63 -99 -204 -90q-37 2 -71 16.5t-64.5 42.5t-48 78t-16.5 115q4 163 86 283q85 123 194 123q63 0 99 -41.5t37 -112.5q1 -33 -5.5 -57t-17.5 -35.5t-20.5 -16.5t-18.5 -5q-19 0 -23.5 13
t-3.5 37z" />
    <glyph glyph-name="cacute" unicode="&#x107;" horiz-adv-x="391" 
d="M205 554q-3 7 -3.5 13t2 12.5t6 11.5t10 12t12 12.5t14.5 14t16 15.5q65 65 102 40q19 -12 23 -29t-4.5 -33t-19 -29t-23.5 -24q-30 -25 -59 -34.5t-48.5 -4t-27.5 22.5zM270 342q3 68 -20 73q-41 9 -71 -51q-38 -75 -43 -157q-3 -54 11.5 -81t52.5 -27q47 0 95 34
q26 19 47 13t23 -29t-17 -53q-55 -79 -163 -72q-30 2 -57 13.5t-51.5 34t-38.5 62t-13 92.5q3 130 69 226q68 98 155 98q50 0 79 -33t30 -90q1 -26 -4.5 -45.5t-14 -28.5t-16.5 -13t-14 -4q-20 0 -30 8.5t-9 29.5z" />
    <glyph glyph-name="Ccircumflex" unicode="&#x108;" horiz-adv-x="483" 
d="M210 656q-27 13 -25.5 46t27.5 80q12 22 36 41.5t54 22.5q50 6 90 -64q26 -46 27 -73t-25 -43q-21 -13 -45 10.5t-44 66.5q-53 -104 -95 -87zM352 430q4 56 -11 89t-48 31q-63 -3 -111 -98q-22 -46 -34 -85.5t-16 -107.5q-2 -51 5 -85t24.5 -50.5t36 -23t45.5 -8.5
q72 -4 137 52q27 23 47.5 20t21 -26t-19.5 -58q-63 -99 -204 -90q-37 2 -71 16.5t-64.5 42.5t-48 78t-16.5 115q4 163 86 283q85 123 194 123q63 0 99 -41.5t37 -112.5q1 -33 -5.5 -57t-17.5 -35.5t-20.5 -16.5t-18.5 -5q-19 0 -23.5 13t-3.5 37z" />
    <glyph glyph-name="ccircumflex" unicode="&#x109;" horiz-adv-x="391" 
d="M154 528q-27 13 -25.5 46t27.5 80q12 22 36 41.5t54 22.5q50 6 90 -64q26 -46 27 -73t-25 -43q-21 -13 -45 10.5t-44 66.5q-53 -104 -95 -87zM270 342q3 68 -20 73q-41 9 -71 -51q-38 -75 -43 -157q-3 -54 11.5 -81t52.5 -27q47 0 95 34q26 19 47 13t23 -29t-17 -53
q-55 -79 -163 -72q-30 2 -57 13.5t-51.5 34t-38.5 62t-13 92.5q3 130 69 226q68 98 155 98q50 0 79 -33t30 -90q1 -26 -4.5 -45.5t-14 -28.5t-16.5 -13t-14 -4q-20 0 -30 8.5t-9 29.5z" />
    <glyph glyph-name="Cdotaccent" unicode="&#x10a;" horiz-adv-x="483" 
d="M234 727q1 32 20.5 50.5t48.5 19.5q35 0 53.5 -20t16.5 -50q-6 -72 -70 -69q-35 1 -52.5 17t-16.5 52zM352 430q4 56 -11 89t-48 31q-63 -3 -111 -98q-22 -46 -34 -85.5t-16 -107.5q-2 -51 5 -85t24.5 -50.5t36 -23t45.5 -8.5q72 -4 137 52q27 23 47.5 20t21 -26
t-19.5 -58q-63 -99 -204 -90q-37 2 -71 16.5t-64.5 42.5t-48 78t-16.5 115q4 163 86 283q85 123 194 123q63 0 99 -41.5t37 -112.5q1 -33 -5.5 -57t-17.5 -35.5t-20.5 -16.5t-18.5 -5q-19 0 -23.5 13t-3.5 37z" />
    <glyph glyph-name="cdotaccent" unicode="&#x10b;" horiz-adv-x="391" 
d="M178 599q1 32 20.5 50.5t48.5 19.5q35 0 53.5 -20t16.5 -50q-6 -72 -70 -69q-35 1 -52.5 17t-16.5 52zM270 342q3 68 -20 73q-41 9 -71 -51q-38 -75 -43 -157q-3 -54 11.5 -81t52.5 -27q47 0 95 34q26 19 47 13t23 -29t-17 -53q-55 -79 -163 -72q-30 2 -57 13.5t-51.5 34
t-38.5 62t-13 92.5q3 130 69 226q68 98 155 98q50 0 79 -33t30 -90q1 -26 -4.5 -45.5t-14 -28.5t-16.5 -13t-14 -4q-20 0 -30 8.5t-9 29.5z" />
    <glyph glyph-name="Ccaron" unicode="&#x10c;" horiz-adv-x="483" 
d="M409 845q48 -20 -13 -127q-12 -21 -35.5 -40.5t-53.5 -23.5q-50 -6 -90 64q-19 33 -26.5 53t-5 36.5t19.5 27.5q22 13 54 -12.5t51 -65.5q23 47 49.5 72t49.5 16zM352 430q4 56 -11 89t-48 31q-63 -3 -111 -98q-22 -46 -34 -85.5t-16 -107.5q-2 -51 5 -85t24.5 -50.5
t36 -23t45.5 -8.5q72 -4 137 52q27 23 47.5 20t21 -26t-19.5 -58q-63 -99 -204 -90q-37 2 -71 16.5t-64.5 42.5t-48 78t-16.5 115q4 163 86 283q85 123 194 123q63 0 99 -41.5t37 -112.5q1 -33 -5.5 -57t-17.5 -35.5t-20.5 -16.5t-18.5 -5q-19 0 -23.5 13t-3.5 37z" />
    <glyph glyph-name="ccaron" unicode="&#x10d;" horiz-adv-x="391" 
d="M353 717q48 -20 -13 -127q-12 -21 -35.5 -40.5t-53.5 -23.5q-50 -6 -90 64q-19 33 -26.5 53t-5 36.5t19.5 27.5q22 13 54 -12.5t51 -65.5q23 47 49.5 72t49.5 16zM270 342q3 68 -20 73q-41 9 -71 -51q-38 -75 -43 -157q-3 -54 11.5 -81t52.5 -27q47 0 95 34q26 19 47 13
t23 -29t-17 -53q-55 -79 -163 -72q-30 2 -57 13.5t-51.5 34t-38.5 62t-13 92.5q3 130 69 226q68 98 155 98q50 0 79 -33t30 -90q1 -26 -4.5 -45.5t-14 -28.5t-16.5 -13t-14 -4q-20 0 -30 8.5t-9 29.5z" />
    <glyph glyph-name="Dcaron" unicode="&#x10e;" horiz-adv-x="469" 
d="M339 855q48 -20 -13 -127q-12 -21 -35.5 -40.5t-53.5 -23.5q-50 -6 -90 64q-19 33 -26.5 53t-5 36.5t19.5 27.5q22 13 54 -12.5t51 -65.5q23 47 49.5 72t49.5 16zM149 91q29 6 55 21q38 21 59 49q29 39 51 103t22 119q0 92 -27 130.5t-85 38.5q-34 0 -64 -14q-2 -1 -5 -3
q2 -41 -2 -124q-1 -45 -2 -135t-1 -148q-1 -22 -1 -37zM446 381q0 -78 -24.5 -150t-67.5 -128q-34 -44 -95.5 -78.5t-111.5 -34.5q-42 0 -64 11q-10 3 -17 11q-14 16 -14 41v274q2 84 5 137q-10 0 -21 3q-16 4 -31.5 19t-14.5 38q2 41 44 72.5t96.5 46.5t105.5 15
q94 1 152 -71.5t58 -205.5z" />
    <glyph glyph-name="dcaron" unicode="&#x10f;" horiz-adv-x="633" 
d="M513 629q16 30 39.5 43t48.5 1q19 -10 25 -27.5t2 -33t-14 -37.5q-29 -63 -79 -99.5t-78 -12.5q-10 9 -11 23t7 33.5t16.5 35t23 39.5t20.5 35zM228 395q-41 -7 -64.5 -50t-24.5 -121q-1 -68 19 -98t59 -24q36 6 59.5 57t22.5 138q0 58 -18.5 81t-52.5 17zM326 658
q11 25 38 31t48 -14q6 -6 9.5 -32t4.5 -67.5t1 -76t-0.5 -80t-0.5 -57.5q0 -33 -2.5 -86.5t-4.5 -95.5t-2 -46q0 -58 -14 -100q-11 -33 -40 -34q-16 -1 -28 14.5t-13 39.5v7q-45 -63 -121 -69q-88 -7 -133 55t-43 182q2 62 20.5 114t47 84.5t61.5 51t65 21.5t57 -3
q23 -5 44 -20v71q1 45 2 74.5t4 35.5z" />
    <glyph glyph-name="Dcroat" unicode="&#x110;" horiz-adv-x="518" 
d="M196 91q68 7 114 50q73 68 73 212q0 105 -31.5 152t-90.5 47q-25 0 -49 -14l-10 -6q2 -41 -2 -121q0 -14 -1 -32q4 0 12 1q11 2 13 2.5t11 1.5t11.5 1t10 0.5t10.5 0t9.5 -0.5t10.5 -1t9.5 -2.5t10.5 -3.5q18 -7 25.5 -24t3.5 -34t-18 -25q-11 -6 -20 -10.5t-23 -7.5
t-21.5 -4t-30.5 -4q-14 -2 -25 -3q0 -83 -1 -138q0 -23 -1 -37zM493 351q0 -99 -21.5 -157.5t-70.5 -110.5q-40 -42 -97.5 -67.5t-109.5 -25.5q-43 0 -66 12q-8 3 -14 10q-15 16 -15 41v201h-5l-18 2q-27 4 -38 21.5t-6 36t21 26.5q24 13 47 21q2 61 4 102q-10 1 -20 3
q-17 5 -32.5 20t-14.5 38t17 44.5t32 31.5l15 10q10 5 27 13t65 21.5t90 13.5q94 0 152 -80t58 -227z" />
    <glyph glyph-name="dcroat" unicode="&#x111;" horiz-adv-x="457" 
d="M228 395q-41 -7 -64.5 -50t-24.5 -121q-1 -68 19 -98t59 -24q36 6 59.5 57t22.5 138q0 58 -18.5 81t-52.5 17zM326 658q11 25 38 31t48 -14q5 -5 9 -27q35 3 51 -1q9 -2 17 -5q27 -10 30 -40.5t-19 -42.5q-11 -6 -20 -10.5t-23 -7.5t-21 -4q-4 0 -9 -1v-36
q0 -35 -0.5 -80.5t-0.5 -57.5q0 -33 -2.5 -86.5t-4.5 -95.5t-2 -46q0 -58 -14 -100q-11 -33 -40 -34q-16 -1 -28 14.5t-13 39.5v7q-45 -63 -121 -69q-88 -7 -133 55t-43 182q2 62 20.5 114t47 84.5t61.5 51t65 21.5t57 -3q23 -5 44 -20v42q-9 -2 -15 -3q-11 -2 -32.5 -3
t-34.5 2q-27 5 -38 22.5t-6 35.5t21 26q38 20 107 34q2 20 4 25z" />
    <glyph glyph-name="Emacron" unicode="&#x112;" horiz-adv-x="429" 
d="M240 763q2 1 12 2.5t11.5 1.5t10 1t10.5 1t9 0.5t9.5 0t8.5 -0.5t9.5 -1t8.5 -2.5t10 -2.5q25 -10 27 -37.5t-17 -38.5q-10 -5 -18.5 -9t-20.5 -6.5t-19 -4t-28 -4t-33 -4.5q-11 -1 -29.5 -5t-28.5 -5.5t-29 -2.5t-31 2q-25 4 -35 20t-5 32t18 24q48 25 150 39zM221 364
q2 0 13 1.5t13 2t11 1.5t11.5 1t10 0.5t10.5 0t9.5 -0.5t10.5 -1t9.5 -2.5t10.5 -3.5q18 -7 26 -24t3.5 -34t-18.5 -25q-10 -6 -19.5 -10.5t-23 -7.5t-21.5 -4t-31 -4t-36 -5q-12 -2 -32.5 -6t-31.5 -6q-2 0 -4 -1q0 -57 1 -77q2 -42 14 -56t43 -12q30 2 60 5.5t44.5 5.5
t32 1t33.5 -7q22 -7 30.5 -26.5t-2 -40t-38.5 -29.5q-50 -16 -140 -16t-132.5 28.5t-48.5 100.5q-20 266 0 386q12 68 51 95t130 40q77 11 130 3q27 -5 38 -22.5t6 -35.5t-20 -26q-16 -8 -36 -13.5t-36 -8t-45.5 -6t-48.5 -6.5q-31 -5 -43.5 -21t-15.5 -61q-3 -43 -5 -87
q34 8 77 14z" />
    <glyph glyph-name="emacron" unicode="&#x113;" horiz-adv-x="394" 
d="M233 630q2 1 12 2.5t11.5 1.5t10 1t10.5 1t9 0.5t9.5 0t8.5 -0.5t9.5 -1t8.5 -2.5t10 -2.5q25 -10 27 -37.5t-17 -38.5q-10 -5 -18.5 -9t-20.5 -6.5t-19 -4t-28 -4t-33 -4.5q-11 -1 -29.5 -5t-28.5 -5.5t-29 -2.5t-31 2q-25 4 -35 20t-5 32t18 24q48 25 150 39zM136 290
q7 1 16 2q37 2 56 4q28 3 53 8q4 14 4 44q-1 36 -16.5 49.5t-36.5 10.5q-19 -2 -38.5 -24t-27.5 -54q-1 -2 -3.5 -10.5t-4.5 -15.5q-1 -5 -2 -14zM371 349q0 -62 -13.5 -93t-52.5 -42q-41 -12 -124 -16q-28 -2 -49 -3q4 -101 68 -101q47 0 95 34q26 19 47 14t23 -26.5
t-17 -51.5q-55 -79 -163 -72q-30 2 -57 13.5t-51.5 34t-38.5 62t-13 92.5q3 114 38 190q52 111 156 125q27 4 53 -3.5t48.5 -26t36.5 -52.5t14 -78z" />
    <glyph glyph-name="Ebreve" unicode="&#x114;" horiz-adv-x="429" 
d="M343 832q27 -13 26.5 -42.5t-22.5 -61.5q-42 -58 -120 -67q-77 -9 -124 51q-25 31 -27.5 62.5t23.5 47.5q17 7 27 3.5t21.5 -14t20.5 -21.5t24.5 -19t32.5 -7q22 2 38 16t24 28t22 22t34 2zM221 364q2 0 13 1.5t13 2t11 1.5t11.5 1t10 0.5t10.5 0t9.5 -0.5t10.5 -1
t9.5 -2.5t10.5 -3.5q18 -7 26 -24t3.5 -34t-18.5 -25q-10 -6 -19.5 -10.5t-23 -7.5t-21.5 -4t-31 -4t-36 -5q-12 -2 -32.5 -6t-31.5 -6q-2 0 -4 -1q0 -57 1 -77q2 -42 14 -56t43 -12q30 2 60 5.5t44.5 5.5t32 1t33.5 -7q22 -7 30.5 -26.5t-2 -40t-38.5 -29.5
q-50 -16 -140 -16t-132.5 28.5t-48.5 100.5q-20 266 0 386q12 68 51 95t130 40q77 11 130 3q27 -5 38 -22.5t6 -35.5t-20 -26q-16 -8 -36 -13.5t-36 -8t-45.5 -6t-48.5 -6.5q-31 -5 -43.5 -21t-15.5 -61q-3 -43 -5 -87q34 8 77 14z" />
    <glyph glyph-name="ebreve" unicode="&#x115;" horiz-adv-x="394" 
d="M336 699q27 -13 26.5 -42.5t-22.5 -61.5q-42 -58 -120 -67q-77 -9 -124 51q-25 31 -27.5 62.5t23.5 47.5q17 7 27 3.5t21.5 -14t20.5 -21.5t24.5 -19t32.5 -7q22 2 38 16t24 28t22 22t34 2zM136 290q7 1 16 2q37 2 56 4q28 3 53 8q4 14 4 44q-1 36 -16.5 49.5t-36.5 10.5
q-19 -2 -38.5 -24t-27.5 -54q-1 -2 -3.5 -10.5t-4.5 -15.5q-1 -5 -2 -14zM371 349q0 -62 -13.5 -93t-52.5 -42q-41 -12 -124 -16q-28 -2 -49 -3q4 -101 68 -101q47 0 95 34q26 19 47 14t23 -26.5t-17 -51.5q-55 -79 -163 -72q-30 2 -57 13.5t-51.5 34t-38.5 62t-13 92.5
q3 114 38 190q52 111 156 125q27 4 53 -3.5t48.5 -26t36.5 -52.5t14 -78z" />
    <glyph glyph-name="Edotaccent" unicode="&#x116;" horiz-adv-x="429" 
d="M157 724q1 32 20.5 50.5t48.5 19.5q35 0 53.5 -20t16.5 -50q-6 -72 -70 -69q-35 1 -52.5 17t-16.5 52zM221 364q2 0 13 1.5t13 2t11 1.5t11.5 1t10 0.5t10.5 0t9.5 -0.5t10.5 -1t9.5 -2.5t10.5 -3.5q18 -7 26 -24t3.5 -34t-18.5 -25q-10 -6 -19.5 -10.5t-23 -7.5
t-21.5 -4t-31 -4t-36 -5q-12 -2 -32.5 -6t-31.5 -6q-2 0 -4 -1q0 -57 1 -77q2 -42 14 -56t43 -12q30 2 60 5.5t44.5 5.5t32 1t33.5 -7q22 -7 30.5 -26.5t-2 -40t-38.5 -29.5q-50 -16 -140 -16t-132.5 28.5t-48.5 100.5q-20 266 0 386q12 68 51 95t130 40q77 11 130 3
q27 -5 38 -22.5t6 -35.5t-20 -26q-16 -8 -36 -13.5t-36 -8t-45.5 -6t-48.5 -6.5q-31 -5 -43.5 -21t-15.5 -61q-3 -43 -5 -87q34 8 77 14z" />
    <glyph glyph-name="edotaccent" unicode="&#x117;" horiz-adv-x="394" 
d="M151 591q1 32 20.5 50.5t48.5 19.5q35 0 53.5 -20t16.5 -50q-6 -72 -70 -69q-35 1 -52.5 17t-16.5 52zM136 290q7 1 16 2q37 2 56 4q28 3 53 8q4 14 4 44q-1 36 -16.5 49.5t-36.5 10.5q-19 -2 -38.5 -24t-27.5 -54q-1 -2 -3.5 -10.5t-4.5 -15.5q-1 -5 -2 -14zM371 349
q0 -62 -13.5 -93t-52.5 -42q-41 -12 -124 -16q-28 -2 -49 -3q4 -101 68 -101q47 0 95 34q26 19 47 14t23 -26.5t-17 -51.5q-55 -79 -163 -72q-30 2 -57 13.5t-51.5 34t-38.5 62t-13 92.5q3 114 38 190q52 111 156 125q27 4 53 -3.5t48.5 -26t36.5 -52.5t14 -78z" />
    <glyph glyph-name="Eogonek" unicode="&#x118;" horiz-adv-x="429" 
d="M413 -106q2 -30 -26 -42t-67 -4q-32 6 -54 25t-25 51q-2 34 12 56q2 2 3 5q-17 -1 -36 -1q-90 0 -132.5 28.5t-48.5 100.5q-20 266 0 386q12 68 51 95t130 40q77 11 130 3q27 -5 38 -22.5t6 -35.5t-20 -26q-16 -8 -36 -13.5t-36 -8t-45.5 -6t-48.5 -6.5q-31 -5 -43.5 -21
t-15.5 -61q-3 -43 -5 -87q34 8 77 14q2 0 13 1.5t13 2t11 1.5t11.5 1t10 0.5t10.5 0t9.5 -0.5t10.5 -1t9.5 -2.5t10.5 -3.5q18 -7 26 -24t3.5 -34t-18.5 -25q-10 -6 -19.5 -10.5t-23 -7.5t-21.5 -4t-31 -4t-36 -5q-12 -2 -32.5 -6t-31.5 -6q-2 0 -4 -1q0 -57 1 -77
q2 -42 14 -56t43 -12q30 2 60 5.5t44.5 5.5t32 1t33.5 -7q22 -7 30.5 -26.5t-2.5 -39.5q-1 -3 -2 -5v0q3 -13 -5.5 -25t-21 -20t-22 -18.5t-7.5 -20.5q1 -10 12.5 -12t24 -0.5t23.5 -6.5t13 -28z" />
    <glyph glyph-name="eogonek" unicode="&#x119;" horiz-adv-x="394" 
d="M270 -106q2 -30 -26 -42t-67 -4q-32 6 -54 25t-25 51q-2 34 12 56q8 13 21 24q-1 1 -3 2q-27 11 -51.5 33.5t-38.5 62t-13 92.5q3 114 38 190q52 111 156 125q27 4 53 -3.5t48.5 -26t36.5 -52.5t14 -78q0 -62 -13.5 -93t-52.5 -42q-41 -12 -124 -16q-28 -2 -49 -3
q4 -101 68 -101q47 0 95 34q26 19 47 14t23 -26.5t-17 -51.5q-39 -56 -104 -69q-8 -9 -18 -15q-12 -8 -21.5 -18.5t-7.5 -20.5q1 -10 12.5 -12t24 -0.5t23.5 -6.5t13 -28zM136 290q7 1 16 2q37 2 56 4q28 3 53 8q4 14 4 44q-1 36 -16.5 49.5t-36.5 10.5q-19 -2 -38.5 -24
t-27.5 -54q-1 -2 -3.5 -10.5t-4.5 -15.5q-1 -5 -2 -14z" />
    <glyph glyph-name="Ecaron" unicode="&#x11a;" horiz-adv-x="429" 
d="M333 842q48 -20 -13 -127q-12 -21 -35.5 -40.5t-53.5 -23.5q-50 -6 -90 64q-19 33 -26.5 53t-5 36.5t19.5 27.5q22 13 54 -12.5t51 -65.5q23 47 49.5 72t49.5 16zM221 364q2 0 13 1.5t13 2t11 1.5t11.5 1t10 0.5t10.5 0t9.5 -0.5t10.5 -1t9.5 -2.5t10.5 -3.5
q18 -7 26 -24t3.5 -34t-18.5 -25q-10 -6 -19.5 -10.5t-23 -7.5t-21.5 -4t-31 -4t-36 -5q-12 -2 -32.5 -6t-31.5 -6q-2 0 -4 -1q0 -57 1 -77q2 -42 14 -56t43 -12q30 2 60 5.5t44.5 5.5t32 1t33.5 -7q22 -7 30.5 -26.5t-2 -40t-38.5 -29.5q-50 -16 -140 -16t-132.5 28.5
t-48.5 100.5q-20 266 0 386q12 68 51 95t130 40q77 11 130 3q27 -5 38 -22.5t6 -35.5t-20 -26q-16 -8 -36 -13.5t-36 -8t-45.5 -6t-48.5 -6.5q-31 -5 -43.5 -21t-15.5 -61q-3 -43 -5 -87q34 8 77 14z" />
    <glyph glyph-name="ecaron" unicode="&#x11b;" horiz-adv-x="394" 
d="M326 709q48 -20 -13 -127q-12 -21 -35.5 -40.5t-53.5 -23.5q-50 -6 -90 64q-19 33 -26.5 53t-5 36.5t19.5 27.5q22 13 54 -12.5t51 -65.5q23 47 49.5 72t49.5 16zM136 290q7 1 16 2q37 2 56 4q28 3 53 8q4 14 4 44q-1 36 -16.5 49.5t-36.5 10.5q-19 -2 -38.5 -24
t-27.5 -54q-1 -2 -3.5 -10.5t-4.5 -15.5q-1 -5 -2 -14zM371 349q0 -62 -13.5 -93t-52.5 -42q-41 -12 -124 -16q-28 -2 -49 -3q4 -101 68 -101q47 0 95 34q26 19 47 14t23 -26.5t-17 -51.5q-55 -79 -163 -72q-30 2 -57 13.5t-51.5 34t-38.5 62t-13 92.5q3 114 38 190
q52 111 156 125q27 4 53 -3.5t48.5 -26t36.5 -52.5t14 -78z" />
    <glyph glyph-name="Gcircumflex" unicode="&#x11c;" horiz-adv-x="499" 
d="M210 656q-27 13 -25.5 46t27.5 80q12 22 36 41.5t54 22.5q50 6 90 -64q26 -46 27 -73t-25 -43q-21 -13 -45 10.5t-44 66.5q-53 -104 -95 -87zM314 549q-34 2 -70.5 -22.5t-61.5 -74.5q-23 -46 -34.5 -86t-15.5 -107q-2 -51 5 -85t24.5 -50.5t36 -23t45.5 -8.5
q33 -2 66.5 12t50.5 44q11 18 9 144q-2 -1 -7 -1.5t-18 -2t-26 -1.5q-49 1 -43 46q5 35 50.5 56.5t85.5 20.5q34 -1 44.5 -21.5t12.5 -88.5q3 -78 -2 -128t-24 -83q-28 -50 -87 -77t-130 -22q-37 2 -71 16.5t-64.5 42.5t-48 78t-16.5 115q4 163 86 283q89 129 191 129
q58 0 89 -21t36 -49q5 -25 -8.5 -41.5t-40.5 -16.5q-17 0 -32 11t-32 12z" />
    <glyph glyph-name="gcircumflex" unicode="&#x11d;" horiz-adv-x="459" 
d="M142 518q-27 13 -25.5 46t27.5 80q12 22 36 41.5t54 22.5q50 6 90 -64q26 -46 27 -73t-25 -43q-21 -13 -45 10.5t-44 66.5q-53 -104 -95 -87zM231 395q-40 -7 -64 -47t-25 -104q-1 -54 19.5 -81t58.5 -21q37 6 60 44.5t22 110.5q0 58 -18.5 81t-52.5 17zM219 500
q32 3 57.5 -3t49.5 -25q4 -2 8 -6q3 8 6 14q6 10 14 17.5t19 6t24 -11.5q12 -9 18.5 -31t8 -67t1.5 -71t-1 -91v-50.5t-1 -71t-4 -56.5q-8 -97 -55 -155.5t-130 -66.5q-42 -4 -87 3t-77 27.5t-27 49.5q5 25 22.5 31.5t38.5 1t54.5 -10.5t58.5 -1q38 6 59.5 28.5t29.5 85.5
q2 15 3 30q-42 -40 -108 -45q-87 -7 -132.5 52t-43.5 165q2 55 20.5 102.5t47 78.5t61.5 49t65 21z" />
    <glyph glyph-name="Gbreve" unicode="&#x11e;" horiz-adv-x="499" 
d="M419 835q27 -13 26.5 -42.5t-22.5 -61.5q-42 -58 -120 -67q-77 -9 -124 51q-25 31 -27.5 62.5t23.5 47.5q17 7 27 3.5t21.5 -14t20.5 -21.5t24.5 -19t32.5 -7q22 2 38 16t24 28t22 22t34 2zM314 549q-34 2 -70.5 -22.5t-61.5 -74.5q-23 -46 -34.5 -86t-15.5 -107
q-2 -51 5 -85t24.5 -50.5t36 -23t45.5 -8.5q33 -2 66.5 12t50.5 44q11 18 9 144q-2 -1 -7 -1.5t-18 -2t-26 -1.5q-49 1 -43 46q5 35 50.5 56.5t85.5 20.5q34 -1 44.5 -21.5t12.5 -88.5q3 -78 -2 -128t-24 -83q-28 -50 -87 -77t-130 -22q-37 2 -71 16.5t-64.5 42.5t-48 78
t-16.5 115q4 163 86 283q89 129 191 129q58 0 89 -21t36 -49q5 -25 -8.5 -41.5t-40.5 -16.5q-17 0 -32 11t-32 12z" />
    <glyph glyph-name="gbreve" unicode="&#x11f;" horiz-adv-x="459" 
d="M351 697q27 -13 26.5 -42.5t-22.5 -61.5q-42 -58 -120 -67q-77 -9 -124 51q-25 31 -27.5 62.5t23.5 47.5q17 7 27 3.5t21.5 -14t20.5 -21.5t24.5 -19t32.5 -7q22 2 38 16t24 28t22 22t34 2zM231 395q-40 -7 -64 -47t-25 -104q-1 -54 19.5 -81t58.5 -21q37 6 60 44.5
t22 110.5q0 58 -18.5 81t-52.5 17zM219 500q32 3 57.5 -3t49.5 -25q4 -2 8 -6q3 8 6 14q6 10 14 17.5t19 6t24 -11.5q12 -9 18.5 -31t8 -67t1.5 -71t-1 -91v-50.5t-1 -71t-4 -56.5q-8 -97 -55 -155.5t-130 -66.5q-42 -4 -87 3t-77 27.5t-27 49.5q5 25 22.5 31.5t38.5 1
t54.5 -10.5t58.5 -1q38 6 59.5 28.5t29.5 85.5q2 15 3 30q-42 -40 -108 -45q-87 -7 -132.5 52t-43.5 165q2 55 20.5 102.5t47 78.5t61.5 49t65 21z" />
    <glyph glyph-name="Gdotaccent" unicode="&#x120;" horiz-adv-x="499" 
d="M234 727q1 32 20.5 50.5t48.5 19.5q35 0 53.5 -20t16.5 -50q-6 -72 -70 -69q-35 1 -52.5 17t-16.5 52zM314 549q-34 2 -70.5 -22.5t-61.5 -74.5q-23 -46 -34.5 -86t-15.5 -107q-2 -51 5 -85t24.5 -50.5t36 -23t45.5 -8.5q33 -2 66.5 12t50.5 44q11 18 9 144
q-2 -1 -7 -1.5t-18 -2t-26 -1.5q-49 1 -43 46q5 35 50.5 56.5t85.5 20.5q34 -1 44.5 -21.5t12.5 -88.5q3 -78 -2 -128t-24 -83q-28 -50 -87 -77t-130 -22q-37 2 -71 16.5t-64.5 42.5t-48 78t-16.5 115q4 163 86 283q89 129 191 129q58 0 89 -21t36 -49q5 -25 -8.5 -41.5
t-40.5 -16.5q-17 0 -32 11t-32 12z" />
    <glyph glyph-name="gdotaccent" unicode="&#x121;" horiz-adv-x="459" 
d="M166 589q1 32 20.5 50.5t48.5 19.5q35 0 53.5 -20t16.5 -50q-6 -72 -70 -69q-35 1 -52.5 17t-16.5 52zM231 395q-40 -7 -64 -47t-25 -104q-1 -54 19.5 -81t58.5 -21q37 6 60 44.5t22 110.5q0 58 -18.5 81t-52.5 17zM219 500q32 3 57.5 -3t49.5 -25q4 -2 8 -6q3 8 6 14
q6 10 14 17.5t19 6t24 -11.5q12 -9 18.5 -31t8 -67t1.5 -71t-1 -91v-50.5t-1 -71t-4 -56.5q-8 -97 -55 -155.5t-130 -66.5q-42 -4 -87 3t-77 27.5t-27 49.5q5 25 22.5 31.5t38.5 1t54.5 -10.5t58.5 -1q38 6 59.5 28.5t29.5 85.5q2 15 3 30q-42 -40 -108 -45
q-87 -7 -132.5 52t-43.5 165q2 55 20.5 102.5t47 78.5t61.5 49t65 21z" />
    <glyph glyph-name="uni0122" unicode="&#x122;" horiz-adv-x="499" 
d="M154 -86q16 30 39.5 43t48.5 1q19 -10 25 -27.5t2 -33t-14 -37.5q-29 -63 -79 -99.5t-78 -12.5q-10 9 -11 23t7 33.5t16.5 35t23 39.5t20.5 35zM314 549q-34 2 -70.5 -22.5t-61.5 -74.5q-23 -46 -34.5 -86t-15.5 -107q-2 -51 5 -85t24.5 -50.5t36 -23t45.5 -8.5
q33 -2 66.5 12t50.5 44q11 18 9 144q-2 -1 -7 -1.5t-18 -2t-26 -1.5q-49 1 -43 46q5 35 50.5 56.5t85.5 20.5q34 -1 44.5 -21.5t12.5 -88.5q3 -78 -2 -128t-24 -83q-28 -50 -87 -77t-130 -22q-37 2 -71 16.5t-64.5 42.5t-48 78t-16.5 115q4 163 86 283q89 129 191 129
q58 0 89 -21t36 -49q5 -25 -8.5 -41.5t-40.5 -16.5q-17 0 -32 11t-32 12z" />
    <glyph glyph-name="uni0123" unicode="&#x123;" horiz-adv-x="459" 
d="M318 575q-16 -30 -39 -43t-48 -1q-20 10 -25.5 27.5t-2 33t13.5 37.5q29 63 79 99.5t78 11.5q11 -8 12 -22.5t-7.5 -33.5t-17 -35t-22.5 -39.5t-21 -34.5zM231 395q-40 -7 -64 -47t-25 -104q-1 -54 19.5 -81t58.5 -21q37 6 60 44.5t22 110.5q0 58 -18.5 81t-52.5 17z
M219 500q32 3 57.5 -3t49.5 -25q4 -2 8 -6q3 8 6 14q6 10 14 17.5t19 6t24 -11.5q12 -9 18.5 -31t8 -67t1.5 -71t-1 -91v-50.5t-1 -71t-4 -56.5q-8 -97 -55 -155.5t-130 -66.5q-42 -4 -87 3t-77 27.5t-27 49.5q5 25 22.5 31.5t38.5 1t54.5 -10.5t58.5 -1q38 6 59.5 28.5
t29.5 85.5q2 15 3 30q-42 -40 -108 -45q-87 -7 -132.5 52t-43.5 165q2 55 20.5 102.5t47 78.5t61.5 49t65 21z" />
    <glyph glyph-name="Hcircumflex" unicode="&#x124;" horiz-adv-x="541" 
d="M209 646q-27 13 -25.5 46t27.5 80q12 22 36 41.5t54 22.5q50 6 90 -64q26 -46 27 -73t-25 -43q-21 -13 -45 10.5t-44 66.5q-53 -104 -95 -87zM411 608q10 25 37.5 31t48.5 -14q6 -6 9.5 -27t4.5 -54.5t1 -61.5t-0.5 -67.5t-0.5 -52.5q0 -33 -2.5 -86.5t-4.5 -95.5t-2 -46
q0 -58 -14 -100q-11 -33 -40 -34q-16 -1 -28.5 14.5t-12.5 39.5q-2 21 -2 65t0.5 107.5t0.5 85.5v6h-3q-35 9 -86 10q-40 1 -79 -14q-28 -10 -49 -21q0 -10 -1 -21q-2 -57 -4 -102.5t-2 -49.5q0 -61 -13 -83q-22 -37 -52 -37q-14 0 -22 11.5t-8 24.5q0 35 -1 152v49
q-11 -2 -20 -2q-22 0 -31 18t-3 41t22 38t33 29v7q1 39 1.5 69.5t1.5 64.5t2.5 56t4.5 28q14 36 36 52t44 -2q6 -6 9.5 -28t4.5 -57.5t1 -64.5v-69q58 20 126 20q45 0 87 -11v19v71t1.5 61.5t4.5 30.5z" />
    <glyph glyph-name="hcircumflex" unicode="&#x125;" horiz-adv-x="430" 
d="M-15 692q-27 13 -25.5 46t27.5 80q12 22 36 41.5t54 22.5q50 6 90 -64q26 -46 27 -73t-25 -43q-21 -13 -45 10.5t-44 66.5q-53 -104 -95 -87zM242 519q48 8 79.5 -10.5t55.5 -66.5q15 -30 22.5 -69t8 -95t-0.5 -83t-4 -91q-2 -32 -8.5 -54t-16 -32t-18 -14t-17.5 -4
q-55 0 -49 63q3 35 3 130q0 134 -10.5 178.5t-51.5 35.5q-79 -18 -97 -143v-83q0 -36 1.5 -66t3 -42.5t1 -24.5t-5.5 -24q-8 -23 -47 -24h-4q-53 0 -55 59q-2 53 -2 314t3 289q3 13 18 22t29 9q15 0 30.5 -11t21.5 -31q7 -25 7 -113v-64q5 4 11 8q43 29 92 37z" />
    <glyph glyph-name="Hbar" unicode="&#x126;" horiz-adv-x="541" 
d="M411 608q10 25 37.5 31t48.5 -14q6 -6 9 -27q2 -6 2 -14q6 -1 11 -3q18 -7 25.5 -24t3.5 -34t-18 -25q-7 -4 -18 -8v-8q0 -28 -0.5 -67.5t-0.5 -52.5q0 -33 -2.5 -86.5t-4.5 -95.5t-2 -46q0 -58 -14 -100q-11 -33 -40 -34q-16 -1 -28.5 14.5t-12.5 39.5q-2 21 -2 65
t0.5 107.5t0.5 85.5v6h-3q-35 9 -86 10q-40 1 -79 -14q-28 -10 -49 -21q0 -10 -1 -21q-2 -57 -4 -102.5t-2 -49.5q0 -61 -13 -83q-22 -37 -52 -37q-14 0 -22 11.5t-8 24.5q0 35 -1 152v49q-11 -2 -20 -2q-22 0 -31 18t-3 41t22 38t33 29v7q1 39 1 70q1 8 1 16h-1
q-27 5 -38 22.5t-6 35.5t21 26q12 6 27 12v8q2 22 5 28q14 36 36 52t44 -2q6 -6 9 -28q3 -16 4 -38q48 6 120 12q56 5 97 6q2 15 4 20zM405 475q-13 -1 -29 -3q-48 -3 -77 -5q-26 -2 -58 -5q-31 -4 -49 -6v-39q58 20 126 20q45 0 87 -11v19v30z" />
    <glyph glyph-name="hbar" unicode="&#x127;" horiz-adv-x="430" 
d="M242 519q48 8 79.5 -10.5t55.5 -66.5q15 -30 22.5 -69t8 -95t-0.5 -83t-4 -91q-2 -32 -8.5 -54t-16 -32t-18 -14t-17.5 -4q-55 0 -49 63q3 35 3 130q0 134 -10.5 178.5t-51.5 35.5q-79 -18 -97 -143v-83q0 -36 1.5 -66t3 -42.5t1 -24.5t-5.5 -24q-8 -23 -47 -24h-4
q-53 0 -55 59q-2 53 -2 314v140q-20 -1 -32 2q-27 5 -38 22.5t-6 35.5t21 26q22 12 56 22q1 32 2 41q3 13 18 22t29 9q15 0 30.5 -11t21.5 -31q1 -4 2 -9q3 1 6 1q67 10 92 4q9 -2 17 -5q27 -10 30 -40.5t-19 -42.5q-11 -6 -20 -10.5t-23 -7.5t-21.5 -4t-30.5 -4
q-15 -2 -26 -4v-55q5 4 11 8q43 29 92 37z" />
    <glyph glyph-name="Itilde" unicode="&#x128;" horiz-adv-x="172" 
d="M134 601q9 -25 9 -109q0 -25 -0.5 -67.5t-0.5 -102.5q0 -283 -13 -300q-17 -22 -45 -22q-23 0 -36.5 10.5t-14.5 43.5q-2 49 -2.5 290t3.5 267q10 30 41 30q18 0 34.5 -10.5t24.5 -29.5zM96 781q22 -15 62 3q26 13 44.5 7.5t28.5 -19t7 -33.5t-19 -35q-29 -27 -75.5 -29
t-80.5 18q-18 9 -29 8t-33 -11q-26 -12 -44 -6t-27 19.5t-4.5 33t23.5 33.5q36 29 78 30t69 -19z" />
    <glyph glyph-name="itilde" unicode="&#x129;" horiz-adv-x="204" 
d="M105 647q22 -15 62 3q26 13 44.5 7.5t28.5 -19t7 -33.5t-19 -35q-29 -27 -75.5 -29t-80.5 18q-18 9 -29 8t-33 -11q-26 -12 -44 -6t-27 19.5t-4.5 33t23.5 33.5q36 29 78 30t69 -19zM155 471q7 -25 7 -113v-70.5v-106.5q0 -85 -2 -115.5t-8 -41t-21 -17.5t-30 -7
q-54 0 -56 59q-1 53 -1.5 224t3.5 199q3 13 18 22t29 9q16 0 36 -11t25 -31z" />
    <glyph glyph-name="Imacron" unicode="&#x12a;" horiz-adv-x="172" 
d="M134 601q9 -25 9 -109q0 -25 -0.5 -67.5t-0.5 -102.5q0 -283 -13 -300q-17 -22 -45 -22q-23 0 -36.5 10.5t-14.5 43.5q-2 49 -2.5 290t3.5 267q10 30 41 30q18 0 34.5 -10.5t24.5 -29.5zM96 766q2 1 12 2.5t11.5 1.5t10 1t10.5 1t9 0.5t9.5 0t8.5 -0.5t9.5 -1t8.5 -2.5
t10 -2.5q25 -10 27 -37.5t-17 -38.5q-10 -5 -18.5 -9t-20.5 -6.5t-19 -4t-28 -4t-33 -4.5q-11 -1 -29.5 -5t-28.5 -5.5t-29 -2.5t-31 2q-25 4 -35 20t-5 32t18 24q48 25 150 39z" />
    <glyph glyph-name="imacron" unicode="&#x12b;" horiz-adv-x="204" 
d="M105 632q2 1 12 2.5t11.5 1.5t10 1t10.5 1t9 0.5t9.5 0t8.5 -0.5t9.5 -1t8.5 -2.5t10 -2.5q25 -10 27 -37.5t-17 -38.5q-10 -5 -18.5 -9t-20.5 -6.5t-19 -4t-28 -4t-33 -4.5q-11 -1 -29.5 -5t-28.5 -5.5t-29 -2.5t-31 2q-25 4 -35 20t-5 32t18 24q48 25 150 39zM155 471
q7 -25 7 -113v-70.5v-106.5q0 -85 -2 -115.5t-8 -41t-21 -17.5t-30 -7q-54 0 -56 59q-1 53 -1.5 224t3.5 199q3 13 18 22t29 9q16 0 36 -11t25 -31z" />
    <glyph glyph-name="Ibreve" unicode="&#x12c;" horiz-adv-x="172" 
d="M134 601q9 -25 9 -109q0 -25 -0.5 -67.5t-0.5 -102.5q0 -283 -13 -300q-17 -22 -45 -22q-23 0 -36.5 10.5t-14.5 43.5q-2 49 -2.5 290t3.5 267q10 30 41 30q18 0 34.5 -10.5t24.5 -29.5zM199 835q27 -13 27 -42.5t-23 -61.5q-42 -58 -120 -67q-77 -9 -124 51
q-25 31 -27.5 62.5t23.5 47.5q17 7 27 3.5t21.5 -14t20.5 -21.5t24.5 -19t32.5 -7q22 2 38 16t24 28t22 22t34 2z" />
    <glyph glyph-name="ibreve" unicode="&#x12d;" horiz-adv-x="204" 
d="M208 701q27 -13 26.5 -42.5t-22.5 -61.5q-42 -58 -120 -67q-77 -9 -124 51q-25 31 -27.5 62.5t23.5 47.5q17 7 27 3.5t21.5 -14t20.5 -21.5t24.5 -19t32.5 -7q22 2 38 16t24 28t22 22t34 2zM155 471q7 -25 7 -113v-70.5v-106.5q0 -85 -2 -115.5t-8 -41t-21 -17.5t-30 -7
q-54 0 -56 59q-1 53 -1.5 224t3.5 199q3 13 18 22t29 9q16 0 36 -11t25 -31z" />
    <glyph glyph-name="Iogonek" unicode="&#x12e;" horiz-adv-x="172" 
d="M150 -71q2 -30 -26 -42t-67 -4q-32 6 -54 25t-25 51q-2 34 12 56t41 39q1 1 2 1q-2 51 -3 289q0 241 4 267q10 30 41 30q18 0 34.5 -10.5t24.5 -29.5q9 -25 9 -109q0 -25 -0.5 -67.5t-0.5 -102.5q0 -283 -13 -300q-16 -20 -41 -22l-4 -4q-9 -10 -7 -20q1 -10 12.5 -12
t24 -0.5t23.5 -6.5t13 -28z" />
    <glyph glyph-name="iogonek" unicode="&#x12f;" horiz-adv-x="198" 
d="M166 -86q2 -30 -26 -42t-67 -4q-32 6 -54 25t-25 51q-2 34 12 56t41 39q-3 9 -3 20q-1 53 -1.5 224t3.5 199q3 13 18 22t29 9q16 0 36 -11t25 -31q7 -25 7 -113v-70.5v-106.5q0 -85 -2 -115.5t-8 -41.5q-5 -9 -17 -15q-5 -5 -12 -9q-12 -8 -21.5 -18.5t-7.5 -20.5
q1 -10 12.5 -12t24 -0.5t23.5 -6.5t13 -28zM30 608q-2 31 18.5 50t50.5 20q32 1 50 -19t20 -51q2 -32 -16.5 -49.5t-53.5 -19.5q-33 -2 -49.5 14.5t-19.5 54.5z" />
    <glyph glyph-name="Idotaccent" unicode="&#x130;" horiz-adv-x="172" 
d="M134 601q9 -25 9 -109q0 -25 -0.5 -67.5t-0.5 -102.5q0 -283 -13 -300q-17 -22 -45 -22q-23 0 -36.5 10.5t-14.5 43.5q-2 49 -2.5 290t3.5 267q10 30 41 30q18 0 34.5 -10.5t24.5 -29.5zM14 727q1 32 20 50.5t49 19.5q34 0 53 -20t16 -50q-5 -72 -69 -69q-36 1 -53.5 17
t-15.5 52z" />
    <glyph glyph-name="dotlessi" unicode="&#x131;" horiz-adv-x="204" 
d="M155 471q7 -25 7 -113v-70.5v-106.5q0 -85 -2 -115.5t-8 -41t-21 -17.5t-30 -7q-54 0 -56 59q-1 53 -1.5 224t3.5 199q3 13 18 22t29 9q16 0 36 -11t25 -31z" />
    <glyph glyph-name="IJ" unicode="&#x132;" horiz-adv-x="593" 
d="M134 601q9 -25 9 -109q0 -25 -0.5 -67.5t-0.5 -102.5q0 -283 -13 -300q-17 -22 -45 -22q-23 0 -36.5 10.5t-14.5 43.5q-2 49 -2.5 290t3.5 267q10 30 41 30q18 0 34.5 -10.5t24.5 -29.5zM544 493q1 -23 4 -75.5t4 -72.5t2.5 -59.5t0.5 -59t-3 -46t-6.5 -45t-11.5 -34.5
q-27 -58 -62.5 -82.5t-92.5 -28.5q-71 -5 -120.5 23t-55.5 57q-5 25 9 41.5t40 16.5q10 0 46.5 -12.5t78.5 -10.5q36 2 49.5 21t16.5 77q2 67 -2 167q-3 85 -7 147q-68 -7 -157 -7q-29 0 -47.5 13t-18.5 36q1 39 64 57.5t180 24.5q132 7 133 -55q1 -15 -8.5 -27t-21.5 -19
q-7 -3 -17 -7q1 -18 3 -40z" />
    <glyph glyph-name="ij" unicode="&#x133;" horiz-adv-x="424" 
d="M234 608q-2 31 18.5 50t50.5 20q32 1 50 -19t20 -51q2 -32 -16.5 -49.5t-53.5 -19.5q-33 -2 -49.5 14.5t-19.5 54.5zM365 363q1 -23 4.5 -75.5t4.5 -72.5t2.5 -59.5t0.5 -59t-3 -46t-7 -45t-12 -34.5q-45 -99 -145 -111q-56 -7 -88 14.5t-38 51.5q-5 25 9 41.5t40 16.5
q13 0 34 -6.5t41 -2.5q25 5 39.5 24.5t16.5 73.5q3 67 -1.5 167t-9 168t-2.5 73q8 30 39 30q18 0 35.5 -10t25.5 -29q9 -22 14 -109zM30 608q-2 31 18.5 50t50.5 20q32 1 50 -19t20 -51q2 -32 -16.5 -49.5t-53.5 -19.5q-33 -2 -49.5 14.5t-19.5 54.5zM154 471q7 -25 7 -113
v-70.5v-106.5q0 -85 -2 -115.5t-8 -41t-21 -17.5t-30 -7q-54 0 -56 59q-1 53 -1.5 224t3.5 199q3 13 18 22t29 9q16 0 36 -11t25 -31z" />
    <glyph glyph-name="Jcircumflex" unicode="&#x134;" horiz-adv-x="421" 
d="M119 656q-27 13 -25.5 46t27.5 80q12 22 36 41.5t54 22.5q50 6 90 -64q26 -46 27 -73t-25 -43q-21 -13 -45 10.5t-44 66.5q-53 -104 -95 -87zM372 493q1 -23 4 -75.5t4 -72.5t2.5 -59.5t0.5 -59t-3 -46t-6.5 -45t-11.5 -34.5q-27 -58 -62.5 -82.5t-92.5 -28.5
q-71 -5 -120.5 23t-55.5 57q-5 25 9 41.5t40 16.5q10 0 46.5 -12.5t78.5 -10.5q36 2 49.5 21t16.5 77q2 67 -2 167q-3 85 -7 147q-68 -7 -157 -7q-29 0 -47.5 13t-18.5 36q1 39 64 57.5t180 24.5q132 7 133 -55q1 -15 -8.5 -27t-21.5 -19q-7 -3 -17 -7q1 -18 3 -40z" />
    <glyph glyph-name="jcircumflex" unicode="&#x135;" horiz-adv-x="202" 
d="M-7 522q-27 13 -25.5 46t27.5 80q12 22 36 41.5t54 22.5q50 6 90 -64q26 -46 27 -73t-25 -43q-21 -13 -45 10.5t-44 66.5q-53 -104 -95 -87zM161 363q1 -23 4.5 -75.5t4.5 -72.5t2.5 -59.5t0.5 -59t-3 -46t-7 -45t-12 -34.5q-45 -99 -145 -111q-56 -7 -88 14.5t-38 51.5
q-5 25 9 41.5t40 16.5q13 0 34 -6.5t41 -2.5q25 5 39.5 24.5t16.5 73.5q3 67 -1.5 167t-9 168t-2.5 73q8 30 39 30q18 0 35.5 -10t25.5 -29q9 -22 14 -109z" />
    <glyph glyph-name="uni0136" unicode="&#x136;" horiz-adv-x="475" 
d="M158 -67q16 30 39.5 43t48.5 1q19 -10 25 -27.5t2 -33t-14 -37.5q-29 -63 -79 -99.5t-78 -12.5q-10 9 -11 23t7 33.5t16.5 35t23 39.5t20.5 35zM134 597q9 -25 9 -109q0 -25 -0.5 -65.5t-0.5 -100.5v-28q19 15 37 34q47 46 81.5 96.5t54 84t31.5 58.5q16 34 41.5 46.5
t48.5 -1.5q39 -23 7 -96q-11 -25 -53 -88q-34 -52 -85 -112q9 -25 55 -102q52 -90 76 -122q21 -31 15.5 -55.5t-28.5 -36.5q-37 -20 -90 41q-19 22 -63 107q-31 57 -43 88q-29 -25 -53 -35q-3 -1 -8 -4l-25 -10q-3 -153 -12 -165q-17 -22 -45 -22q-23 0 -36.5 10.5
t-14.5 43.5q-2 49 -2.5 288t3.5 265q10 30 41 30q18 0 34.5 -10.5t24.5 -29.5z" />
    <glyph glyph-name="uni0137" unicode="&#x137;" horiz-adv-x="409" 
d="M123 -67q16 30 39.5 43t48.5 1q19 -10 25 -27.5t2 -33t-14 -37.5q-29 -63 -79 -99.5t-78 -12.5q-10 9 -11 23t7 33.5t16.5 35t23 39.5t20.5 35zM134 637q9 -25 9 -109q0 -25 -0.5 -80.5t-0.5 -115.5v-90q9 8 17 18l4 4q5 5 9 11q19 23 33.5 44t28.5 47t21.5 41t17.5 37
t11 24q10 20 26.5 28.5t33 6t28.5 -13.5q35 -31 2 -104q-18 -40 -92 -132q-12 -15 -23 -28q1 -1 1 -3q8 -12 18.5 -25.5t18 -23t21.5 -24.5t19 -20.5t19.5 -20.5t14.5 -16q17 -17 18.5 -36.5t-7.5 -33.5t-24 -22q-37 -20 -90 41q-19 22 -44 58q-24 34 -37 58
q-18 -13 -34 -20q-2 -1 -7 -3q-3 -1 -6 -3q-4 -99 -11 -109q-17 -22 -45 -22q-23 0 -36.5 10.5t-14.5 43.5q-2 49 -2.5 308t3.5 285q10 30 41 30q18 0 34.5 -10.5t24.5 -29.5z" />
    <glyph glyph-name="kgreenlandic" unicode="&#x138;" horiz-adv-x="409" 
d="M134 487q9 -25 9 -109q0 -13 -0.5 -33.5t-0.5 -22.5v-78l6 6q29 30 52 68.5t37.5 67t30 64t16.5 38.5q10 20 26.5 28.5t33 6t28.5 -13.5q35 -31 2 -104q-10 -23 -44 -76q-30 -47 -74 -99l4 -8q8 -12 18.5 -25.5t18 -23t21.5 -24.5t19 -20.5t19.5 -20.5t14.5 -16
q17 -17 18.5 -36.5t-7.5 -33.5t-24 -22q-37 -20 -90 41q-19 22 -44 58q-25 35 -38 59q-18 -14 -33 -21q-2 -1 -7 -3q-3 -1 -6 -3q-3 -99 -11 -109q-17 -22 -45 -22q-23 0 -36.5 10.5t-14.5 43.5q-3 49 -3 232.5t4 210.5q10 30 41 30q18 0 34.5 -10.5t24.5 -29.5z" />
    <glyph glyph-name="Lacute" unicode="&#x139;" horiz-adv-x="426" 
d="M71 672q-3 7 -3.5 13t2 12.5t6 11.5t10 12t12 12.5t14.5 14t16 15.5q65 65 102 40q19 -12 23 -29t-4.5 -33t-19 -29t-23.5 -24q-30 -25 -59 -34.5t-48.5 -4t-27.5 22.5zM58 590q3 21 20 32.5t35 11.5t33 -13.5t15 -37.5q0 -18 -9.5 -120.5t-12.5 -175.5q-2 -52 -2 -121
q0 -42 15.5 -61.5t46.5 -18.5q32 1 88 9q8 2 31.5 6t27 4h19.5q36 -8 35 -45q-1 -31 -38 -47q-57 -24 -133 -31q-93 -8 -144.5 27t-53.5 127q-1 68 10.5 244.5t16.5 209.5z" />
    <glyph glyph-name="lacute" unicode="&#x13a;" horiz-adv-x="180" 
d="M48 725q-3 7 -3.5 13t2 12.5t6 11.5t10 12t12 12.5t14.5 14t16 15.5q65 65 102 40q19 -12 23 -29t-4.5 -33t-19 -29t-23.5 -24q-30 -25 -59 -34.5t-48.5 -4t-27.5 22.5zM145 651q5 -19 5 -113q0 -25 -0.5 -95.5t-0.5 -130.5v-35v-36v-32.5t-0.5 -32.5t-1 -28.5
t-1.5 -28.5t-3 -24t-4 -22.5t-5 -17.5q-18 -55 -63 -55q-18 0 -29.5 13t-11.5 37q-1 49 5.5 322t10.5 285q5 14 17.5 22t28.5 8q18 0 33.5 -10t19.5 -26z" />
    <glyph glyph-name="uni013B" unicode="&#x13b;" horiz-adv-x="426" 
d="M157 -87q16 30 39.5 43t48.5 1q19 -10 25 -27.5t2 -33t-14 -37.5q-29 -63 -79 -99.5t-78 -12.5q-10 9 -11 23t7 33.5t16.5 35t23 39.5t20.5 35zM58 590q3 21 20 32.5t35 11.5t33 -13.5t15 -37.5q0 -18 -9.5 -120.5t-12.5 -175.5q-2 -52 -2 -121q0 -42 15.5 -61.5
t46.5 -18.5q32 1 88 9q8 2 31.5 6t27 4h19.5q36 -8 35 -45q-1 -31 -38 -47q-57 -24 -133 -31q-93 -8 -144.5 27t-53.5 127q-1 68 10.5 244.5t16.5 209.5z" />
    <glyph glyph-name="uni013C" unicode="&#x13c;" horiz-adv-x="180" 
d="M-1 -69q16 30 39.5 43t48.5 1q19 -10 25 -27.5t2 -33t-14 -37.5q-29 -63 -79 -99.5t-78 -12.5q-10 9 -11 23t7 33.5t16.5 35t23 39.5t20.5 35zM145 651q5 -19 5 -113q0 -25 -0.5 -95.5t-0.5 -130.5v-35v-36v-32.5t-0.5 -32.5t-1 -28.5t-1.5 -28.5t-3 -24t-4 -22.5
t-5 -17.5q-18 -55 -63 -55q-18 0 -29.5 13t-11.5 37q-1 49 5.5 322t10.5 285q5 14 17.5 22t28.5 8q18 0 33.5 -10t19.5 -26z" />
    <glyph glyph-name="Lcaron" unicode="&#x13d;" horiz-adv-x="426" 
d="M273 557q16 30 39.5 43t48.5 1q19 -10 25 -27.5t2 -33t-14 -37.5q-29 -63 -79 -99.5t-78 -12.5q-10 9 -11 23t7 33.5t16.5 35t23 39.5t20.5 35zM58 590q3 21 20 32.5t35 11.5t33 -13.5t15 -37.5q0 -18 -9.5 -120.5t-12.5 -175.5q-2 -52 -2 -121q0 -42 15.5 -61.5
t46.5 -18.5q32 1 88 9q8 2 31.5 6t27 4h19.5q36 -8 35 -45q-1 -31 -38 -47q-57 -24 -133 -31q-93 -8 -144.5 27t-53.5 127q-1 68 10.5 244.5t16.5 209.5z" />
    <glyph glyph-name="lcaron" unicode="&#x13e;" horiz-adv-x="343" 
d="M223 629q16 30 39.5 43t48.5 1q19 -10 25 -27.5t2 -33t-14 -37.5q-29 -63 -79 -99.5t-78 -12.5q-10 9 -11 23t7 33.5t16.5 35t23 39.5t20.5 35zM145 651q5 -19 5 -113q0 -25 -0.5 -95.5t-0.5 -130.5v-35v-36v-32.5t-0.5 -32.5t-1 -28.5t-1.5 -28.5t-3 -24t-4 -22.5
t-5 -17.5q-18 -55 -63 -55q-18 0 -29.5 13t-11.5 37q-1 49 5.5 322t10.5 285q5 14 17.5 22t28.5 8q18 0 33.5 -10t19.5 -26z" />
    <glyph glyph-name="Ldot" unicode="&#x13f;" horiz-adv-x="426" 
d="M242 307q-2 31 18.5 50t50.5 20q32 1 50 -19t20 -51q2 -32 -16.5 -49.5t-53.5 -19.5q-33 -2 -49.5 14.5t-19.5 54.5zM58 590q3 21 20 32.5t35 11.5t33 -13.5t15 -37.5q0 -18 -9.5 -120.5t-12.5 -175.5q-2 -52 -2 -121q0 -42 15.5 -61.5t46.5 -18.5q32 1 88 9q8 2 31.5 6
t27 4h19.5q36 -8 35 -45q-1 -31 -38 -47q-57 -24 -133 -31q-93 -8 -144.5 27t-53.5 127q-1 68 10.5 244.5t16.5 209.5z" />
    <glyph glyph-name="ldot" unicode="&#x140;" horiz-adv-x="345" 
d="M189 329q-2 31 18.5 50t50.5 20q32 1 50 -19t20 -51q2 -32 -16.5 -49.5t-53.5 -19.5q-33 -2 -49.5 14.5t-19.5 54.5zM145 651q5 -19 5 -113q0 -25 -0.5 -95.5t-0.5 -130.5v-35v-36v-32.5t-0.5 -32.5t-1 -28.5t-1.5 -28.5t-3 -24t-4 -22.5t-5 -17.5q-18 -55 -63 -55
q-18 0 -29.5 13t-11.5 37q-1 49 5.5 322t10.5 285q5 14 17.5 22t28.5 8q18 0 33.5 -10t19.5 -26z" />
    <glyph glyph-name="Lslash" unicode="&#x141;" horiz-adv-x="448" 
d="M193 334q2 1 12.5 4t12.5 4t10.5 3.5t11 3t9.5 2.5t10 2t9.5 1t11 0.5t10 -1t10.5 -1.5q19 -4 29.5 -19t9.5 -32.5t-14 -28.5q-9 -7 -17.5 -13t-21.5 -11.5t-20.5 -8t-29.5 -9.5t-34 -11t-31 -12l-12 -4v-37q0 -42 15.5 -61.5t46.5 -18.5q32 1 88 9q8 2 31.5 6t27 4h19.5
q36 -8 35 -45q-1 -31 -38 -47q-57 -24 -133 -31q-93 -8 -144.5 27t-53.5 127q0 20 1 51q-13 3 -20 12q-14 15 -12.5 34t16.5 29q8 7 19 14q3 46 7 104q11 177 16 210q3 21 20 32.5t35 11.5t33 -13.5t15 -37.5q0 -18 -9 -121q-8 -77 -11 -138q14 5 30 10z" />
    <glyph glyph-name="lslash" unicode="&#x142;" horiz-adv-x="341" 
d="M201 651q5 -19 5 -113v-96q-1 -16 -1 -33q7 3 9 3q2 1 10.5 3.5t11 3t9.5 2.5t10 2t9.5 1t11 0.5t10 -1t10.5 -1.5q19 -4 29.5 -19t9.5 -32.5t-14 -28.5q-9 -7 -17.5 -13t-21.5 -11.5t-20.5 -8t-29.5 -9.5q-16 -5 -27 -9v-14v-36v-32.5t-0.5 -32.5t-1 -28.5t-1.5 -28.5
t-3 -24t-4 -22.5t-5 -17.5q-18 -55 -63 -55q-18 0 -29.5 13t-11.5 37q-1 37 3 204q-10 -1 -18 0q-27 0 -41 15t-12.5 34t16.5 29q22 18 57 35q0 2 1 5q6 273 10 285q5 14 17.5 22t28.5 8q18 0 33.5 -10t19.5 -26z" />
    <glyph glyph-name="Nacute" unicode="&#x143;" horiz-adv-x="488" 
d="M198 669q-3 7 -3.5 13t2 12.5t6 11.5t10 12t12 12.5t14.5 14t16 15.5q65 65 102 40q19 -12 23 -29t-4.5 -33t-19 -29t-23.5 -24q-30 -25 -59 -34.5t-48.5 -4t-27.5 22.5zM82 635q32 4 68 -43t104 -187q12 -25 35.5 -77.5t41.5 -92.5l17 -40q6 364 6 404q0 31 23.5 41.5
t47.5 -16.5q8 -9 14 -22.5t9.5 -29.5t6 -35.5t3 -40.5t0.5 -45v-49v-52q1 -138 -7.5 -215.5t-25 -106t-45.5 -28.5q-15 0 -31 11t-28 25t-26.5 39.5t-22.5 42t-21 44.5l-114 245q3 -86 -8 -257q-9 -150 -56 -150q-24 0 -34 33.5t-9 126.5q2 71 3 183q2 184 9 236t40 56z" />
    <glyph glyph-name="nacute" unicode="&#x144;" horiz-adv-x="434" 
d="M179 551q-3 7 -3.5 13t2 12.5t6 11.5t10 12t12 12.5t14.5 14t16 15.5q65 65 102 40q19 -12 23 -29t-4.5 -33t-19 -29t-23.5 -24q-30 -25 -59 -34.5t-48.5 -4t-27.5 22.5zM242 519q48 8 79.5 -10.5t55.5 -66.5q15 -30 22.5 -69t8 -95t-0.5 -83t-4 -91q-2 -32 -10 -54
t-20 -32t-21.5 -14t-18.5 -4t-15.5 2t-13.5 7.5t-10 19t-1 34.5q3 35 3 130q0 44 -0.5 71t-2.5 56.5t-6 45t-10.5 29t-16.5 17t-25 0.5q-45 -10 -73 -68q-17 -33 -24 -81v-82q0 -81 -2 -112q1 -4 1 -6q0 -22 -4.5 -36t-13.5 -19t-15 -6.5t-17 -1.5q-53 0 -55 59
q-2 53 -2 224t3 199q3 13 18 22t29 9q17 0 36.5 -11t25.5 -31q1 -3 1 -6q5 4 9 9q44 37 90 45z" />
    <glyph glyph-name="uni0145" unicode="&#x145;" horiz-adv-x="488" 
d="M161 -65q16 30 39.5 43t48.5 1q19 -10 25 -27.5t2 -33t-14 -37.5q-29 -63 -79 -99.5t-78 -12.5q-10 9 -11 23t7 33.5t16.5 35t23 39.5t20.5 35zM82 635q32 4 68 -43t104 -187q12 -25 35.5 -77.5t41.5 -92.5l17 -40q6 364 6 404q0 31 23.5 41.5t47.5 -16.5q8 -9 14 -22.5
t9.5 -29.5t6 -35.5t3 -40.5t0.5 -45v-49v-52q1 -138 -7.5 -215.5t-25 -106t-45.5 -28.5q-15 0 -31 11t-28 25t-26.5 39.5t-22.5 42t-21 44.5l-114 245q3 -86 -8 -257q-9 -150 -56 -150q-24 0 -34 33.5t-9 126.5q2 71 3 183q2 184 9 236t40 56z" />
    <glyph glyph-name="uni0146" unicode="&#x146;" horiz-adv-x="434" 
d="M146 -65q16 30 39.5 43t48.5 1q19 -10 25 -27.5t2 -33t-14 -37.5q-29 -63 -79 -99.5t-78 -12.5q-10 9 -11 23t7 33.5t16.5 35t23 39.5t20.5 35zM242 519q48 8 79.5 -10.5t55.5 -66.5q15 -30 22.5 -69t8 -95t-0.5 -83t-4 -91q-2 -32 -10 -54t-20 -32t-21.5 -14t-18.5 -4
t-15.5 2t-13.5 7.5t-10 19t-1 34.5q3 35 3 130q0 44 -0.5 71t-2.5 56.5t-6 45t-10.5 29t-16.5 17t-25 0.5q-45 -10 -73 -68q-17 -33 -24 -81v-82q0 -81 -2 -112q1 -4 1 -6q0 -22 -4.5 -36t-13.5 -19t-15 -6.5t-17 -1.5q-53 0 -55 59q-2 53 -2 224t3 199q3 13 18 22t29 9
q17 0 36.5 -11t25.5 -31q1 -3 1 -6q5 4 9 9q44 37 90 45z" />
    <glyph glyph-name="Ncaron" unicode="&#x147;" horiz-adv-x="488" 
d="M346 832q48 -20 -13 -127q-12 -21 -35.5 -40.5t-53.5 -23.5q-50 -6 -90 64q-19 33 -26.5 53t-5 36.5t19.5 27.5q22 13 54 -12.5t51 -65.5q23 47 49.5 72t49.5 16zM82 635q32 4 68 -43t104 -187q12 -25 35.5 -77.5t41.5 -92.5l17 -40q6 364 6 404q0 31 23.5 41.5
t47.5 -16.5q8 -9 14 -22.5t9.5 -29.5t6 -35.5t3 -40.5t0.5 -45v-49v-52q1 -138 -7.5 -215.5t-25 -106t-45.5 -28.5q-15 0 -31 11t-28 25t-26.5 39.5t-22.5 42t-21 44.5l-114 245q3 -86 -8 -257q-9 -150 -56 -150q-24 0 -34 33.5t-9 126.5q2 71 3 183q2 184 9 236t40 56z" />
    <glyph glyph-name="ncaron" unicode="&#x148;" horiz-adv-x="434" 
d="M327 714q48 -20 -13 -127q-12 -21 -35.5 -40.5t-53.5 -23.5q-50 -6 -90 64q-19 33 -26.5 53t-5 36.5t19.5 27.5q22 13 54 -12.5t51 -65.5q23 47 49.5 72t49.5 16zM242 519q48 8 79.5 -10.5t55.5 -66.5q15 -30 22.5 -69t8 -95t-0.5 -83t-4 -91q-2 -32 -10 -54t-20 -32
t-21.5 -14t-18.5 -4t-15.5 2t-13.5 7.5t-10 19t-1 34.5q3 35 3 130q0 44 -0.5 71t-2.5 56.5t-6 45t-10.5 29t-16.5 17t-25 0.5q-45 -10 -73 -68q-17 -33 -24 -81v-82q0 -81 -2 -112q1 -4 1 -6q0 -22 -4.5 -36t-13.5 -19t-15 -6.5t-17 -1.5q-53 0 -55 59q-2 53 -2 224t3 199
q3 13 18 22t29 9q17 0 36.5 -11t25.5 -31q1 -3 1 -6q5 4 9 9q44 37 90 45z" />
    <glyph glyph-name="Eng" unicode="&#x14a;" horiz-adv-x="493" 
d="M82 635q32 2 68 -44.5t104 -185.5q12 -25 35.5 -77.5t41.5 -92.5l17 -40q6 364 6 404q0 31 23.5 41.5t47.5 -16.5q8 -9 14 -22.5t9.5 -29.5t6 -35.5t3 -40.5t0.5 -45v-49v-52v-17q8 -117 5 -208q-3 -102 -27 -154q-44 -98 -154 -111q-57 -7 -89 14.5t-38 51.5
q-5 25 9 41.5t40 16.5q13 0 34 -6.5t42 -2.5q12 2 22.5 6.5t23.5 14.5q9 7 16 20q-12 9 -21 20q-12 14 -26.5 39.5t-22.5 42t-21 44.5l-114 245q3 -86 -8 -257q-9 -150 -56 -150q-24 0 -34 33.5t-9 126.5q2 70 3 181q2 185 9 237t40 57z" />
    <glyph glyph-name="eng" unicode="&#x14b;" horiz-adv-x="434" 
d="M242 519q48 8 79.5 -10.5t55.5 -66.5q47 -96 26 -398q-3 -44 -18.5 -77.5t-39 -51.5t-49 -26.5t-53.5 -8.5q-16 0 -36 4.5t-40.5 12.5t-31.5 23.5t-7 35.5q5 20 18 29t26.5 8t35 -3.5t32.5 -1.5t19 5t14 11.5t10 18t6.5 23.5t4 29t2 33.5t1 37t-0.5 40.5v7q0 45 -0.5 71
t-2.5 56t-6 45.5t-10.5 29t-16.5 17t-25 0.5q-45 -10 -73 -68q-17 -33 -24 -81v-82q0 -81 -2 -112q1 -4 1 -6q0 -22 -4.5 -36t-13.5 -19t-15 -6.5t-17 -1.5q-53 0 -55 59q-2 53 -2 224t3 199q3 13 18 22t29 9q17 0 36.5 -11t25.5 -31q1 -3 1 -6q5 4 9 9q44 37 90 45z" />
    <glyph glyph-name="Omacron" unicode="&#x14c;" horiz-adv-x="516" 
d="M299 756q2 1 12 2.5t11.5 1.5t10 1t10.5 1t9 0.5t9.5 0t8.5 -0.5t9.5 -1t8.5 -2.5t10 -2.5q25 -10 27 -37.5t-17 -38.5q-10 -5 -18.5 -9t-20.5 -6.5t-19 -4t-28 -4t-33 -4.5q-11 -1 -29.5 -5t-28.5 -5.5t-29 -2.5t-31 2q-25 4 -35 20t-5 32t18 24q48 25 150 39zM271 531
q-62 -10 -100 -78t-39 -181q-1 -98 30.5 -141t91.5 -34q56 9 93 82t36 197q-1 85 -30 124t-82 31zM267 638q31 3 60.5 -2t60 -21.5t53 -43.5t36.5 -74t14 -108q0 -190 -68 -290t-179 -109q-109 -8 -165 69t-54 227q2 78 25.5 145t59 110t76.5 68t81 29z" />
    <glyph glyph-name="omacron" unicode="&#x14d;" 
d="M242 630q2 1 12 2.5t11.5 1.5t10 1t10.5 1t9 0.5t9.5 0t8.5 -0.5t9.5 -1t8.5 -2.5t10 -2.5q25 -10 27 -37.5t-17 -38.5q-10 -5 -18.5 -9t-20.5 -6.5t-19 -4t-28 -4t-33 -4.5q-11 -1 -29.5 -5t-28.5 -5.5t-29 -2.5t-31 2q-25 4 -35 20t-5 32t18 24q48 25 150 39zM220 405
q-39 -7 -61 -54t-23 -127q-1 -70 17 -99.5t56 -22.5q36 6 57.5 56.5t20.5 138.5q-1 60 -17 87t-50 21zM219 510q25 3 48.5 -1t47.5 -17t42 -35t29.5 -59.5t11.5 -86.5q0 -152 -54.5 -232t-142.5 -87t-133 55t-43 182q2 62 20.5 115.5t47 88t61.5 54.5t65 23z" />
    <glyph glyph-name="Obreve" unicode="&#x14e;" horiz-adv-x="516" 
d="M402 825q27 -13 26.5 -42.5t-22.5 -61.5q-42 -58 -120 -67q-77 -9 -124 51q-25 31 -27.5 62.5t23.5 47.5q17 7 27 3.5t21.5 -14t20.5 -21.5t24.5 -19t32.5 -7q22 2 38 16t24 28t22 22t34 2zM271 531q-62 -10 -100 -78t-39 -181q-1 -98 30.5 -141t91.5 -34q56 9 93 82
t36 197q-1 85 -30 124t-82 31zM267 638q31 3 60.5 -2t60 -21.5t53 -43.5t36.5 -74t14 -108q0 -190 -68 -290t-179 -109q-109 -8 -165 69t-54 227q2 78 25.5 145t59 110t76.5 68t81 29z" />
    <glyph glyph-name="obreve" unicode="&#x14f;" 
d="M345 699q27 -13 26.5 -42.5t-22.5 -61.5q-42 -58 -120 -67q-77 -9 -124 51q-25 31 -27.5 62.5t23.5 47.5q17 7 27 3.5t21.5 -14t20.5 -21.5t24.5 -19t32.5 -7q22 2 38 16t24 28t22 22t34 2zM220 405q-39 -7 -61 -54t-23 -127q-1 -70 17 -99.5t56 -22.5q36 6 57.5 56.5
t20.5 138.5q-1 60 -17 87t-50 21zM219 510q25 3 48.5 -1t47.5 -17t42 -35t29.5 -59.5t11.5 -86.5q0 -152 -54.5 -232t-142.5 -87t-133 55t-43 182q2 62 20.5 115.5t47 88t61.5 54.5t65 23z" />
    <glyph glyph-name="Ohungarumlaut" unicode="&#x150;" horiz-adv-x="516" 
d="M328 670q-6 9 -7 17t4 18.5t9.5 17t16 22.5t17.5 24q53 76 93 58q27 -11 29.5 -35t-7.5 -44t-25 -38q-25 -30 -52 -44.5t-47 -12.5t-31 17zM173 683q-5 8 -6.5 16.5t4 19t9.5 17t16 22.5t17 24q53 76 94 58q26 -12 29 -35.5t-7 -43.5t-26 -38q-25 -30 -52 -45t-47 -13
t-31 18zM271 531q-62 -10 -100 -78t-39 -181q-1 -98 30.5 -141t91.5 -34q56 9 93 82t36 197q-1 85 -30 124t-82 31zM267 638q31 3 60.5 -2t60 -21.5t53 -43.5t36.5 -74t14 -108q0 -190 -68 -290t-179 -109q-109 -8 -165 69t-54 227q2 78 25.5 145t59 110t76.5 68t81 29z" />
    <glyph glyph-name="ohungarumlaut" unicode="&#x151;" 
d="M271 544q-6 9 -7 17t4 18.5t9.5 17t16 22.5t17.5 24q53 76 93 58q27 -11 29.5 -35t-7.5 -44t-25 -38q-25 -30 -52 -44.5t-47 -12.5t-31 17zM116 557q-5 8 -6.5 16.5t4 19t9.5 17t16 22.5t17 24q53 76 94 58q26 -12 29 -35.5t-7 -43.5t-26 -38q-25 -30 -52 -45t-47 -13
t-31 18zM220 405q-39 -7 -61 -54t-23 -127q-1 -70 17 -99.5t56 -22.5q36 6 57.5 56.5t20.5 138.5q-1 60 -17 87t-50 21zM219 510q25 3 48.5 -1t47.5 -17t42 -35t29.5 -59.5t11.5 -86.5q0 -152 -54.5 -232t-142.5 -87t-133 55t-43 182q2 62 20.5 115.5t47 88t61.5 54.5t65 23
z" />
    <glyph glyph-name="OE" unicode="&#x152;" horiz-adv-x="791" 
d="M271 531q-62 -10 -100 -78t-39 -181q-1 -98 30.5 -141t91.5 -34q56 9 93 82t36 197q-1 85 -30 124t-82 31zM267 638q31 3 60.5 -2t60.5 -22q27 -14 48 -38q7 8 16 14q39 27 130 40q77 11 130 3q27 -5 38 -22.5t6 -35.5t-20 -26q-16 -8 -36 -13.5t-36 -8t-45.5 -6
t-48.5 -6.5q-31 -5 -43.5 -21t-15.5 -61q-3 -43 -5 -87q34 8 77 14q2 0 13 1.5t13 2t11 1.5t11.5 1t10 0.5t10.5 0t9.5 -0.5t10.5 -1t9.5 -2.5t10.5 -3.5q18 -7 26 -24t3.5 -34t-18.5 -25q-11 -6 -20 -10.5t-22.5 -7.5t-21.5 -4t-31 -4t-36 -5q-12 -2 -32.5 -6t-31.5 -6
q-2 0 -4 -1q0 -57 1 -77q2 -42 14 -56t43 -12q30 2 60 5.5t44.5 5.5t32 1t33.5 -7q22 -7 30.5 -26.5t-2 -40t-38.5 -29.5q-50 -16 -140 -16t-132 28q-33 22 -44 68q-64 -78 -162 -86q-109 -8 -165 69t-54 227q2 78 25.5 145t59 110t76.5 68t81 29z" />
    <glyph glyph-name="oe" unicode="&#x153;" horiz-adv-x="664" 
d="M406 290q7 1 16 2q37 2 56 4q28 3 53 8q4 14 4 44q-1 36 -16.5 49.5t-36.5 10.5q-19 -2 -38.5 -24t-27.5 -54q-1 -2 -3.5 -10.5t-4.5 -15.5q-1 -5 -2 -14zM220 405q-40 -7 -64 -54.5t-25 -126.5q-1 -69 19.5 -99t58.5 -23q36 6 60 57t23 138q-1 59 -19.5 86.5t-52.5 21.5
zM219 510q25 3 48.5 -1t47.5 -17t42 -35q6 -7 11 -16q48 58 121 68q27 4 53 -3.5t48.5 -26t36.5 -52.5t14 -78q0 -62 -13.5 -93t-52.5 -42q-41 -12 -124 -16q-28 -2 -49 -3q4 -101 68 -101q47 0 95 34q26 19 47 14t23 -26.5t-17 -51.5q-55 -79 -163 -72q-30 2 -57 13.5
t-52 34.5q-9 8 -17 20q-51 -62 -128 -68q-88 -7 -133 55t-43 182q2 62 20.5 115.5t47 88t61.5 54.5t65 23z" />
    <glyph glyph-name="Racute" unicode="&#x154;" horiz-adv-x="443" 
d="M190 672q-3 7 -3.5 13t2 12.5t6 11.5t10 12t12 12.5t14.5 14t16 15.5q65 65 102 40q19 -12 23 -29t-4.5 -33t-19 -29t-23.5 -24q-27 -23 -54 -33q51 -8 89 -40q52 -43 52 -122q0 -47 -29 -97q-21 -35 -52 -65q32 -20 53 -51q28 -42 33 -120q9 -129 -41 -161
q-23 -15 -43.5 3.5t-15.5 68.5q8 69 -10 126t-62 70l-6 2q-22 -10 -47 -19q-23 -7 -40 -9q-3 -173 -4 -177q-3 -23 -16.5 -42t-31.5 -22q-20 -3 -34 12.5t-14 40.5v274q2 90 6 143q-9 0 -18 2q-11 1 -24 5.5t-20.5 16.5t-5.5 30q3 34 44.5 65.5t97.5 50.5q37 12 71 16
q-8 6 -13 16zM153 331q9 3 19 8q15 7 38 22q43 27 64.5 53t21.5 59q0 79 -82 79q-25 0 -50 -12q-6 -3 -11 -6q2 -15 2 -33q2 -82 -2 -170v0z" />
    <glyph glyph-name="racute" unicode="&#x155;" horiz-adv-x="367" 
d="M150 560q-3 7 -3.5 13t2 12.5t6 11.5t10 12t12 12.5t14.5 14t16 15.5q65 65 102 40q19 -12 23 -29t-4.5 -33t-19 -29t-23.5 -24q-30 -25 -59 -34.5t-48.5 -4t-27.5 22.5zM245 524q23 0 40 -6t33.5 -23t25.5 -54.5t10 -93.5q1 -59 -57 -59q-47 0 -48 34q0 40 -4 60.5
t-9 26t-14 5.5q-39 0 -64 -55q-13 -29 -20 -78v-100q0 -81 -2 -112q1 -4 1 -6q0 -22 -4.5 -36t-13.5 -19t-15 -6.5t-17 -1.5q-53 0 -55 59q-2 53 -2 224t3 199q3 13 18 22t29 9q17 0 36.5 -11t25.5 -31v-1q6 7 13 13q43 41 90 41z" />
    <glyph glyph-name="uni0156" unicode="&#x156;" horiz-adv-x="443" 
d="M160 -67q16 30 39.5 43t48.5 1q19 -10 25 -27.5t2 -33t-14 -37.5q-29 -63 -79 -99.5t-78 -12.5q-10 9 -11 23t7 33.5t16.5 35t23 39.5t20.5 35zM153 331q9 3 19 8q15 7 38 22q43 27 64.5 53t21.5 59q0 79 -82 79q-25 0 -50 -12q-6 -3 -11 -6q2 -15 2 -33q2 -82 -2 -170v0
zM-10 524q3 34 44.5 65.5t97.5 50t104 18.5q73 0 124.5 -43t51.5 -122q0 -47 -29 -97q-21 -35 -52 -65q32 -20 53 -51q28 -42 33 -120q9 -129 -41 -161q-23 -15 -43.5 3.5t-15.5 68.5q8 69 -10 126t-62 70l-6 2q-22 -10 -47 -19q-23 -7 -40 -9q-3 -173 -4 -177
q-3 -23 -16.5 -42t-31.5 -22q-20 -3 -34 12.5t-14 40.5v274q2 90 6 143q-9 0 -18 2q-11 1 -24 5.5t-20.5 16.5t-5.5 30z" />
    <glyph glyph-name="uni0157" unicode="&#x157;" horiz-adv-x="367" 
d="M139 -68q16 30 39.5 43t48.5 1q19 -10 25 -27.5t2 -33t-14 -37.5q-29 -63 -79 -99.5t-78 -12.5q-10 9 -11 23t7 33.5t16.5 35t23 39.5t20.5 35zM245 524q23 0 40 -6t33.5 -23t25.5 -54.5t10 -93.5q1 -59 -57 -59q-47 0 -48 34q0 40 -4 60.5t-9 26t-14 5.5q-39 0 -64 -55
q-13 -29 -20 -78v-100q0 -81 -2 -112q1 -4 1 -6q0 -22 -4.5 -36t-13.5 -19t-15 -6.5t-17 -1.5q-53 0 -55 59q-2 53 -2 224t3 199q3 13 18 22t29 9q17 0 36.5 -11t25.5 -31v-1q6 7 13 13q43 41 90 41z" />
    <glyph glyph-name="Rcaron" unicode="&#x158;" horiz-adv-x="443" 
d="M338 865q48 -20 -13 -127q-12 -21 -35.5 -40.5t-53.5 -23.5q-50 -6 -90 64q-19 33 -26.5 53t-5 36.5t19.5 27.5q22 13 54 -12.5t51 -65.5q23 47 49.5 72t49.5 16zM153 331q9 3 19 8q15 7 38 22q43 27 64.5 53t21.5 59q0 79 -82 79q-25 0 -50 -12q-6 -3 -11 -6
q2 -15 2 -33q2 -82 -2 -170v0zM-10 524q3 34 44.5 65.5t97.5 50t104 18.5q73 0 124.5 -43t51.5 -122q0 -47 -29 -97q-21 -35 -52 -65q32 -20 53 -51q28 -42 33 -120q9 -129 -41 -161q-23 -15 -43.5 3.5t-15.5 68.5q8 69 -10 126t-62 70l-6 2q-22 -10 -47 -19q-23 -7 -40 -9
q-3 -173 -4 -177q-3 -23 -16.5 -42t-31.5 -22q-20 -3 -34 12.5t-14 40.5v274q2 90 6 143q-9 0 -18 2q-11 1 -24 5.5t-20.5 16.5t-5.5 30z" />
    <glyph glyph-name="rcaron" unicode="&#x159;" horiz-adv-x="367" 
d="M298 723q48 -20 -13 -127q-12 -21 -35.5 -40.5t-53.5 -23.5q-50 -6 -90 64q-19 33 -26.5 53t-5 36.5t19.5 27.5q22 13 54 -12.5t51 -65.5q23 47 49.5 72t49.5 16zM245 524q23 0 40 -6t33.5 -23t25.5 -54.5t10 -93.5q1 -59 -57 -59q-47 0 -48 34q0 40 -4 60.5t-9 26
t-14 5.5q-39 0 -64 -55q-13 -29 -20 -78v-100q0 -81 -2 -112q1 -4 1 -6q0 -22 -4.5 -36t-13.5 -19t-15 -6.5t-17 -1.5q-53 0 -55 59q-2 53 -2 224t3 199q3 13 18 22t29 9q17 0 36.5 -11t25.5 -31v-1q6 7 13 13q43 41 90 41z" />
    <glyph glyph-name="Sacute" unicode="&#x15a;" horiz-adv-x="507" 
d="M197 688q-3 7 -3.5 13t2 12.5t6 11.5t10 12t12 12.5t14.5 14t16 15.5q65 65 102 40q19 -12 23 -29t-4.5 -33t-19 -29t-23.5 -24q-30 -25 -59 -34.5t-48.5 -4t-27.5 22.5zM254 555q-49 0 -86.5 -33t-37.5 -72q0 -22 12 -34.5t32 -12.5q32 0 76 11t84 11q64 0 102 -46
t38 -113q0 -25 -1.5 -47t-8 -50.5t-17.5 -51t-31.5 -46.5t-47.5 -40t-68 -27.5t-92 -13.5q-41 -2 -72 9.5t-47.5 28.5t-26.5 39.5t-13 38.5t-3 30q0 19 14.5 33.5t37.5 14.5q22 0 37 -10.5t16 -31.5q2 -27 16 -38t55 -10q78 2 113 42t35 104q0 37 -18 63t-47 26
q-31 0 -79.5 -14.5t-83.5 -14.5q-50 0 -83.5 37t-33.5 90q0 48 20 88.5t50 65.5t66 42.5t65.5 24.5t51.5 7q53 0 87.5 -31t36.5 -90q1 -69 -50 -69q-15 0 -33 10t-18 27q-1 31 -11 42t-36 11z" />
    <glyph glyph-name="sacute" unicode="&#x15b;" horiz-adv-x="410" 
d="M153 552q-3 7 -3.5 13t2 12.5t6 11.5t10 12t12 12.5t14.5 14t16 15.5q65 65 102 40q19 -12 23 -29t-4.5 -33t-19 -29t-23.5 -24q-30 -25 -59 -34.5t-48.5 -4t-27.5 22.5zM209 424q-34 0 -57 -17t-23 -47q0 -18 10 -29t25.5 -11t50.5 7.5t58 7.5q51 0 81.5 -34.5
t30.5 -87.5q0 -30 -3.5 -54.5t-16 -56t-34 -53.5t-62.5 -38.5t-97 -18.5q-33 -1 -58 8t-38 22.5t-21.5 31.5t-10.5 30.5t-2 24.5q0 49 54 49q47 0 49 -30q1 -19 12.5 -26.5t25.5 -6.5q93 9 93 87q0 60 -51 60q-26 0 -57 -7t-59 -7q-36 0 -60 29.5t-24 84.5q0 38 16 70.5
t40 52.5t52.5 34t52.5 19.5t42 5.5q42 0 69.5 -24.5t29.5 -72.5q0 -28 -14.5 -43.5t-42.5 -15.5q-24 0 -33.5 8.5t-10.5 25.5q0 1 -1 3q0 7 -1 10.5t-4.5 6t-10.5 2.5z" />
    <glyph glyph-name="Scircumflex" unicode="&#x15c;" horiz-adv-x="507" 
d="M146 662q-27 13 -25.5 46t27.5 80q12 22 36 41.5t54 22.5q50 6 90 -64q26 -46 27 -73t-25 -43q-21 -13 -45 10.5t-44 66.5q-53 -104 -95 -87zM254 555q-49 0 -86.5 -33t-37.5 -72q0 -22 12 -34.5t32 -12.5q32 0 76 11t84 11q64 0 102 -46t38 -113q0 -25 -1.5 -47
t-8 -50.5t-17.5 -51t-31.5 -46.5t-47.5 -40t-68 -27.5t-92 -13.5q-41 -2 -72 9.5t-47.5 28.5t-26.5 39.5t-13 38.5t-3 30q0 19 14.5 33.5t37.5 14.5q22 0 37 -10.5t16 -31.5q2 -27 16 -38t55 -10q78 2 113 42t35 104q0 37 -18 63t-47 26q-31 0 -79.5 -14.5t-83.5 -14.5
q-50 0 -83.5 37t-33.5 90q0 48 20 88.5t50 65.5t66 42.5t65.5 24.5t51.5 7q53 0 87.5 -31t36.5 -90q1 -69 -50 -69q-15 0 -33 10t-18 27q-1 31 -11 42t-36 11z" />
    <glyph glyph-name="scircumflex" unicode="&#x15d;" horiz-adv-x="410" 
d="M102 526q-27 13 -25.5 46t27.5 80q12 22 36 41.5t54 22.5q50 6 90 -64q26 -46 27 -73t-25 -43q-21 -13 -45 10.5t-44 66.5q-53 -104 -95 -87zM209 424q-34 0 -57 -17t-23 -47q0 -18 10 -29t25.5 -11t50.5 7.5t58 7.5q51 0 81.5 -34.5t30.5 -87.5q0 -30 -3.5 -54.5
t-16 -56t-34 -53.5t-62.5 -38.5t-97 -18.5q-33 -1 -58 8t-38 22.5t-21.5 31.5t-10.5 30.5t-2 24.5q0 49 54 49q47 0 49 -30q1 -19 12.5 -26.5t25.5 -6.5q93 9 93 87q0 60 -51 60q-26 0 -57 -7t-59 -7q-36 0 -60 29.5t-24 84.5q0 38 16 70.5t40 52.5t52.5 34t52.5 19.5
t42 5.5q42 0 69.5 -24.5t29.5 -72.5q0 -28 -14.5 -43.5t-42.5 -15.5q-24 0 -33.5 8.5t-10.5 25.5q0 1 -1 3q0 7 -1 10.5t-4.5 6t-10.5 2.5z" />
    <glyph glyph-name="Scedilla" unicode="&#x15e;" horiz-adv-x="507" 
d="M254 555q-49 0 -86.5 -33t-37.5 -72q0 -22 12 -34.5t32 -12.5q32 0 76 11t84 11q64 0 102 -46t38 -113q0 -25 -1.5 -47t-8 -50.5t-17.5 -51t-31.5 -46.5t-47.5 -40t-68 -27q-7 -2 -13 -4l2 -6q6 -17 2 -32.5t-14 -37.5q-29 -63 -79 -99.5t-78 -12.5q-10 9 -11 23t7 33.5
t16.5 35t23 39.5t20.5 35q3 6 7 12q-26 2 -47 10q-31 11 -47.5 28t-26.5 39.5t-13 38.5t-3 30q0 19 14.5 33.5t37.5 14.5q22 0 37 -10.5t16 -31.5q2 -27 16 -38t55 -10q78 2 113 42t35 104q0 37 -18 63t-47 26q-31 0 -79.5 -14.5t-83.5 -14.5q-50 0 -83.5 37t-33.5 90
q0 48 20 88.5t50 65.5t66 42.5t65.5 24.5t51.5 7q53 0 87.5 -31t36.5 -90q1 -69 -50 -69q-15 0 -33 10t-18 27q-1 31 -11 42t-36 11z" />
    <glyph glyph-name="scedilla" unicode="&#x15f;" horiz-adv-x="410" 
d="M209 424q-34 0 -57 -17t-23 -47q0 -18 10 -29t25.5 -11t50.5 7.5t58 7.5q51 0 81.5 -34.5t30.5 -87.5q0 -30 -3.5 -54.5t-16 -56t-34 -53.5t-62.5 -39q-15 -6 -32 -10l2 -6q6 -17 2 -32.5t-14 -37.5q-29 -63 -79 -99.5t-78 -12.5q-10 9 -11 23t7 33.5t16.5 35t23 39.5
t20.5 35q5 9 10 16q-12 2 -22 6q-25 9 -38 22.5t-21.5 31.5t-10.5 30.5t-2 24.5q0 49 54 49q47 0 49 -30q1 -19 12.5 -26.5t25.5 -6.5q93 9 93 87q0 60 -51 60q-26 0 -57 -7t-59 -7q-36 0 -60 29.5t-24 84.5q0 38 16 70.5t40 52.5t52.5 34t52.5 19.5t42 5.5q42 0 69.5 -24.5
t29.5 -72.5q0 -28 -14.5 -43.5t-42.5 -15.5q-24 0 -33.5 8.5t-10.5 25.5q0 1 -1 3q0 7 -1 10.5t-4.5 6t-10.5 2.5z" />
    <glyph glyph-name="Scaron" unicode="&#x160;" horiz-adv-x="507" 
d="M345 851q48 -20 -13 -127q-12 -21 -35.5 -40.5t-53.5 -23.5q-50 -6 -90 64q-19 33 -26.5 53t-5 36.5t19.5 27.5q22 13 54 -12.5t51 -65.5q23 47 49.5 72t49.5 16zM254 555q-49 0 -86.5 -33t-37.5 -72q0 -22 12 -34.5t32 -12.5q32 0 76 11t84 11q64 0 102 -46t38 -113
q0 -25 -1.5 -47t-8 -50.5t-17.5 -51t-31.5 -46.5t-47.5 -40t-68 -27.5t-92 -13.5q-41 -2 -72 9.5t-47.5 28.5t-26.5 39.5t-13 38.5t-3 30q0 19 14.5 33.5t37.5 14.5q22 0 37 -10.5t16 -31.5q2 -27 16 -38t55 -10q78 2 113 42t35 104q0 37 -18 63t-47 26q-31 0 -79.5 -14.5
t-83.5 -14.5q-50 0 -83.5 37t-33.5 90q0 48 20 88.5t50 65.5t66 42.5t65.5 24.5t51.5 7q53 0 87.5 -31t36.5 -90q1 -69 -50 -69q-15 0 -33 10t-18 27q-1 31 -11 42t-36 11z" />
    <glyph glyph-name="scaron" unicode="&#x161;" horiz-adv-x="410" 
d="M301 715q48 -20 -13 -127q-12 -21 -35.5 -40.5t-53.5 -23.5q-50 -6 -90 64q-19 33 -26.5 53t-5 36.5t19.5 27.5q22 13 54 -12.5t51 -65.5q23 47 49.5 72t49.5 16zM209 424q-34 0 -57 -17t-23 -47q0 -18 10 -29t25.5 -11t50.5 7.5t58 7.5q51 0 81.5 -34.5t30.5 -87.5
q0 -30 -3.5 -54.5t-16 -56t-34 -53.5t-62.5 -38.5t-97 -18.5q-33 -1 -58 8t-38 22.5t-21.5 31.5t-10.5 30.5t-2 24.5q0 49 54 49q47 0 49 -30q1 -19 12.5 -26.5t25.5 -6.5q93 9 93 87q0 60 -51 60q-26 0 -57 -7t-59 -7q-36 0 -60 29.5t-24 84.5q0 38 16 70.5t40 52.5
t52.5 34t52.5 19.5t42 5.5q42 0 69.5 -24.5t29.5 -72.5q0 -28 -14.5 -43.5t-42.5 -15.5q-24 0 -33.5 8.5t-10.5 25.5q0 1 -1 3q0 7 -1 10.5t-4.5 6t-10.5 2.5z" />
    <glyph glyph-name="uni0162" unicode="&#x162;" horiz-adv-x="497" 
d="M30 524q1 43 61.5 75.5t162.5 39.5q118 8 166.5 -4t46.5 -54q-1 -19 -11.5 -29.5t-33 -14.5t-45 -5t-61.5 -2h-29q2 -26 2 -62q0 -25 -0.5 -60.5t-0.5 -95.5q0 -205 -15 -257q-5 -15 -12 -27q5 -7 8 -14q6 -18 2 -33.5t-14 -37.5q-29 -63 -79 -99.5t-78 -12.5
q-10 9 -11 23t7 33.5t16.5 35t23 39.5t20.5 35q11 21 25 33q-2 9 -2 20q-1 47 5 286q4 119 6 182q-5 -1 -10 -3q-30 -9 -52 -18.5t-32 -11.5q-28 -6 -47 4.5t-19 34.5z" />
    <glyph glyph-name="uni0163" unicode="&#x163;" horiz-adv-x="357" 
d="M256 9q4 -15 1 -29q-4 -15 -14 -37q-29 -63 -79 -99.5t-78 -12.5q-10 9 -11 23t7 33.5t16.5 35t23 39.5t20.5 35q1 1 2 3q-22 6 -42 22q-24 18 -37.5 56t-13.5 94q0 24 1 47t4.5 47t5.5 41t8 43q1 8 2 14q-14 1 -26 6q-18 7 -25.5 24t-3 34t17.5 25q26 15 49 21q6 1 13 3
q15 89 18 100q8 34 19.5 47.5t31.5 13.5q21 0 35 -12.5t15 -40.5q1 -31 -14 -92q13 1 20 1q17 0 58 -6q22 -4 31.5 -18.5t6 -30.5t-16.5 -26q-29 -22 -128 -37q-3 -13 -6 -29q-6 -32 -9 -67.5t-3 -71.5v-1q0 -38 0.5 -54t5.5 -33t15.5 -21t29.5 -2q27 4 59 32q43 37 71 18
q33 -22 0 -77q-18 -30 -57 -50q-12 -7 -23 -11z" />
    <glyph glyph-name="Tcaron" unicode="&#x164;" horiz-adv-x="497" 
d="M358 835q48 -20 -13 -127q-12 -21 -35.5 -40.5t-53.5 -23.5q-50 -6 -90 64q-19 33 -26.5 53t-5 36.5t19.5 27.5q22 13 54 -12.5t51 -65.5q23 47 49.5 72t49.5 16zM30 524q1 43 61.5 75.5t162.5 39.5q118 8 166.5 -4t46.5 -54q-1 -19 -11.5 -29.5t-33 -14.5t-45 -5
t-61.5 -2h-29q2 -26 2 -62q0 -25 -0.5 -60.5t-0.5 -95.5q0 -205 -15 -257q-7 -24 -21 -39.5t-32 -15.5q-19 0 -30 13t-11 37q-1 47 5 286q4 119 6 182q-5 -1 -10 -3q-30 -9 -52 -18.5t-32 -11.5q-28 -6 -47 4.5t-19 34.5z" />
    <glyph glyph-name="tcaron" unicode="&#x165;" horiz-adv-x="386" 
d="M313 709q16 30 39.5 43t48.5 1q19 -10 25 -27.5t2 -33t-14 -37.5q-29 -63 -79 -99.5t-78 -12.5q-10 9 -11 23t7 33.5t16.5 35t23 39.5t20.5 35zM208 -4q-32 -4 -57.5 2t-49 24t-37 56t-13.5 94q0 24 1 47t4.5 47t5.5 41t8 43q1 8 2 14q-14 1 -26 6q-18 7 -25.5 24t-3 34
t17.5 25q26 15 49 21q6 1 13 3q15 89 18 100q8 34 19.5 47.5t31.5 13.5q21 0 35 -12.5t15 -40.5q1 -31 -14 -92q13 1 20 1q17 0 58 -6q22 -4 31.5 -18.5t6 -30.5t-16.5 -26q-29 -22 -128 -37q-3 -13 -6 -29q-6 -32 -9 -67.5t-3 -71.5v-1q0 -38 0.5 -54t5.5 -33t15.5 -21
t29.5 -2q27 4 59 32q43 37 71 18q33 -22 0 -77q-18 -30 -57 -50.5t-71 -23.5z" />
    <glyph glyph-name="Tbar" unicode="&#x166;" horiz-adv-x="497" 
d="M30 524q1 43 61.5 75.5t162.5 39.5q118 8 166.5 -4t46.5 -54q-1 -19 -11.5 -29.5t-33 -14.5t-45 -5t-61.5 -2h-29q2 -26 2 -62q0 -25 -1 -60v-9q1 0 1 1q2 0 11 1t11.5 1t10 0.5t10.5 0t9.5 -0.5t10.5 -1t9.5 -2.5t10.5 -3.5q18 -7 25.5 -24t3.5 -34t-18 -25
q-11 -6 -20 -10.5t-23 -7.5t-21.5 -4t-30.5 -4v0q-1 -182 -15 -231q-7 -24 -21 -39.5t-32 -15.5q-19 0 -30 13t-11 37q-1 40 4 218q-11 -1 -27 -2q-22 -1 -35 2q-27 5 -38 22.5t-6 35.5t21 26q32 17 88 30q2 86 4 136q-5 -1 -10 -3q-30 -9 -52 -18.5t-32 -11.5
q-28 -6 -47 4.5t-19 34.5z" />
    <glyph glyph-name="tbar" unicode="&#x167;" horiz-adv-x="357" 
d="M208 -4q-32 -4 -57.5 2t-49 24t-37 56t-13.5 94v30q-1 1 -3 1q-27 4 -38 21.5t-6 35.5t21 26t36 15q1 3 1 6q2 17 8 43q1 8 2 14q-14 1 -26 6q-18 7 -25.5 24t-3 34t17.5 25q26 15 49 21q6 1 13 3q15 89 18 100q8 34 19.5 47.5t31.5 13.5q21 0 35 -12.5t15 -40.5
q1 -31 -14 -92q13 1 20 1q17 0 58 -6q22 -4 31.5 -18.5t6 -30.5t-16.5 -26q-29 -22 -128 -37q-3 -13 -6 -29q-2 -10 -4 -21q13 2 27 4q2 0 13 2t13 2t11 1t11.5 1t10 0.5t10.5 0.5t9.5 -0.5t10.5 -1.5t9.5 -2.5t10.5 -3.5q18 -7 26 -24t3.5 -34t-18.5 -25q-11 -6 -20 -10.5
t-23 -7.5t-21.5 -4t-30.5 -4t-36 -5q-9 -2 -24 -4v-3v-1q0 -38 0.5 -54t5.5 -33t15.5 -21t29.5 -2q27 4 59 32q43 37 71 18q33 -22 0 -77q-18 -30 -57 -50.5t-71 -23.5z" />
    <glyph glyph-name="Utilde" unicode="&#x168;" horiz-adv-x="502" 
d="M274 785q22 -15 62 3q26 13 44.5 7.5t28.5 -19t7 -33.5t-19 -35q-29 -27 -75.5 -29t-80.5 18q-18 9 -29 8t-33 -11q-26 -12 -44 -6t-27 19.5t-4.5 33t23.5 33.5q36 29 78 30t69 -19zM56 591q2 23 18 34t32 11q7 0 14.5 -2t18 -8.5t16 -23t3.5 -40.5q-12 -162 -30 -332
q-8 -72 20 -105t77 -27q56 7 85 35.5t42 94t13 188.5q0 106 -4 150q-4 48 10.5 63t38.5 15q56 0 62 -130q14 -263 -45 -397q-48 -111 -201 -127q-52 -6 -94 14t-66 56t-34.5 82.5t-4.5 93.5q15 105 29 355z" />
    <glyph glyph-name="utilde" unicode="&#x169;" horiz-adv-x="428" 
d="M231 658q22 -15 62 3q26 13 44.5 7.5t28.5 -19t7 -33.5t-19 -35q-29 -27 -75.5 -29t-80.5 18q-18 9 -29 8t-33 -11q-26 -12 -44 -6t-27 19.5t-4.5 33t23.5 33.5q36 29 78 30t69 -19zM181 -8q-34 -6 -65 8t-47 44q-50 90 -36 357q1 32 8 54.5t16.5 32.5t17.5 13.5t17 3.5
q10 0 18.5 -2t19.5 -7.5t16.5 -19t3.5 -33.5q-3 -35 -3 -120q0 -45 0.5 -75t2.5 -58.5t5.5 -45t9.5 -29t14.5 -16.5t20.5 -1q38 10 62.5 68t24.5 167q0 85 -3 120q-6 62 54 62q40 0 50 -36q11 -38 11 -121q0 -26 -0.5 -70.5t-0.5 -106.5q0 -85 -2 -115.5t-8 -41.5
q-13 -24 -41 -24q-54 0 -55 59v8q-7 -9 -14 -19q-19 -23 -43.5 -37t-53.5 -19z" />
    <glyph glyph-name="Umacron" unicode="&#x16a;" horiz-adv-x="502" 
d="M274 770q2 1 12 2.5t11.5 1.5t10 1t10.5 1t9 0.5t9.5 0t8.5 -0.5t9.5 -1t8.5 -2.5t10 -2.5q25 -10 27 -37.5t-17 -38.5q-10 -5 -18.5 -9t-20.5 -6.5t-19 -4t-28 -4t-33 -4.5q-11 -1 -29.5 -5t-28.5 -5.5t-29 -2.5t-31 2q-25 4 -35 20t-5 32t18 24q48 25 150 39zM56 591
q2 23 18 34t32 11q7 0 14.5 -2t18 -8.5t16 -23t3.5 -40.5q-12 -162 -30 -332q-8 -72 20 -105t77 -27q56 7 85 35.5t42 94t13 188.5q0 106 -4 150q-4 48 10.5 63t38.5 15q56 0 62 -130q14 -263 -45 -397q-48 -111 -201 -127q-52 -6 -94 14t-66 56t-34.5 82.5t-4.5 93.5
q15 105 29 355z" />
    <glyph glyph-name="umacron" unicode="&#x16b;" horiz-adv-x="428" 
d="M231 643q2 1 12 2.5t11.5 1.5t10 1t10.5 1t9 0.5t9.5 0t8.5 -0.5t9.5 -1t8.5 -2.5t10 -2.5q25 -10 27 -37.5t-17 -38.5q-10 -5 -18.5 -9t-20.5 -6.5t-19 -4t-28 -4t-33 -4.5q-11 -1 -29.5 -5t-28.5 -5.5t-29 -2.5t-31 2q-25 4 -35 20t-5 32t18 24q48 25 150 39zM181 -8
q-34 -6 -65 8t-47 44q-50 90 -36 357q1 32 8 54.5t16.5 32.5t17.5 13.5t17 3.5q10 0 18.5 -2t19.5 -7.5t16.5 -19t3.5 -33.5q-3 -35 -3 -120q0 -45 0.5 -75t2.5 -58.5t5.5 -45t9.5 -29t14.5 -16.5t20.5 -1q38 10 62.5 68t24.5 167q0 85 -3 120q-6 62 54 62q40 0 50 -36
q11 -38 11 -121q0 -26 -0.5 -70.5t-0.5 -106.5q0 -85 -2 -115.5t-8 -41.5q-13 -24 -41 -24q-54 0 -55 59v8q-7 -9 -14 -19q-19 -23 -43.5 -37t-53.5 -19z" />
    <glyph glyph-name="Ubreve" unicode="&#x16c;" horiz-adv-x="502" 
d="M377 839q27 -13 26.5 -42.5t-22.5 -61.5q-42 -58 -120 -67q-77 -9 -124 51q-25 31 -27.5 62.5t23.5 47.5q17 7 27 3.5t21.5 -14t20.5 -21.5t24.5 -19t32.5 -7q22 2 38 16t24 28t22 22t34 2zM56 591q2 23 18 34t32 11q7 0 14.5 -2t18 -8.5t16 -23t3.5 -40.5
q-12 -162 -30 -332q-8 -72 20 -105t77 -27q56 7 85 35.5t42 94t13 188.5q0 106 -4 150q-4 48 10.5 63t38.5 15q56 0 62 -130q14 -263 -45 -397q-48 -111 -201 -127q-52 -6 -94 14t-66 56t-34.5 82.5t-4.5 93.5q15 105 29 355z" />
    <glyph glyph-name="ubreve" unicode="&#x16d;" horiz-adv-x="428" 
d="M334 712q27 -13 26.5 -42.5t-22.5 -61.5q-42 -58 -120 -67q-77 -9 -124 51q-25 31 -27.5 62.5t23.5 47.5q17 7 27 3.5t21.5 -14t20.5 -21.5t24.5 -19t32.5 -7q22 2 38 16t24 28t22 22t34 2zM181 -8q-34 -6 -65 8t-47 44q-50 90 -36 357q1 32 8 54.5t16.5 32.5t17.5 13.5
t17 3.5q10 0 18.5 -2t19.5 -7.5t16.5 -19t3.5 -33.5q-3 -35 -3 -120q0 -45 0.5 -75t2.5 -58.5t5.5 -45t9.5 -29t14.5 -16.5t20.5 -1q38 10 62.5 68t24.5 167q0 85 -3 120q-6 62 54 62q40 0 50 -36q11 -38 11 -121q0 -26 -0.5 -70.5t-0.5 -106.5q0 -85 -2 -115.5t-8 -41.5
q-13 -24 -41 -24q-54 0 -55 59v8q-7 -9 -14 -19q-19 -23 -43.5 -37t-53.5 -19z" />
    <glyph glyph-name="Uring" unicode="&#x16e;" horiz-adv-x="502" 
d="M266 773q-21 -3 -22 -22q0 -18 19 -15q19 2 19 23q0 16 -16 14zM268 846q35 2 60.5 -15.5t25.5 -62.5q0 -102 -91 -105q-47 -2 -70 23.5t-22 62.5q2 46 31.5 70.5t65.5 26.5zM56 591q2 23 18 34t32 11q7 0 14.5 -2t18 -8.5t16 -23t3.5 -40.5q-12 -162 -30 -332
q-8 -72 20 -105t77 -27q56 7 85 35.5t42 94t13 188.5q0 106 -4 150q-4 48 10.5 63t38.5 15q56 0 62 -130q14 -263 -45 -397q-48 -111 -201 -127q-52 -6 -94 14t-66 56t-34.5 82.5t-4.5 93.5q15 105 29 355z" />
    <glyph glyph-name="uring" unicode="&#x16f;" horiz-adv-x="428" 
d="M223 646q-21 -3 -22 -22q0 -18 19 -15q19 2 19 23q0 16 -16 14zM225 719q35 2 60.5 -15.5t25.5 -62.5q0 -102 -91 -105q-47 -2 -70 23.5t-22 62.5q2 46 31.5 70.5t65.5 26.5zM181 -8q-34 -6 -65 8t-47 44q-50 90 -36 357q1 32 8 54.5t16.5 32.5t17.5 13.5t17 3.5
q10 0 18.5 -2t19.5 -7.5t16.5 -19t3.5 -33.5q-3 -35 -3 -120q0 -45 0.5 -75t2.5 -58.5t5.5 -45t9.5 -29t14.5 -16.5t20.5 -1q38 10 62.5 68t24.5 167q0 85 -3 120q-6 62 54 62q40 0 50 -36q11 -38 11 -121q0 -26 -0.5 -70.5t-0.5 -106.5q0 -85 -2 -115.5t-8 -41.5
q-13 -24 -41 -24q-54 0 -55 59v8q-7 -9 -14 -19q-19 -23 -43.5 -37t-53.5 -19z" />
    <glyph glyph-name="Uhungarumlaut" unicode="&#x170;" horiz-adv-x="502" 
d="M303 684q-6 9 -7 17t4 18.5t9.5 17t16 22.5t17.5 24q53 76 93 58q27 -11 29.5 -35t-7.5 -44t-25 -38q-25 -30 -52 -44.5t-47 -12.5t-31 17zM148 697q-5 8 -6.5 16.5t4 19t9.5 17t16 22.5t17 24q53 76 94 58q26 -12 29 -35.5t-7 -43.5t-26 -38q-25 -30 -52 -45t-47 -13
t-31 18zM56 591q2 23 18 34t32 11q7 0 14.5 -2t18 -8.5t16 -23t3.5 -40.5q-12 -162 -30 -332q-8 -72 20 -105t77 -27q56 7 85 35.5t42 94t13 188.5q0 106 -4 150q-4 48 10.5 63t38.5 15q56 0 62 -130q14 -263 -45 -397q-48 -111 -201 -127q-52 -6 -94 14t-66 56t-34.5 82.5
t-4.5 93.5q15 105 29 355z" />
    <glyph glyph-name="uhungarumlaut" unicode="&#x171;" horiz-adv-x="428" 
d="M260 557q-6 9 -7 17t4 18.5t9.5 17t16 22.5t17.5 24q53 76 93 58q27 -11 29.5 -35t-7.5 -44t-25 -38q-25 -30 -52 -44.5t-47 -12.5t-31 17zM105 570q-5 8 -6.5 16.5t4 19t9.5 17t16 22.5t17 24q53 76 94 58q26 -12 29 -35.5t-7 -43.5t-26 -38q-25 -30 -52 -45t-47 -13
t-31 18zM181 -8q-34 -6 -65 8t-47 44q-50 90 -36 357q1 32 8 54.5t16.5 32.5t17.5 13.5t17 3.5q10 0 18.5 -2t19.5 -7.5t16.5 -19t3.5 -33.5q-3 -35 -3 -120q0 -45 0.5 -75t2.5 -58.5t5.5 -45t9.5 -29t14.5 -16.5t20.5 -1q38 10 62.5 68t24.5 167q0 85 -3 120q-6 62 54 62
q40 0 50 -36q11 -38 11 -121q0 -26 -0.5 -70.5t-0.5 -106.5q0 -85 -2 -115.5t-8 -41.5q-13 -24 -41 -24q-54 0 -55 59v8q-7 -9 -14 -19q-19 -23 -43.5 -37t-53.5 -19z" />
    <glyph glyph-name="Uogonek" unicode="&#x172;" horiz-adv-x="502" 
d="M299 -106q2 -30 -26 -42t-67 -4q-32 6 -54 25t-25 51q-2 34 12 56q5 8 13 16q-10 3 -20 8q-42 20 -66 56t-34.5 82.5t-4.5 93.5q15 105 29 355q2 23 18 34t32 11q7 0 14.5 -2t18 -8.5t16 -23t3.5 -40.5q-12 -162 -30 -332q-8 -72 20 -105t77 -27q56 7 85 35.5t42 94
t13 188.5q0 106 -4 150q-4 48 10.5 63t38.5 15q56 0 62 -130q14 -263 -45 -397q-40 -92 -152 -119q-8 -11 -19 -18q-13 -8 -22.5 -18.5t-7.5 -20.5q1 -10 12.5 -12t24 -0.5t23.5 -6.5t13 -28z" />
    <glyph glyph-name="uogonek" unicode="&#x173;" horiz-adv-x="428" 
d="M393 -106q2 -30 -26 -42t-67 -4q-32 6 -54 25t-25 51q-2 34 12 56t41 39q11 8 22 13q-4 12 -4 27v8q-7 -9 -14 -19q-19 -23 -43.5 -37t-53.5 -19q-34 -6 -65 8t-47 44q-50 90 -36 357q1 32 8 54.5t16.5 32.5t17.5 13.5t17 3.5q10 0 18.5 -2t19.5 -7.5t16.5 -19t3.5 -33.5
q-3 -35 -3 -120q0 -45 0.5 -75t2.5 -58.5t5.5 -45t9.5 -29t14.5 -16.5t20.5 -1q38 10 62.5 68t24.5 167q0 85 -3 120q-6 62 54 62q40 0 50 -36q11 -38 11 -121q0 -26 -0.5 -70.5t-0.5 -106.5q0 -85 -2 -115.5t-8 -41.5q-5 -10 -13 -15q-2 -5 -5 -9q-8 -12 -20.5 -20
t-22 -18.5t-7.5 -20.5q1 -10 12.5 -12t24 -0.5t23.5 -6.5t13 -28z" />
    <glyph glyph-name="Wcircumflex" unicode="&#x174;" horiz-adv-x="542" 
d="M175 646q-27 13 -25.5 46t27.5 80q12 22 36 41.5t54 22.5q50 6 90 -64q26 -46 27 -73t-25 -43q-21 -13 -45 10.5t-44 66.5q-53 -104 -95 -87zM265 289q-10 -60 -20.5 -106t-26 -90.5t-35.5 -68.5t-44 -24q-35 0 -57.5 38.5t-40 140.5t-29.5 287q-11 159 48 165
q24 2 43 -33t26 -111q6 -67 12.5 -137t8.5 -99l3 -29q16 98 19 142q5 67 28.5 111t64.5 44q39 0 62 -47t31 -116q2 -20 8.5 -53t11.5 -57l5 -23q0 5 3 29q3 30 10.5 94.5t17.5 142.5q9 76 29 110.5t44 31.5q16 -2 26.5 -15.5t16 -51t1.5 -99.5q-10 -135 -25.5 -228.5
t-36 -143.5t-42 -71t-47.5 -22q-24 -1 -44 25t-33.5 70.5t-22.5 92t-15 101.5z" />
    <glyph glyph-name="wcircumflex" unicode="&#x175;" horiz-adv-x="437" 
d="M122 511q-27 13 -25.5 46t27.5 80q12 22 36 41.5t54 22.5q50 6 90 -64q26 -46 27 -73t-25 -43q-21 -13 -45 10.5t-44 66.5q-53 -104 -95 -87zM214 231q-40 -231 -101 -231q-28 0 -46 30.5t-32 112.5t-24 230q-8 127 41 131q21 3 40.5 -26t24.5 -89q5 -57 7 -110t2 -77
q-1 -14 -1 -20q12 75 15 109q3 54 22 89t52 35q31 0 49.5 -37.5t24.5 -92.5q2 -16 7 -42.5t9 -45.5l4 -19v9q-1 9 -0.5 27.5t1.5 43t4 60t8 73.5q7 60 27.5 88t40.5 25q46 -5 37 -132q-7 -108 -19.5 -183t-29 -115t-33.5 -56.5t-38 -17.5q-19 -1 -35 20t-27 56.5t-18 73.5
t-12 81z" />
    <glyph glyph-name="Ycircumflex" unicode="&#x176;" horiz-adv-x="453" 
d="M145 641q-27 13 -25.5 46t27.5 80q12 22 36 41.5t54 22.5q50 6 90 -64q26 -46 27 -73t-25 -43q-21 -13 -45 10.5t-44 66.5q-53 -104 -95 -87zM408 461q-25 -44 -113 -187q-49 -80 -112.5 -158.5t-93.5 -101.5q-54 -40 -82 -3q-11 14 -8.5 31t21.5 46q7 11 58 78
q38 51 78 106l-1 1q-109 145 -148 256q-28 81 22 102q16 5 31 4.5t29.5 -13.5t23.5 -37q35 -90 107 -220q27 41 43 71q3 5 10 19q8 16 12.5 24.5t14 26t16.5 29t17.5 28t18.5 27t18.5 23t19.5 19t18.5 11t18.5 4t17 -6.5q16 -11 18.5 -32t-8 -49.5t-20.5 -48.5t-26 -49z" />
    <glyph glyph-name="ycircumflex" unicode="&#x177;" horiz-adv-x="354" 
d="M112 530q-27 13 -25.5 46t27.5 80q12 22 36 41.5t54 22.5q50 6 90 -64q26 -46 27 -73t-25 -43q-21 -13 -45 10.5t-44 66.5q-53 -104 -95 -87zM354 423q-25 -108 -98 -291q-72 -181 -137 -270q-20 -27 -46 -34t-40 8q-30 27 -6 86q5 12 61 124q23 45 40 82q-7 7 -13 17
q-89 158 -113 273q-18 85 35 99q26 6 47 -6.5t30 -50.5q21 -85 69 -208q7 21 16 49q14 46 24.5 81.5t23.5 69.5t29.5 52t36.5 16q24 -2 37.5 -28t3.5 -69z" />
    <glyph glyph-name="Ydieresis" unicode="&#x178;" horiz-adv-x="453" 
d="M262 713q-2 31 19.5 49t52.5 18q37 0 55 -20t15 -50q-3 -33 -20 -48t-53 -18q-32 -3 -49 11.5t-20 57.5zM85 710q-2 31 18.5 50t50.5 20q32 1 50 -19t20 -51q2 -32 -16.5 -49.5t-53.5 -19.5q-33 -2 -49.5 14.5t-19.5 54.5zM408 461q-25 -44 -113 -187
q-49 -80 -112.5 -158.5t-93.5 -101.5q-54 -40 -82 -3q-11 14 -8.5 31t21.5 46q7 11 58 78q38 51 78 106l-1 1q-109 145 -148 256q-28 81 22 102q16 5 31 4.5t29.5 -13.5t23.5 -37q35 -90 107 -220q27 41 43 71q3 5 10 19q8 16 12.5 24.5t14 26t16.5 29t17.5 28t18.5 27
t18.5 23t19.5 19t18.5 11t18.5 4t17 -6.5q16 -11 18.5 -32t-8 -49.5t-20.5 -48.5t-26 -49z" />
    <glyph glyph-name="Zacute" unicode="&#x179;" horiz-adv-x="480" 
d="M201 682q-3 7 -3.5 13t2 12.5t6 11.5t10 12t12 12.5t14.5 14t16 15.5q65 65 102 40q19 -12 23 -29t-4.5 -33t-19 -29t-23.5 -24q-30 -25 -59 -34.5t-48.5 -4t-27.5 22.5zM451 538q-14 -26 -80 -133.5t-81 -133.5q-29 -51 -88 -126q-7 -9 -14 -17q27 4 58 6
q118 8 166.5 -4t46.5 -54q-1 -14 -6.5 -23.5t-17.5 -15.5t-25 -10t-34.5 -6t-39.5 -3t-47 -2.5t-51 -3.5q-135 -12 -150 -12q-32 0 -49 8q-5 3 -9 7l-1 1q-13 12 -13.5 28.5t12.5 49.5q8 19 40 66t79 112.5t74 107.5q14 22 40 67t45 75q1 2 3 5q-9 -1 -20 -1q-29 -2 -51 -4
q-135 -12 -150 -12q-29 0 -47.5 13t-18.5 36q1 40 56 58.5t168 26.5q118 8 166 -4q8 -2 15 -5q2 0 4 -1q15 -5 24.5 -16.5t9 -32t-13.5 -47.5z" />
    <glyph glyph-name="zacute" unicode="&#x17a;" horiz-adv-x="390" 
d="M163 547q-3 7 -3.5 13t2 12.5t6 11.5t10 12t12 12.5t14.5 14t16 15.5q65 65 102 40q19 -12 23 -29t-4.5 -33t-19 -29t-23.5 -24q-30 -25 -59 -34.5t-48.5 -4t-27.5 22.5zM364 430q-11 -20 -64 -106.5t-65 -106.5q-21 -38 -64 -93q14 2 29 3q97 7 135 -6t35 -60
q0 -11 -4.5 -19t-14 -12.5t-20 -7.5t-28 -5t-32 -2.5t-37.5 -2t-40 -2.5q-109 -10 -120 -10q-20 0 -33 4q-8 3 -15 9q-10 9 -10.5 22.5t10.5 39.5q10 26 56 105t87 144q3 3 7 10q19 29 29 44q6 9 15 22q-12 -1 -26 -2q-109 -10 -120 -10q-54 0 -53 49q1 65 179 78
q95 7 134 -3q7 -2 12 -5h2q19 -7 25 -24.5t-9 -52.5z" />
    <glyph glyph-name="Zdotaccent" unicode="&#x17b;" horiz-adv-x="480" 
d="M174 727q1 32 20.5 50.5t48.5 19.5q35 0 53.5 -20t16.5 -50q-6 -72 -70 -69q-35 1 -52.5 17t-16.5 52zM451 538q-14 -26 -80 -133.5t-81 -133.5q-29 -51 -88 -126q-7 -9 -14 -17q27 4 58 6q118 8 166.5 -4t46.5 -54q-1 -14 -6.5 -23.5t-17.5 -15.5t-25 -10t-34.5 -6
t-39.5 -3t-47 -2.5t-51 -3.5q-135 -12 -150 -12q-32 0 -49 8q-5 3 -9 7l-1 1q-13 12 -13.5 28.5t12.5 49.5q8 19 40 66t79 112.5t74 107.5q14 22 40 67t45 75q1 2 3 5q-9 -1 -20 -1q-29 -2 -51 -4q-135 -12 -150 -12q-29 0 -47.5 13t-18.5 36q1 40 56 58.5t168 26.5
q118 8 166 -4q8 -2 15 -5q2 0 4 -1q15 -5 24.5 -16.5t9 -32t-13.5 -47.5z" />
    <glyph glyph-name="zdotaccent" unicode="&#x17c;" horiz-adv-x="390" 
d="M136 592q1 32 20.5 50.5t48.5 19.5q35 0 53.5 -20t16.5 -50q-6 -72 -70 -69q-35 1 -52.5 17t-16.5 52zM364 430q-11 -20 -64 -106.5t-65 -106.5q-21 -38 -64 -93q14 2 29 3q97 7 135 -6t35 -60q0 -11 -4.5 -19t-14 -12.5t-20 -7.5t-28 -5t-32 -2.5t-37.5 -2t-40 -2.5
q-109 -10 -120 -10q-20 0 -33 4q-8 3 -15 9q-10 9 -10.5 22.5t10.5 39.5q10 26 56 105t87 144q3 3 7 10q19 29 29 44q6 9 15 22q-12 -1 -26 -2q-109 -10 -120 -10q-54 0 -53 49q1 65 179 78q95 7 134 -3q7 -2 12 -5h2q19 -7 25 -24.5t-9 -52.5z" />
    <glyph glyph-name="Zcaron" unicode="&#x17d;" horiz-adv-x="480" 
d="M349 845q48 -20 -13 -127q-12 -21 -35.5 -40.5t-53.5 -23.5q-50 -6 -90 64q-19 33 -26.5 53t-5 36.5t19.5 27.5q22 13 54 -12.5t51 -65.5q23 47 49.5 72t49.5 16zM451 538q-14 -26 -80 -133.5t-81 -133.5q-29 -51 -88 -126q-7 -9 -14 -17q27 4 58 6q118 8 166.5 -4
t46.5 -54q-1 -14 -6.5 -23.5t-17.5 -15.5t-25 -10t-34.5 -6t-39.5 -3t-47 -2.5t-51 -3.5q-135 -12 -150 -12q-32 0 -49 8q-5 3 -9 7l-1 1q-13 12 -13.5 28.5t12.5 49.5q8 19 40 66t79 112.5t74 107.5q14 22 40 67t45 75q1 2 3 5q-9 -1 -20 -1q-29 -2 -51 -4
q-135 -12 -150 -12q-29 0 -47.5 13t-18.5 36q1 40 56 58.5t168 26.5q118 8 166 -4q8 -2 15 -5q2 0 4 -1q15 -5 24.5 -16.5t9 -32t-13.5 -47.5z" />
    <glyph glyph-name="zcaron" unicode="&#x17e;" horiz-adv-x="390" 
d="M311 710q48 -20 -13 -127q-12 -21 -35.5 -40.5t-53.5 -23.5q-50 -6 -90 64q-19 33 -26.5 53t-5 36.5t19.5 27.5q22 13 54 -12.5t51 -65.5q23 47 49.5 72t49.5 16zM364 430q-11 -20 -64 -106.5t-65 -106.5q-21 -38 -64 -93q14 2 29 3q97 7 135 -6t35 -60q0 -11 -4.5 -19
t-14 -12.5t-20 -7.5t-28 -5t-32 -2.5t-37.5 -2t-40 -2.5q-109 -10 -120 -10q-20 0 -33 4q-8 3 -15 9q-10 9 -10.5 22.5t10.5 39.5q10 26 56 105t87 144q3 3 7 10q19 29 29 44q6 9 15 22q-12 -1 -26 -2q-109 -10 -120 -10q-54 0 -53 49q1 65 179 78q95 7 134 -3q7 -2 12 -5h2
q19 -7 25 -24.5t-9 -52.5z" />
    <glyph glyph-name="longs" unicode="&#x17f;" horiz-adv-x="321" 
d="M138 155q4 -98 -3 -123q-9 -32 -48 -32q-23 0 -36 10.5t-15 43.5q-3 46 -4.5 189.5t3.5 245.5q7 75 38 118.5t92 54.5q28 6 42.5 6t43.5 -5q20 -4 28 -21t4 -35t-15 -25q-5 -4 -10 -7t-11 -5.5t-9.5 -4.5t-10 -3.5t-9 -2.5t-9.5 -2t-9 -1t-10.5 -1t-9.5 -2
q-23 -3 -33 -30.5t-11 -92.5q-2 -159 2 -275z" />
    <glyph glyph-name="uni018F" unicode="&#x18f;" horiz-adv-x="503" 
d="M362 394q2 86 -26 120q-31 36 -86 31q-22 -2 -42 -8.5t-40 -20.5t-27 -19.5t-27 -23.5q-27 -23 -47.5 -19.5t-21 26.5t19.5 57q31 49 83 78t120 32q37 2 72 -12t65 -43t47.5 -80t15.5 -117q-4 -208 -66 -303q-36 -56 -82 -78t-102 -25q-33 -1 -66 12t-62 41t-45 77.5
t-13 113.5q5 84 50 112q5 3 12 6t13.5 5t17.5 4.5t18 4t21.5 3.5t22 3t25 3.5t25.5 3.5q9 2 36 6.5t38 5.5t39 3q6 0 12 1zM248 266l-110 -18q-6 -50 1 -84.5t23.5 -50t33 -21.5t34.5 -5q30 2 58 21t43 57q10 25 17 61q6 34 8 61q-8 -2 -18 -5q-17 -3 -26 -4.5t-31.5 -5.5
t-32.5 -6z" />
    <glyph glyph-name="Ohorn" unicode="&#x1a0;" horiz-adv-x="516" 
d="M271 531q-62 -10 -100 -78t-39 -181q-1 -98 30.5 -141t91.5 -34q56 9 93 82t36 197q-1 85 -30 124t-82 31zM267 638q31 3 60.5 -2t60.5 -22q6 -3 12 -7q8 15 22 37q14 23 20 34q16 30 39.5 43t48.5 1q20 -10 25.5 -27.5t1.5 -33t-13 -37.5q-28 -62 -77 -98q5 -13 10 -29
q14 -47 14 -108q0 -190 -68 -290t-179 -109q-109 -8 -165 69t-54 227q2 78 25.5 145t59 110t76.5 68t81 29z" />
    <glyph glyph-name="ohorn" unicode="&#x1a1;" 
d="M220 405q-39 -7 -61 -54t-23 -127q-1 -70 17 -99.5t56 -22.5q36 6 57.5 56.5t20.5 138.5q-1 60 -17 87t-50 21zM350 543q16 30 39.5 43t48.5 1q20 -10 25.5 -27.5t1.5 -33t-13 -37.5q-25 -55 -66 -89v-2q12 -38 12 -87q0 -152 -54.5 -232t-142.5 -87t-133 55t-43 182
q2 62 20.5 115.5t47 88t61.5 54.5t65 23q25 3 48.5 -1t47.5 -17q2 -1 3 -2q5 9 12 18q14 24 20 35z" />
    <glyph glyph-name="Uhorn" unicode="&#x1af;" horiz-adv-x="502" 
d="M56 591q2 23 18 34t32 11q7 0 14.5 -2t18 -8.5t16 -23t3.5 -40.5q-12 -162 -30 -332q-8 -72 20 -105t77 -27q56 7 85 35.5t42 94t13 188.5q0 106 -4 150q-4 48 10.5 63t38.5 15q44 0 57 -80q14 22 20 33q16 30 39.5 43t48.5 1q20 -10 25.5 -27.5t1.5 -33t-13 -37.5
q-29 -63 -79 -99q-19 -15 -35 -19q1 -198 -48 -308q-48 -111 -201 -127q-52 -6 -94 14t-66 56t-34.5 82.5t-4.5 93.5q15 105 29 355z" />
    <glyph glyph-name="uhorn" unicode="&#x1b0;" horiz-adv-x="428" 
d="M181 -8q-34 -6 -65 8t-47 44q-50 90 -36 357q1 32 8 54.5t16.5 32.5t17.5 13.5t17 3.5q10 0 18.5 -2t19.5 -7.5t16.5 -19t3.5 -33.5q-3 -35 -3 -120q0 -45 0.5 -75t2.5 -58.5t5.5 -45t9.5 -29t14.5 -16.5t20.5 -1q38 10 62.5 68t24.5 167q0 85 -3 120q-6 62 54 62
q40 0 50 -36q3 -12 6 -27q6 10 9 16q16 30 39.5 43t48.5 1q20 -10 25.5 -27.5t1.5 -33t-13 -37.5q-29 -63 -79 -100q-15 -10 -27 -16q0 -5 -1 -10v-107q0 -85 -2 -115.5t-8 -41.5q-13 -24 -41 -24q-54 0 -55 59v8q-7 -9 -14 -19q-19 -23 -43.5 -37t-53.5 -19z" />
    <glyph glyph-name="uni01C4" unicode="&#x1c4;" horiz-adv-x="949" 
d="M818 845q48 -20 -13 -127q-12 -21 -35.5 -40.5t-53.5 -23.5q-50 -6 -90 64q-19 33 -26.5 53t-5 36.5t19.5 27.5q22 13 54 -12.5t51 -65.5q23 47 49.5 72t49.5 16zM920 538q-14 -26 -80 -133.5t-81 -133.5q-29 -51 -89 -126q-6 -9 -13 -17q27 4 58 6q118 8 166.5 -4
t46.5 -54q-1 -14 -6.5 -23.5t-17.5 -15.5t-25 -10t-34.5 -6t-39.5 -3t-47 -2.5t-51 -3.5q-135 -12 -150 -12q-32 0 -49 8q-5 3 -9 7l-1 1q-13 12 -13.5 28.5t12.5 49.5q8 19 40 66t79 112.5t74 107.5q14 22 40 67t45 75q1 2 3 5q-9 -1 -20 -1q-29 -2 -51 -4
q-135 -12 -150 -12q-29 0 -47.5 13t-18.5 36q1 40 56 58.5t168 26.5q118 8 167 -4q7 -2 14 -5q2 0 4 -1q15 -5 24.5 -16.5t9 -32t-13.5 -47.5zM149 91q29 6 55 21q38 21 59 49q29 39 51 103t22 119q0 92 -27 130.5t-85 38.5q-34 0 -64 -14q-2 -1 -5 -3q2 -41 -2 -124
q-1 -45 -2 -135t-1 -148q-1 -22 -1 -37zM446 381q0 -78 -24.5 -150t-67.5 -128q-34 -44 -95.5 -78.5t-111.5 -34.5q-42 0 -64 11q-10 3 -17 11q-14 16 -14 41v274q2 84 5 137q-10 0 -21 3q-16 4 -31.5 19t-14.5 38q2 41 44 72.5t96.5 46.5t105.5 15q94 1 152 -71.5
t58 -205.5z" />
    <glyph glyph-name="uni01C5" unicode="&#x1c5;" horiz-adv-x="859" 
d="M780 710q48 -20 -13 -127q-12 -21 -35.5 -40.5t-53.5 -23.5q-50 -6 -90 64q-19 33 -26.5 53t-5 36.5t19.5 27.5q22 13 54 -12.5t51 -65.5q23 47 49.5 72t49.5 16zM833 430q-11 -20 -64 -106.5t-65 -106.5q-21 -38 -64 -93q14 2 29 3q97 7 135 -6t35 -60q0 -11 -4.5 -19
t-14 -12.5t-20 -7.5t-28 -5t-32 -2.5t-37.5 -2t-40 -2.5q-109 -10 -120 -10q-20 0 -33 4q-8 3 -15 9q-10 9 -10.5 22.5t10.5 39.5q10 26 56 105t87 144q3 3 7 10q19 29 29 44q6 9 15 22q-12 -1 -26 -2q-109 -10 -120 -10q-54 0 -53 49q1 65 179 78q95 7 133 -3q8 -2 13 -5h2
q19 -7 25 -24.5t-9 -52.5zM149 91q29 6 55 21q38 21 59 49q29 39 51 103t22 119q0 92 -27 130.5t-85 38.5q-34 0 -64 -14q-2 -1 -5 -3q2 -41 -2 -124q-1 -45 -2 -135t-1 -148q-1 -22 -1 -37zM446 381q0 -78 -24.5 -150t-67.5 -128q-34 -44 -95.5 -78.5t-111.5 -34.5
q-42 0 -64 11q-10 3 -17 11q-14 16 -14 41v274q2 84 5 137q-10 0 -21 3q-16 4 -31.5 19t-14.5 38q2 41 44 72.5t96.5 46.5t105.5 15q94 1 152 -71.5t58 -205.5z" />
    <glyph glyph-name="uni01C6" unicode="&#x1c6;" horiz-adv-x="847" 
d="M768 710q48 -20 -13 -127q-12 -21 -35.5 -40.5t-53.5 -23.5q-50 -6 -90 64q-19 33 -26.5 53t-5 36.5t19.5 27.5q22 13 54 -12.5t51 -65.5q23 47 49.5 72t49.5 16zM821 430q-11 -20 -64 -106.5t-65 -106.5q-21 -38 -64 -93q14 2 29 3q97 7 135 -6t35 -60q0 -11 -4.5 -19
t-14 -12.5t-20 -7.5t-28 -5t-32 -2.5t-37.5 -2t-40 -2.5q-109 -10 -120 -10q-20 0 -33 4q-8 3 -15 9q-10 9 -10.5 22.5t10.5 39.5q10 26 56 105t87 144q3 3 7 10q19 29 29 44q6 9 15 22q-12 -1 -26 -2q-109 -10 -120 -10q-54 0 -53 49q1 65 179 78q95 7 133 -3q8 -2 13 -5h2
q19 -7 25 -24.5t-9 -52.5zM228 395q-41 -7 -64.5 -50t-24.5 -121q-1 -68 19 -98t59 -24q36 6 59.5 57t22.5 138q0 58 -18.5 81t-52.5 17zM326 658q11 25 38 31t48 -14q6 -6 9.5 -32t4.5 -67.5t1 -76t-0.5 -80t-0.5 -57.5q0 -33 -2.5 -86.5t-4.5 -95.5t-2 -46q0 -58 -14 -100
q-11 -33 -40 -34q-16 -1 -28 14.5t-13 39.5v7q-45 -63 -121 -69q-88 -7 -133 55t-43 182q2 62 20.5 114t47 84.5t61.5 51t65 21.5t57 -3q23 -5 44 -20v71q1 45 2 74.5t4 35.5z" />
    <glyph glyph-name="uni01C7" unicode="&#x1c7;" horiz-adv-x="847" 
d="M798 493q1 -23 4 -75.5t4 -72.5t2.5 -59.5t0.5 -59t-3 -46t-6.5 -45t-11.5 -34.5q-27 -58 -62.5 -82.5t-92.5 -28.5q-71 -5 -120.5 23t-55.5 57q-5 25 9 41.5t40 16.5q10 0 46.5 -12.5t78.5 -10.5q36 2 49.5 21t16.5 77q2 67 -2 167q-3 85 -7 147q-68 -7 -157 -7
q-29 0 -47.5 13t-18.5 36q1 39 64 57.5t180 24.5q132 7 133 -55q1 -15 -8.5 -27t-21.5 -19q-7 -3 -17 -7q1 -18 3 -40zM58 590q3 21 20 32.5t35 11.5t33 -13.5t15 -37.5q0 -18 -9.5 -120.5t-12.5 -175.5q-2 -52 -2 -121q0 -42 15.5 -61.5t46.5 -18.5q32 1 88 9q8 2 31.5 6
t27 4h19.5q36 -8 35 -45q-1 -31 -38 -47q-57 -24 -133 -31q-93 -8 -144.5 27t-53.5 127q-1 68 10.5 244.5t16.5 209.5z" />
    <glyph glyph-name="uni01C8" unicode="&#x1c8;" horiz-adv-x="628" 
d="M456 608q-2 31 18.5 50t50.5 20q32 1 50 -19t20 -51q2 -32 -16.5 -49.5t-53.5 -19.5q-33 -2 -49.5 14.5t-19.5 54.5zM587 363q1 -23 4.5 -75.5t4.5 -72.5t2.5 -59.5t0.5 -59t-3 -46t-7 -45t-12 -34.5q-45 -99 -145 -111q-56 -7 -88 14.5t-38 51.5q-5 25 9 41.5t40 16.5
q13 0 34 -6.5t41 -2.5q25 5 39.5 24.5t16.5 73.5q3 67 -1.5 167t-9 168t-2.5 73q8 30 39 30q18 0 35.5 -10t25.5 -29q9 -22 14 -109zM58 590q3 21 20 32.5t35 11.5t33 -13.5t15 -37.5q0 -18 -9.5 -120.5t-12.5 -175.5q-2 -52 -2 -121q0 -42 15.5 -61.5t46.5 -18.5q32 1 88 9
q8 2 31.5 6t27 4h19.5q36 -8 35 -45q-1 -31 -38 -47q-57 -24 -133 -31q-93 -8 -144.5 27t-53.5 127q-1 68 10.5 244.5t16.5 209.5z" />
    <glyph glyph-name="uni01C9" unicode="&#x1c9;" horiz-adv-x="382" 
d="M210 608q-2 31 18.5 50t50.5 20q32 1 50 -19t20 -51q2 -32 -16.5 -49.5t-53.5 -19.5q-33 -2 -49.5 14.5t-19.5 54.5zM341 363q1 -23 4.5 -75.5t4.5 -72.5t2.5 -59.5t0.5 -59t-3 -46t-7 -45t-12 -34.5q-45 -99 -145 -111q-56 -7 -88 14.5t-38 51.5q-5 25 9 41.5t40 16.5
q13 0 34 -6.5t41 -2.5q25 5 39.5 24.5t16.5 73.5q3 67 -1.5 167t-9 168t-2.5 73q8 30 39 30q18 0 35.5 -10t25.5 -29q9 -22 14 -109zM145 651q5 -19 5 -113q0 -25 -0.5 -95.5t-0.5 -130.5v-35v-36v-32.5t-0.5 -32.5t-1 -28.5t-1.5 -28.5t-3 -24t-4 -22.5t-5 -17.5
q-18 -55 -63 -55q-18 0 -29.5 13t-11.5 37q-1 49 5.5 322t10.5 285q5 14 17.5 22t28.5 8q18 0 33.5 -10t19.5 -26z" />
    <glyph glyph-name="uni01CA" unicode="&#x1ca;" horiz-adv-x="909" 
d="M860 493q1 -23 4 -75.5t4 -72.5t2.5 -59.5t0.5 -59t-3 -46t-6.5 -45t-11.5 -34.5q-27 -58 -62.5 -82.5t-92.5 -28.5q-71 -5 -120.5 23t-55.5 57q-5 25 9 41.5t40 16.5q10 0 46.5 -12.5t78.5 -10.5q36 2 49.5 21t16.5 77q2 67 -2 167q-3 85 -7 147q-68 -7 -157 -7
q-29 0 -47.5 13t-18.5 36q1 39 64 57.5t180 24.5q132 7 133 -55q1 -15 -8.5 -27t-21.5 -19q-7 -3 -17 -7q1 -18 3 -40zM82 635q32 4 68 -43t104 -187q12 -25 35.5 -77.5t41.5 -92.5l17 -40q6 364 6 404q0 31 23.5 41.5t47.5 -16.5q8 -9 14 -22.5t9.5 -29.5t6 -35.5t3 -40.5
t0.5 -45v-49v-52q1 -138 -7.5 -215.5t-25 -106t-45.5 -28.5q-15 0 -31 11t-28 25t-26.5 39.5t-22.5 42t-21 44.5l-114 245q3 -86 -8 -257q-9 -150 -56 -150q-24 0 -34 33.5t-9 126.5q2 71 3 183q2 184 9 236t40 56z" />
    <glyph glyph-name="uni01CB" unicode="&#x1cb;" horiz-adv-x="690" 
d="M518 608q-2 31 18.5 50t50.5 20q32 1 50 -19t20 -51q2 -32 -16.5 -49.5t-53.5 -19.5q-33 -2 -49.5 14.5t-19.5 54.5zM649 363q1 -23 4.5 -75.5t4.5 -72.5t2.5 -59.5t0.5 -59t-3 -46t-7 -45t-12 -34.5q-45 -99 -145 -111q-56 -7 -88 14.5t-38 51.5q-5 25 9 41.5t40 16.5
q13 0 34 -6.5t41 -2.5q25 5 39.5 24.5t16.5 73.5q3 67 -1.5 167t-9 168t-2.5 73q8 30 39 30q18 0 35.5 -10t25.5 -29q9 -22 14 -109zM82 635q32 4 68 -43t104 -187q12 -25 35.5 -77.5t41.5 -92.5l17 -40q6 364 6 404q0 31 23.5 41.5t47.5 -16.5q8 -9 14 -22.5t9.5 -29.5
t6 -35.5t3 -40.5t0.5 -45v-49v-52q1 -138 -7.5 -215.5t-25 -106t-45.5 -28.5q-15 0 -31 11t-28 25t-26.5 39.5t-22.5 42t-21 44.5l-114 245q3 -86 -8 -257q-9 -150 -56 -150q-24 0 -34 33.5t-9 126.5q2 71 3 183q2 184 9 236t40 56z" />
    <glyph glyph-name="uni01CC" unicode="&#x1cc;" horiz-adv-x="636" 
d="M464 608q-2 31 18.5 50t50.5 20q32 1 50 -19t20 -51q2 -32 -16.5 -49.5t-53.5 -19.5q-33 -2 -49.5 14.5t-19.5 54.5zM595 363q1 -23 4.5 -75.5t4.5 -72.5t2.5 -59.5t0.5 -59t-3 -46t-7 -45t-12 -34.5q-45 -99 -145 -111q-56 -7 -88 14.5t-38 51.5q-5 25 9 41.5t40 16.5
q13 0 34 -6.5t41 -2.5q25 5 39.5 24.5t16.5 73.5q3 67 -1.5 167t-9 168t-2.5 73q8 30 39 30q18 0 35.5 -10t25.5 -29q9 -22 14 -109zM242 519q48 8 79.5 -10.5t55.5 -66.5q15 -30 22.5 -69t8 -95t-0.5 -83t-4 -91q-2 -32 -10 -54t-20 -32t-21.5 -14t-18.5 -4t-15.5 2
t-13.5 7.5t-10 19t-1 34.5q3 35 3 130q0 44 -0.5 71t-2.5 56.5t-6 45t-10.5 29t-16.5 17t-25 0.5q-45 -10 -73 -68q-17 -33 -24 -81v-82q0 -81 -2 -112q1 -4 1 -6q0 -22 -4.5 -36t-13.5 -19t-15 -6.5t-17 -1.5q-53 0 -55 59q-2 53 -2 224t3 199q3 13 18 22t29 9
q17 0 36.5 -11t25.5 -31q1 -3 1 -6q5 4 9 9q44 37 90 45z" />
    <glyph glyph-name="uni01CD" unicode="&#x1cd;" horiz-adv-x="494" 
d="M354 833q48 -20 -13 -127q-12 -21 -35.5 -40.5t-53.5 -23.5q-50 -6 -90 64q-19 33 -26.5 53t-5 36.5t19.5 27.5q22 13 54 -12.5t51 -65.5q23 47 49.5 72t49.5 16zM297 342q-4 13 -7 21q-12 35 -25 70t-20 52l-7 18q-8 -39 -37 -162q24 4 50 4q25 0 46 -3zM175 603
q27 46 85 32q28 -7 49 -46.5t59 -139.5q38 -99 79.5 -220t46.5 -153q6 -35 2 -51t-20 -25q-40 -23 -75 34q-10 18 -31 81q-17 51 -36 113q-21 2 -48 2q-57 0 -99 -10q-9 -1 -16 -4q-8 -29 -12 -44t-15.5 -62.5t-21.5 -70.5q-11 -29 -32 -45.5t-39 -13.5q-39 7 -22 94
q5 26 15 64q-5 -1 -11 -1q-22 0 -30.5 18t-3 41t21.5 38q32 31 61 53q9 36 20 78q57 210 73 238z" />
    <glyph glyph-name="uni01CE" unicode="&#x1ce;" horiz-adv-x="445" 
d="M341 707q48 -20 -13 -127q-12 -21 -35.5 -40.5t-53.5 -23.5q-50 -6 -90 64q-19 33 -26.5 53t-5 36.5t19.5 27.5q22 13 54 -12.5t51 -65.5q23 47 49.5 72t49.5 16zM228 395q-41 -7 -64.5 -50t-24.5 -121q-1 -68 19 -98t59 -24q36 6 59.5 57t22.5 138q0 58 -18.5 81
t-52.5 17zM219 500q32 3 57 -3q18 -4 34 -14q4 12 18 21q15 9 29 9q15 0 30.5 -11t20.5 -31q8 -25 8 -113q0 -26 -0.5 -70.5t-0.5 -106.5q0 -85 -2 -115.5t-8 -41.5q-14 -24 -41 -24q-48 0 -55 46q-42 -49 -108 -54q-88 -7 -133 55t-43 182q2 62 20.5 114t47 84.5t61.5 51
t65 21.5z" />
    <glyph glyph-name="uni01CF" unicode="&#x1cf;" horiz-adv-x="172" 
d="M134 601q9 -25 9 -109q0 -25 -0.5 -67.5t-0.5 -102.5q0 -283 -13 -300q-17 -22 -45 -22q-23 0 -36.5 10.5t-14.5 43.5q-2 49 -2.5 290t3.5 267q10 30 41 30q18 0 34.5 -10.5t24.5 -29.5zM189 845q48 -20 -13 -127q-12 -21 -35.5 -40.5t-53.5 -23.5q-50 -6 -90 64
q-19 33 -26.5 53t-5 36.5t19.5 27.5q22 13 54 -12.5t51 -65.5q23 47 49.5 72t49.5 16z" />
    <glyph glyph-name="uni01D0" unicode="&#x1d0;" horiz-adv-x="204" 
d="M198 711q48 -20 -13 -127q-12 -21 -35.5 -40.5t-53.5 -23.5q-50 -6 -90 64q-19 33 -26.5 53t-5 36.5t19.5 27.5q22 13 54 -12.5t51 -65.5q23 47 49.5 72t49.5 16zM155 471q7 -25 7 -113v-70.5v-106.5q0 -85 -2 -115.5t-8 -41t-21 -17.5t-30 -7q-54 0 -56 59
q-1 53 -1.5 224t3.5 199q3 13 18 22t29 9q16 0 36 -11t25 -31z" />
    <glyph glyph-name="uni01D1" unicode="&#x1d1;" horiz-adv-x="516" 
d="M392 835q48 -20 -13 -127q-12 -21 -35.5 -40.5t-53.5 -23.5q-50 -6 -90 64q-19 33 -26.5 53t-5 36.5t19.5 27.5q22 13 54 -12.5t51 -65.5q23 47 49.5 72t49.5 16zM271 531q-62 -10 -100 -78t-39 -181q-1 -98 30.5 -141t91.5 -34q56 9 93 82t36 197q-1 85 -30 124t-82 31z
M267 638q31 3 60.5 -2t60 -21.5t53 -43.5t36.5 -74t14 -108q0 -190 -68 -290t-179 -109q-109 -8 -165 69t-54 227q2 78 25.5 145t59 110t76.5 68t81 29z" />
    <glyph glyph-name="uni01D2" unicode="&#x1d2;" 
d="M335 709q48 -20 -13 -127q-12 -21 -35.5 -40.5t-53.5 -23.5q-50 -6 -90 64q-19 33 -26.5 53t-5 36.5t19.5 27.5q22 13 54 -12.5t51 -65.5q23 47 49.5 72t49.5 16zM220 405q-39 -7 -61 -54t-23 -127q-1 -70 17 -99.5t56 -22.5q36 6 57.5 56.5t20.5 138.5q-1 60 -17 87
t-50 21zM219 510q25 3 48.5 -1t47.5 -17t42 -35t29.5 -59.5t11.5 -86.5q0 -152 -54.5 -232t-142.5 -87t-133 55t-43 182q2 62 20.5 115.5t47 88t61.5 54.5t65 23z" />
    <glyph glyph-name="uni01D3" unicode="&#x1d3;" horiz-adv-x="502" 
d="M367 849q48 -20 -13 -127q-12 -21 -35.5 -40.5t-53.5 -23.5q-50 -6 -90 64q-19 33 -26.5 53t-5 36.5t19.5 27.5q22 13 54 -12.5t51 -65.5q23 47 49.5 72t49.5 16zM56 591q2 23 18 34t32 11q7 0 14.5 -2t18 -8.5t16 -23t3.5 -40.5q-12 -162 -30 -332q-8 -72 20 -105
t77 -27q56 7 85 35.5t42 94t13 188.5q0 106 -4 150q-4 48 10.5 63t38.5 15q56 0 62 -130q14 -263 -45 -397q-48 -111 -201 -127q-52 -6 -94 14t-66 56t-34.5 82.5t-4.5 93.5q15 105 29 355z" />
    <glyph glyph-name="uni01D4" unicode="&#x1d4;" horiz-adv-x="428" 
d="M316 700q48 -20 -13 -127q-12 -21 -35.5 -40.5t-53.5 -23.5q-50 -6 -90 64q-19 33 -26.5 53t-5 36.5t19.5 27.5q22 13 54 -12.5t51 -65.5q23 47 49.5 72t49.5 16zM181 -8q-34 -6 -65 8t-47 44q-50 90 -36 357q1 32 8 54.5t16.5 32.5t17.5 13.5t17 3.5q10 0 18.5 -2
t19.5 -7.5t16.5 -19t3.5 -33.5q-3 -35 -3 -120q0 -45 0.5 -75t2.5 -58.5t5.5 -45t9.5 -29t14.5 -16.5t20.5 -1q38 10 62.5 68t24.5 167q0 85 -3 120q-6 62 54 62q40 0 50 -36q11 -38 11 -121q0 -26 -0.5 -70.5t-0.5 -106.5q0 -85 -2 -115.5t-8 -41.5q-13 -24 -41 -24
q-54 0 -55 59v8q-7 -9 -14 -19q-19 -23 -43.5 -37t-53.5 -19z" />
    <glyph glyph-name="uni01D5" unicode="&#x1d5;" horiz-adv-x="502" 
d="M290 925q2 1 12 2.5t11.5 1.5t10 1t10.5 1t9 0.5t9.5 0t8.5 -0.5t9.5 -1t8.5 -2.5t10 -2.5q25 -10 27 -37.5t-17 -38.5q-10 -5 -18.5 -9t-20.5 -6.5t-19 -4t-28 -4t-33 -4.5q-11 -1 -29.5 -5t-28.5 -5.5t-29 -2.5t-31 2q-25 4 -35 20t-5 32t18 24q48 25 150 39zM285 732
q-2 31 19.5 49t52.5 18q37 0 55 -20t15 -50q-3 -33 -20 -48t-53 -18q-32 -3 -49 11.5t-20 57.5zM108 729q-2 31 18.5 50t50.5 20q32 1 50 -19t20 -51q2 -32 -16.5 -49.5t-53.5 -19.5q-33 -2 -49.5 14.5t-19.5 54.5zM56 591q2 23 18 34t32 11q7 0 14.5 -2t18 -8.5t16 -23
t3.5 -40.5q-12 -162 -30 -332q-8 -72 20 -105t77 -27q56 7 85 35.5t42 94t13 188.5q0 106 -4 150q-4 48 10.5 63t38.5 15q56 0 62 -130q14 -263 -45 -397q-48 -111 -201 -127q-52 -6 -94 14t-66 56t-34.5 82.5t-4.5 93.5q15 105 29 355z" />
    <glyph glyph-name="uni01D6" unicode="&#x1d6;" horiz-adv-x="428" 
d="M239 799q2 1 12 2.5t11.5 1.5t10 1t10.5 1t9 0.5t9.5 0t8.5 -0.5t9.5 -1t8.5 -2.5t10 -2.5q25 -10 27 -37.5t-17 -38.5q-10 -5 -18.5 -9t-20.5 -6.5t-19 -4t-28 -4t-33 -4.5q-11 -1 -29.5 -5t-28.5 -5.5t-29 -2.5t-31 2q-25 4 -35 20t-5 32t18 24q48 25 150 39zM242 605
q-2 31 19.5 49t52.5 18q37 0 55 -20t15 -50q-3 -33 -20 -48t-53 -18q-32 -3 -49 11.5t-20 57.5zM65 602q-2 31 18.5 50t50.5 20q32 1 50 -19t20 -51q2 -32 -16.5 -49.5t-53.5 -19.5q-33 -2 -49.5 14.5t-19.5 54.5zM181 -8q-34 -6 -65 8t-47 44q-50 90 -36 357q1 32 8 54.5
t16.5 32.5t17.5 13.5t17 3.5q10 0 18.5 -2t19.5 -7.5t16.5 -19t3.5 -33.5q-3 -35 -3 -120q0 -45 0.5 -75t2.5 -58.5t5.5 -45t9.5 -29t14.5 -16.5t20.5 -1q38 10 62.5 68t24.5 167q0 85 -3 120q-6 62 54 62q40 0 50 -36q11 -38 11 -121q0 -26 -0.5 -70.5t-0.5 -106.5
q0 -85 -2 -115.5t-8 -41.5q-13 -24 -41 -24q-54 0 -55 59v8q-7 -9 -14 -19q-19 -23 -43.5 -37t-53.5 -19z" />
    <glyph glyph-name="uni01D7" unicode="&#x1d7;" horiz-adv-x="502" 
d="M217 814q-3 7 -3.5 13t2 12.5t6 11.5t10 12t12 12.5t14.5 14t16 15.5q65 65 102 40q19 -12 23 -29t-4.5 -33t-19 -29t-23.5 -24q-30 -25 -59 -34.5t-48.5 -4t-27.5 22.5zM285 732q-2 31 19.5 49t52.5 18q37 0 55 -20t15 -50q-3 -33 -20 -48t-53 -18q-32 -3 -49 11.5
t-20 57.5zM108 729q-2 31 18.5 50t50.5 20q32 1 50 -19t20 -51q2 -32 -16.5 -49.5t-53.5 -19.5q-33 -2 -49.5 14.5t-19.5 54.5zM56 591q2 23 18 34t32 11q7 0 14.5 -2t18 -8.5t16 -23t3.5 -40.5q-12 -162 -30 -332q-8 -72 20 -105t77 -27q56 7 85 35.5t42 94t13 188.5
q0 106 -4 150q-4 48 10.5 63t38.5 15q56 0 62 -130q14 -263 -45 -397q-48 -111 -201 -127q-52 -6 -94 14t-66 56t-34.5 82.5t-4.5 93.5q15 105 29 355z" />
    <glyph glyph-name="uni01D8" unicode="&#x1d8;" horiz-adv-x="428" 
d="M166 688q-3 7 -3.5 13t2 12.5t6 11.5t10 12t12 12.5t14.5 14t16 15.5q65 65 102 40q19 -12 23 -29t-4.5 -33t-19 -29t-23.5 -24q-30 -25 -59 -34.5t-48.5 -4t-27.5 22.5zM242 605q-2 31 19.5 49t52.5 18q37 0 55 -20t15 -50q-3 -33 -20 -48t-53 -18q-32 -3 -49 11.5
t-20 57.5zM65 602q-2 31 18.5 50t50.5 20q32 1 50 -19t20 -51q2 -32 -16.5 -49.5t-53.5 -19.5q-33 -2 -49.5 14.5t-19.5 54.5zM181 -8q-34 -6 -65 8t-47 44q-50 90 -36 357q1 32 8 54.5t16.5 32.5t17.5 13.5t17 3.5q10 0 18.5 -2t19.5 -7.5t16.5 -19t3.5 -33.5
q-3 -35 -3 -120q0 -45 0.5 -75t2.5 -58.5t5.5 -45t9.5 -29t14.5 -16.5t20.5 -1q38 10 62.5 68t24.5 167q0 85 -3 120q-6 62 54 62q40 0 50 -36q11 -38 11 -121q0 -26 -0.5 -70.5t-0.5 -106.5q0 -85 -2 -115.5t-8 -41.5q-13 -24 -41 -24q-54 0 -55 59v8q-7 -9 -14 -19
q-19 -23 -43.5 -37t-53.5 -19z" />
    <glyph glyph-name="uni01D9" unicode="&#x1d9;" horiz-adv-x="502" 
d="M365 981q48 -20 -13 -127q-12 -21 -35.5 -40.5t-53.5 -23.5q-50 -6 -90 64q-19 33 -26.5 53t-5 36.5t19.5 27.5q22 13 54 -12.5t51 -65.5q23 47 49.5 72t49.5 16zM285 732q-2 31 19.5 49t52.5 18q37 0 55 -20t15 -50q-3 -33 -20 -48t-53 -18q-32 -3 -49 11.5t-20 57.5z
M108 729q-2 31 18.5 50t50.5 20q32 1 50 -19t20 -51q2 -32 -16.5 -49.5t-53.5 -19.5q-33 -2 -49.5 14.5t-19.5 54.5zM56 591q2 23 18 34t32 11q7 0 14.5 -2t18 -8.5t16 -23t3.5 -40.5q-12 -162 -30 -332q-8 -72 20 -105t77 -27q56 7 85 35.5t42 94t13 188.5q0 106 -4 150
q-4 48 10.5 63t38.5 15q56 0 62 -130q14 -263 -45 -397q-48 -111 -201 -127q-52 -6 -94 14t-66 56t-34.5 82.5t-4.5 93.5q15 105 29 355z" />
    <glyph glyph-name="uni01DA" unicode="&#x1da;" horiz-adv-x="428" 
d="M314 855q48 -20 -13 -127q-12 -21 -35.5 -40.5t-53.5 -23.5q-50 -6 -90 64q-19 33 -26.5 53t-5 36.5t19.5 27.5q22 13 54 -12.5t51 -65.5q23 47 49.5 72t49.5 16zM242 605q-2 31 19.5 49t52.5 18q37 0 55 -20t15 -50q-3 -33 -20 -48t-53 -18q-32 -3 -49 11.5t-20 57.5z
M65 602q-2 31 18.5 50t50.5 20q32 1 50 -19t20 -51q2 -32 -16.5 -49.5t-53.5 -19.5q-33 -2 -49.5 14.5t-19.5 54.5zM181 -8q-34 -6 -65 8t-47 44q-50 90 -36 357q1 32 8 54.5t16.5 32.5t17.5 13.5t17 3.5q10 0 18.5 -2t19.5 -7.5t16.5 -19t3.5 -33.5q-3 -35 -3 -120
q0 -45 0.5 -75t2.5 -58.5t5.5 -45t9.5 -29t14.5 -16.5t20.5 -1q38 10 62.5 68t24.5 167q0 85 -3 120q-6 62 54 62q40 0 50 -36q11 -38 11 -121q0 -26 -0.5 -70.5t-0.5 -106.5q0 -85 -2 -115.5t-8 -41.5q-13 -24 -41 -24q-54 0 -55 59v8q-7 -9 -14 -19q-19 -23 -43.5 -37
t-53.5 -19z" />
    <glyph glyph-name="uni01DB" unicode="&#x1db;" horiz-adv-x="502" 
d="M307 812q-7 -17 -26.5 -22.5t-48.5 4t-60 34.5q-12 11 -23 24t-19 29t-4 33t22 29q37 25 103 -40q6 -7 15.5 -15.5t15 -14t12 -12.5t9.5 -12t5.5 -11.5t2 -12.5t-3.5 -13zM285 732q-2 31 19.5 49t52.5 18q37 0 55 -20t15 -50q-3 -33 -20 -48t-53 -18q-32 -3 -49 11.5
t-20 57.5zM108 729q-2 31 18.5 50t50.5 20q32 1 50 -19t20 -51q2 -32 -16.5 -49.5t-53.5 -19.5q-33 -2 -49.5 14.5t-19.5 54.5zM56 591q2 23 18 34t32 11q7 0 14.5 -2t18 -8.5t16 -23t3.5 -40.5q-12 -162 -30 -332q-8 -72 20 -105t77 -27q56 7 85 35.5t42 94t13 188.5
q0 106 -4 150q-4 48 10.5 63t38.5 15q56 0 62 -130q14 -263 -45 -397q-48 -111 -201 -127q-52 -6 -94 14t-66 56t-34.5 82.5t-4.5 93.5q15 105 29 355z" />
    <glyph glyph-name="uni01DC" unicode="&#x1dc;" horiz-adv-x="428" 
d="M256 686q-7 -17 -26.5 -22.5t-48.5 4t-60 34.5q-12 11 -23 24t-19 29t-4 33t22 29q37 25 103 -40q6 -7 15.5 -15.5t15 -14t12 -12.5t9.5 -12t5.5 -11.5t2 -12.5t-3.5 -13zM242 605q-2 31 19.5 49t52.5 18q37 0 55 -20t15 -50q-3 -33 -20 -48t-53 -18q-32 -3 -49 11.5
t-20 57.5zM65 602q-2 31 18.5 50t50.5 20q32 1 50 -19t20 -51q2 -32 -16.5 -49.5t-53.5 -19.5q-33 -2 -49.5 14.5t-19.5 54.5zM181 -8q-34 -6 -65 8t-47 44q-50 90 -36 357q1 32 8 54.5t16.5 32.5t17.5 13.5t17 3.5q10 0 18.5 -2t19.5 -7.5t16.5 -19t3.5 -33.5
q-3 -35 -3 -120q0 -45 0.5 -75t2.5 -58.5t5.5 -45t9.5 -29t14.5 -16.5t20.5 -1q38 10 62.5 68t24.5 167q0 85 -3 120q-6 62 54 62q40 0 50 -36q11 -38 11 -121q0 -26 -0.5 -70.5t-0.5 -106.5q0 -85 -2 -115.5t-8 -41.5q-13 -24 -41 -24q-54 0 -55 59v8q-7 -9 -14 -19
q-19 -23 -43.5 -37t-53.5 -19z" />
    <glyph glyph-name="uni01DE" unicode="&#x1de;" horiz-adv-x="494" 
d="M272 925q2 1 12 2.5t11.5 1.5t10 1t10.5 1t9 0.5t9.5 0t8.5 -0.5t9.5 -1t8.5 -2.5t10 -2.5q25 -10 27 -37.5t-17 -38.5q-10 -5 -18.5 -9t-20.5 -6.5t-19 -4t-28 -4t-33 -4.5q-11 -1 -29.5 -5t-28.5 -5.5t-29 -2.5t-31 2q-25 4 -35 20t-5 32t18 24q48 25 150 39zM272 716
q-2 31 19.5 49t52.5 18q37 0 55 -20t15 -50q-3 -33 -20 -48t-53 -18q-32 -3 -49 11.5t-20 57.5zM95 713q-2 31 18.5 50t50.5 20q32 1 50 -19t20 -51q2 -32 -16.5 -49.5t-53.5 -19.5q-33 -2 -49.5 14.5t-19.5 54.5zM297 342q-4 13 -7 21q-12 35 -25 70t-20 52l-7 18
q-8 -39 -37 -162q24 4 50 4q25 0 46 -3zM175 603q27 46 85 32q28 -7 49 -46.5t59 -139.5q38 -99 79.5 -220t46.5 -153q6 -35 2 -51t-20 -25q-40 -23 -75 34q-10 18 -31 81q-17 51 -36 113q-21 2 -48 2q-57 0 -99 -10q-9 -1 -16 -4q-8 -29 -12 -44t-15.5 -62.5t-21.5 -70.5
q-11 -29 -32 -45.5t-39 -13.5q-39 7 -22 94q5 26 15 64q-5 -1 -11 -1q-22 0 -30.5 18t-3 41t21.5 38q32 31 61 53q9 36 20 78q57 210 73 238z" />
    <glyph glyph-name="uni01DF" unicode="&#x1df;" horiz-adv-x="445" 
d="M264 799q2 1 12 2.5t11.5 1.5t10 1t10.5 1t9 0.5t9.5 0t8.5 -0.5t9.5 -1t8.5 -2.5t10 -2.5q25 -10 27 -37.5t-17 -38.5q-10 -5 -18.5 -9t-20.5 -6.5t-19 -4t-28 -4t-33 -4.5q-11 -1 -29.5 -5t-28.5 -5.5t-29 -2.5t-31 2q-25 4 -35 20t-5 32t18 24q48 25 150 39zM259 590
q-2 31 19.5 49t52.5 18q37 0 55 -20t15 -50q-3 -33 -20 -48t-53 -18q-32 -3 -49 11.5t-20 57.5zM82 587q-2 31 18.5 50t50.5 20q32 1 50 -19t20 -51q2 -32 -16.5 -49.5t-53.5 -19.5q-33 -2 -49.5 14.5t-19.5 54.5zM228 395q-41 -7 -64.5 -50t-24.5 -121q-1 -68 19 -98
t59 -24q36 6 59.5 57t22.5 138q0 58 -18.5 81t-52.5 17zM219 500q32 3 57 -3q18 -4 34 -14q4 12 18 21q15 9 29 9q15 0 30.5 -11t20.5 -31q8 -25 8 -113q0 -26 -0.5 -70.5t-0.5 -106.5q0 -85 -2 -115.5t-8 -41.5q-14 -24 -41 -24q-48 0 -55 46q-42 -49 -108 -54
q-88 -7 -133 55t-43 182q2 62 20.5 114t47 84.5t61.5 51t65 21.5z" />
    <glyph glyph-name="uni01E0" unicode="&#x1e0;" horiz-adv-x="494" 
d="M272 925q2 1 12 2.5t11.5 1.5t10 1t10.5 1t9 0.5t9.5 0t8.5 -0.5t9.5 -1t8.5 -2.5t10 -2.5q25 -10 27 -37.5t-17 -38.5q-10 -5 -18.5 -9t-20.5 -6.5t-19 -4t-28 -4t-33 -4.5q-11 -1 -29.5 -5t-28.5 -5.5t-29 -2.5t-31 2q-25 4 -35 20t-5 32t18 24q48 25 150 39zM297 342
q-4 13 -7 21q-12 35 -25 70t-20 52l-7 18q-8 -39 -37 -162q24 4 50 4q25 0 46 -3zM175 603q27 46 85 32q28 -7 49 -46.5t59 -139.5q38 -99 79.5 -220t46.5 -153q6 -35 2 -51t-20 -25q-40 -23 -75 34q-10 18 -31 81q-17 51 -36 113q-21 2 -48 2q-57 0 -99 -10q-9 -1 -16 -4
q-8 -29 -12 -44t-15.5 -62.5t-21.5 -70.5q-11 -29 -32 -45.5t-39 -13.5q-39 7 -22 94q5 26 15 64q-5 -1 -11 -1q-22 0 -30.5 18t-3 41t21.5 38q32 31 61 53q9 36 20 78q57 210 73 238zM179 715q1 32 20.5 50.5t48.5 19.5q35 0 53.5 -20t16.5 -50q-6 -72 -70 -69
q-35 1 -52.5 17t-16.5 52z" />
    <glyph glyph-name="uni01E1" unicode="&#x1e1;" horiz-adv-x="445" 
d="M264 799q2 1 12 2.5t11.5 1.5t10 1t10.5 1t9 0.5t9.5 0t8.5 -0.5t9.5 -1t8.5 -2.5t10 -2.5q25 -10 27 -37.5t-17 -38.5q-10 -5 -18.5 -9t-20.5 -6.5t-19 -4t-28 -4t-33 -4.5q-11 -1 -29.5 -5t-28.5 -5.5t-29 -2.5t-31 2q-25 4 -35 20t-5 32t18 24q48 25 150 39zM228 395
q-41 -7 -64.5 -50t-24.5 -121q-1 -68 19 -98t59 -24q36 6 59.5 57t22.5 138q0 58 -18.5 81t-52.5 17zM219 500q32 3 57 -3q18 -4 34 -14q4 12 18 21q15 9 29 9q15 0 30.5 -11t20.5 -31q8 -25 8 -113q0 -26 -0.5 -70.5t-0.5 -106.5q0 -85 -2 -115.5t-8 -41.5q-14 -24 -41 -24
q-48 0 -55 46q-42 -49 -108 -54q-88 -7 -133 55t-43 182q2 62 20.5 114t47 84.5t61.5 51t65 21.5zM166 589q1 32 20.5 50.5t48.5 19.5q35 0 53.5 -20t16.5 -50q-6 -72 -70 -69q-35 1 -52.5 17t-16.5 52z" />
    <glyph glyph-name="uni01E2" unicode="&#x1e2;" horiz-adv-x="740" 
d="M487 769q2 1 12 2.5t11.5 1.5t10 1t10.5 1t9 0.5t9.5 0t8.5 -0.5t9.5 -1t8.5 -2.5t10 -2.5q25 -10 27 -37.5t-17 -38.5q-10 -5 -18.5 -9t-20.5 -6.5t-19 -4t-28 -4t-33 -4.5q-11 -1 -29.5 -5t-28.5 -5.5t-29 -2.5t-31 2q-25 4 -35 20t-5 32t18 24q48 25 150 39zM357 387
q-12 -21 -27 -46q-33 -56 -57 -95q22 8 46 16q14 5 32 11q0 12 1 23q2 50 5 91zM531 634q77 11 130 3q27 -5 38 -22.5t6 -35.5t-20 -26q-16 -8 -36 -13.5t-36 -8t-45.5 -6t-48.5 -6.5q-31 -5 -43.5 -21t-15.5 -61q-4 -61 -6 -126q14 5 25 9q30 10 64 21t55 14.5t32 1.5
q28 -8 33.5 -38t-14.5 -44q-40 -30 -196 -85q0 -20 1 -31q2 -42 14 -56t43 -12q30 2 60 5.5t44.5 5.5t32 1t33.5 -7q22 -7 30.5 -26.5t-2 -40t-38.5 -29.5q-50 -16 -140 -16t-132.5 28.5t-48.5 100.5q-1 17 -2 41q-11 -3 -22 -7q-53 -18 -114 -42q-10 -4 -19 -7
q-18 -38 -31 -57q-18 -26 -42 -37.5t-40 -5.5q-29 13 -13 66q-26 2 -38 18q-13 16 -9.5 34.5t17.5 28.5q28 19 89 45q34 60 86 151q109 186 133 216q17 21 31 32t52.5 24t102.5 21z" />
    <glyph glyph-name="uni01E3" unicode="&#x1e3;" horiz-adv-x="624" 
d="M331 636q2 1 12 2.5t11.5 1.5t10 1t10.5 1t9 0.5t9.5 0t8.5 -0.5t9.5 -1t8.5 -2.5t10 -2.5q25 -10 27 -37.5t-17 -38.5q-10 -5 -18.5 -9t-20.5 -6.5t-19 -4t-28 -4t-33 -4.5q-11 -1 -29.5 -5t-28.5 -5.5t-29 -2.5t-31 2q-25 4 -35 20t-5 32t18 24q48 25 150 39zM366 290
q7 1 16 2q37 2 56 4q11 1 24.5 3t21.5 3l7 2q1 2 2 5.5t1.5 15t0.5 23.5q-3 42 -17.5 57t-35.5 12q-20 -2 -38 -19t-26 -48q-6 -22 -8 -32q-2 -9 -4 -28zM248 198q-14 0 -32 2q-23 1 -34 1q-33 0 -50.5 -11.5t-17.5 -45.5q0 -25 13.5 -39.5t35.5 -14.5q32 0 55 12
q16 8 25 16q1 21 3 48zM601 349q0 -60 -16 -91.5t-55 -43.5q-41 -12 -122 -16q-26 -2 -46 -3q4 -101 68 -101q47 0 95 34q26 19 47 14t23 -26.5t-17 -51.5q-55 -79 -163 -72q-30 2 -57 14q-17 7 -32 18q-7 -9 -16 -14q-18 -10 -36 -10q-30 0 -39 28q-17 -11 -37 -18
q-27 -10 -52 -10q-129 0 -129 141q0 145 142 151q47 2 89 -7v13q-2 54 -17 74.5t-39 23.5q-29 3 -61 -10t-44 -13q-26 0 -39.5 16.5t-9.5 41.5q6 29 52.5 58t103.5 22q46 -5 78 -22q26 -14 47 -44q50 73 130 73q27 0 52.5 -9t48.5 -28t37 -53.5t14 -78.5z" />
    <glyph glyph-name="Gcaron" unicode="&#x1e6;" horiz-adv-x="499" 
d="M409 845q48 -20 -13 -127q-12 -21 -35.5 -40.5t-53.5 -23.5v0q54 -1 84 -21q31 -21 36 -49q5 -25 -8.5 -41.5t-40.5 -16.5q-17 0 -32 11t-32 12q-34 2 -70.5 -22.5t-61.5 -74.5q-23 -46 -34.5 -86t-15.5 -107q-2 -51 5 -85t24.5 -50.5t36 -23t45.5 -8.5q33 -2 66.5 12
t50.5 44q11 18 9 144q-2 -1 -7 -1.5t-18 -2t-26 -1.5q-49 1 -43 46q5 35 50.5 56.5t85.5 20.5q34 -1 44.5 -21.5t12.5 -88.5q3 -78 -2 -128t-24 -83q-28 -50 -87 -77t-130 -22q-37 2 -71 16.5t-64.5 42.5t-48 78t-16.5 115q4 163 86 283q85 124 183 129q-42 4 -77 64
q-19 33 -26.5 53t-5 36.5t19.5 27.5q22 13 54 -12.5t51 -65.5q23 47 49.5 72t49.5 16z" />
    <glyph glyph-name="gcaron" unicode="&#x1e7;" horiz-adv-x="459" 
d="M341 707q48 -20 -13 -127q-12 -21 -35.5 -40.5t-53.5 -23.5q-50 -6 -90 64q-19 33 -26.5 53t-5 36.5t19.5 27.5q22 13 54 -12.5t51 -65.5q23 47 49.5 72t49.5 16zM231 395q-40 -7 -64 -47t-25 -104q-1 -54 19.5 -81t58.5 -21q37 6 60 44.5t22 110.5q0 58 -18.5 81
t-52.5 17zM219 500q32 3 57.5 -3t49.5 -25q4 -2 8 -6q3 8 6 14q6 10 14 17.5t19 6t24 -11.5q12 -9 18.5 -31t8 -67t1.5 -71t-1 -91v-50.5t-1 -71t-4 -56.5q-8 -97 -55 -155.5t-130 -66.5q-42 -4 -87 3t-77 27.5t-27 49.5q5 25 22.5 31.5t38.5 1t54.5 -10.5t58.5 -1
q38 6 59.5 28.5t29.5 85.5q2 15 3 30q-42 -40 -108 -45q-87 -7 -132.5 52t-43.5 165q2 55 20.5 102.5t47 78.5t61.5 49t65 21z" />
    <glyph glyph-name="uni01E8" unicode="&#x1e8;" horiz-adv-x="475" 
d="M338 835q48 -20 -13 -127q-12 -21 -35.5 -40.5t-53.5 -23.5q-50 -6 -90 64q-19 33 -26.5 53t-5 36.5t19.5 27.5q22 13 54 -12.5t51 -65.5q23 47 49.5 72t49.5 16zM134 597q9 -25 9 -109q0 -25 -0.5 -65.5t-0.5 -100.5v-28q19 15 37 34q47 46 81.5 96.5t54 84t31.5 58.5
q16 34 41.5 46.5t48.5 -1.5q39 -23 7 -96q-11 -25 -53 -88q-34 -52 -85 -112q9 -25 55 -102q52 -90 76 -122q21 -31 15.5 -55.5t-28.5 -36.5q-37 -20 -90 41q-19 22 -63 107q-31 57 -43 88q-29 -25 -53 -35q-3 -1 -8 -4l-25 -10q-3 -153 -12 -165q-17 -22 -45 -22
q-23 0 -36.5 10.5t-14.5 43.5q-2 49 -2.5 288t3.5 265q10 30 41 30q18 0 34.5 -10.5t24.5 -29.5z" />
    <glyph glyph-name="uni01E9" unicode="&#x1e9;" horiz-adv-x="409" 
d="M178 869q48 -20 -13 -127q-12 -21 -35.5 -40.5t-53.5 -23.5q-50 -6 -90 64q-19 33 -26.5 53t-5 36.5t19.5 27.5q22 13 54 -12.5t51 -65.5q23 47 49.5 72t49.5 16zM134 637q9 -25 9 -109q0 -25 -0.5 -80.5t-0.5 -115.5v-90q9 8 17 18l4 4q5 5 9 11q19 23 33.5 44t28.5 47
t21.5 41t17.5 37t11 24q10 20 26.5 28.5t33 6t28.5 -13.5q35 -31 2 -104q-18 -40 -92 -132q-12 -15 -23 -28q1 -1 1 -3q8 -12 18.5 -25.5t18 -23t21.5 -24.5t19 -20.5t19.5 -20.5t14.5 -16q17 -17 18.5 -36.5t-7.5 -33.5t-24 -22q-37 -20 -90 41q-19 22 -44 58
q-24 34 -37 58q-18 -13 -34 -20q-2 -1 -7 -3q-3 -1 -6 -3q-4 -99 -11 -109q-17 -22 -45 -22q-23 0 -36.5 10.5t-14.5 43.5q-2 49 -2.5 308t3.5 285q10 30 41 30q18 0 34.5 -10.5t24.5 -29.5z" />
    </font>
</defs>
</svg>
